<svg width="20" height="20" viewBox="0 0 20 20" fill="none" xmlns="http://www.w3.org/2000/svg">
<path d="M14.7433 9.26961C14.6571 9.22832 14.5696 9.18858 14.481 9.15053C14.3266 6.30606 12.7723 4.6776 10.1625 4.66094C10.1507 4.66086 10.139 4.66086 10.1271 4.66086C8.56613 4.66086 7.26787 5.32718 6.4688 6.53966L7.90411 7.52425C8.50105 6.61857 9.43788 6.4255 10.1278 6.4255C10.1358 6.4255 10.1438 6.4255 10.1517 6.42557C11.011 6.43105 11.6594 6.6809 12.0791 7.16813C12.3845 7.52284 12.5888 8.01302 12.6899 8.63165C11.9281 8.50216 11.1041 8.46234 10.2233 8.51284C7.74199 8.65577 6.14683 10.1029 6.25396 12.1137C6.30833 13.1337 6.81647 14.0112 7.68473 14.5845C8.41884 15.0691 9.36432 15.306 10.347 15.2524C11.6446 15.1812 12.6626 14.6861 13.3729 13.7808C13.9122 13.0933 14.2534 12.2024 14.404 11.0798C15.0224 11.453 15.4808 11.9442 15.7339 12.5346C16.1643 13.5382 16.1894 15.1875 14.8437 16.5321C13.6646 17.71 12.2473 18.2196 10.1054 18.2353C7.72944 18.2177 5.93252 17.4557 4.76422 15.9705C3.6702 14.5798 3.10481 12.571 3.08371 10C3.10481 7.42894 3.6702 5.42017 4.76422 4.02945C5.93252 2.54426 7.72941 1.78229 10.1054 1.76464C12.4986 1.78243 14.3268 2.54806 15.5398 4.04042C16.1346 4.77225 16.5831 5.69258 16.8787 6.76566L18.5607 6.3169C18.2023 4.99606 17.6385 3.85789 16.8712 2.91396C15.3161 1.0007 13.0417 0.0203279 10.1112 0H10.0995C7.175 0.0202573 4.9261 1.00435 3.41529 2.92493C2.07087 4.634 1.37738 7.01205 1.35408 9.99297L1.354 10L1.35408 10.007C1.37738 12.9879 2.07087 15.366 3.41529 17.0751C4.9261 18.9956 7.175 19.9798 10.0995 20H10.1112C12.7113 19.982 14.544 19.3013 16.0538 17.7928C18.0291 15.8194 17.9696 13.3457 17.3186 11.8272C16.8515 10.7382 15.961 9.85377 14.7433 9.26961ZM10.2541 13.4903C9.16656 13.5516 8.03675 13.0634 7.98105 12.0179C7.93975 11.2427 8.53273 10.3777 10.3208 10.2747C10.5256 10.2629 10.7265 10.2571 10.9239 10.2571C11.5734 10.2571 12.181 10.3202 12.7334 10.4409C12.5273 13.0141 11.3188 13.4319 10.2541 13.4903Z" fill="#45080D"/>
</svg>
