<svg width="15" height="15" viewBox="0 0 15 15" fill="none" xmlns="http://www.w3.org/2000/svg">
<path d="M7.72008 8.43818V6.06751M12.1066 12.794C12.2233 12.7942 12.3381 12.7646 12.4401 12.7081C12.5422 12.6516 12.6281 12.57 12.6898 12.471C12.7515 12.3721 12.787 12.259 12.7928 12.1425C12.7986 12.026 12.7746 11.9099 12.7231 11.8053L8.45129 3.10278C8.38421 2.96605 8.28013 2.85087 8.15088 2.77032C8.02163 2.68976 7.87238 2.64706 7.72008 2.64706C7.56778 2.64706 7.41853 2.68976 7.28928 2.77032C7.16003 2.85087 7.05595 2.96605 6.98887 3.10278L2.71705 11.8053C2.66551 11.9099 2.64152 12.026 2.64734 12.1425C2.65316 12.259 2.68861 12.3721 2.75032 12.471C2.81204 12.57 2.89799 12.6516 3.00003 12.7081C3.10208 12.7646 3.21686 12.7942 3.33351 12.794H12.1066Z" stroke="#9A9AA2" stroke-linecap="round" stroke-linejoin="round"/>
<path d="M7.7204 10.7823C7.65081 10.7823 7.58407 10.7546 7.53486 10.7054C7.48565 10.6562 7.45801 10.5895 7.45801 10.5199C7.45801 10.4503 7.48565 10.3836 7.53486 10.3344C7.58407 10.2851 7.65081 10.2575 7.7204 10.2575M7.7204 10.7823C7.79 10.7823 7.85674 10.7546 7.90595 10.7054C7.95516 10.6562 7.9828 10.5895 7.9828 10.5199C7.9828 10.4503 7.95516 10.3836 7.90595 10.3344C7.85674 10.2851 7.79 10.2575 7.7204 10.2575" stroke="#9A9AA2"/>
</svg>
