<svg width="40" height="40" viewBox="0 0 40 40" fill="none" xmlns="http://www.w3.org/2000/svg">
<g clip-path="url(#clip0_12387_9324)">
<g clip-path="url(#clip1_12387_9324)">
<path d="M39.1163 22.4339L37.5157 20.7362L35.6373 13.7559C35.2623 12.3801 34.0742 11.4291 32.7276 11.4291H27.8918V8.21454C27.8918 6.44096 26.535 5 24.8611 5H3.03076C1.35857 5 0 6.43911 0 8.21454V26.2146C0 27.9881 1.35683 29.4291 3.03076 29.4291H4.9092C5.18875 30.8954 6.41265 32 7.87857 32C9.34449 32 10.5701 30.8935 10.8479 29.4291H30.364C30.6436 30.8954 31.8675 32 33.3334 32C34.7993 32 36.0249 30.8935 36.3028 29.4291H38.1812C39.1869 29.4291 40 28.5685 40 27.5V24.7104C40 23.8498 39.6847 23.0398 39.1153 22.4341L39.1163 22.4339ZM32.7173 12.7144C33.5287 12.7144 34.2446 13.2929 34.4628 14.1155L36.1606 20.429H27.8695V12.7143L32.7173 12.7144ZM1.21334 26.2145V8.21446C1.21334 7.14778 2.0247 6.28537 3.03214 6.28537H24.8508C25.8565 6.28537 26.6696 7.14593 26.6696 8.21446V28.1418H10.8511C10.8153 27.9484 10.7539 27.7567 10.6806 27.5633C10.6568 27.4982 10.6329 27.4476 10.6073 27.3969C10.546 27.2812 10.4982 27.1529 10.4249 27.0498C10.3891 26.9847 10.3397 26.9341 10.3039 26.869C10.2306 26.7786 10.171 26.6756 10.0857 26.5996L9.9289 26.4333C9.84367 26.3556 9.75844 26.2796 9.67491 26.2145C9.61355 26.1639 9.55389 26.1241 9.49253 26.0735C9.39536 26.0084 9.2982 25.9578 9.20104 25.9072C9.13968 25.8692 9.06809 25.8421 9.00672 25.8041C8.88569 25.7535 8.76467 25.7137 8.64364 25.6884C8.58228 25.6758 8.52262 25.6505 8.46125 25.6378C8.27886 25.5998 8.08626 25.5727 7.89193 25.5727C7.6976 25.5727 7.50327 25.598 7.32261 25.6378C7.26124 25.6378 7.20158 25.6758 7.14022 25.6884C7.01919 25.7264 6.89817 25.7535 6.77714 25.8041C6.70384 25.8294 6.64419 25.8692 6.58282 25.9072C6.48565 25.9578 6.37656 26.0102 6.29133 26.0735C6.22997 26.1115 6.17031 26.1639 6.10894 26.2145C6.02371 26.2796 5.93849 26.3556 5.85496 26.4333C5.7936 26.4839 5.74587 26.5364 5.69814 26.5996C5.62484 26.69 5.55325 26.7804 5.47995 26.869C5.43222 26.9341 5.39472 26.9847 5.35893 27.0498C5.28563 27.1655 5.2379 27.2812 5.17654 27.3969C5.15267 27.4476 5.11517 27.5 5.10324 27.5633C5.02995 27.7441 4.97029 27.9357 4.93278 28.1418H3.05434C2.04865 28.1418 1.23554 27.2812 1.23554 26.2127L1.21334 26.2145ZM7.87966 30.7144C6.87397 30.7144 6.06086 29.8538 6.06086 28.7853C6.06086 27.7186 6.87222 26.8562 7.87966 26.8562C8.88536 26.8562 9.69847 27.7168 9.69847 28.7853C9.69847 29.852 8.8871 30.7144 7.87966 30.7144ZM33.334 30.7144C32.3283 30.7144 31.5152 29.8538 31.5152 28.7853C31.5152 27.7186 32.3266 26.8562 33.334 26.8562C34.3397 26.8562 35.1528 27.7168 35.1528 28.7853C35.1528 29.852 34.3415 30.7144 33.334 30.7144ZM38.7887 27.4999C38.7887 27.8596 38.5228 28.1435 38.1819 28.1435H36.3034C36.2676 27.9501 36.2062 27.7584 36.133 27.565C36.1091 27.4999 36.0852 27.4493 36.0597 27.3986C35.9983 27.2829 35.9506 27.1546 35.8773 27.0515C35.8415 26.9864 35.792 26.9358 35.7562 26.8707C35.6829 26.7803 35.6233 26.6773 35.5381 26.6013L35.3812 26.435C35.296 26.3573 35.2108 26.2813 35.1273 26.2162C35.0659 26.1656 35.0062 26.1258 34.9449 26.0752C34.8477 26.0101 34.7505 25.9595 34.6534 25.9089C34.592 25.8709 34.5204 25.8438 34.4591 25.8058C34.338 25.7552 34.217 25.7154 34.096 25.6901C34.0346 25.6775 33.975 25.6522 33.9136 25.6395C33.7312 25.6015 33.5386 25.5744 33.3443 25.5744C33.1499 25.5744 32.9556 25.5997 32.7749 25.6395C32.7136 25.6395 32.6539 25.6775 32.5926 25.6901C32.4715 25.7281 32.3505 25.7552 32.2295 25.8058C32.1562 25.8311 32.0965 25.8709 32.0352 25.9089C31.938 25.9595 31.8289 26.0119 31.7437 26.0752C31.6823 26.1132 31.6227 26.1656 31.5613 26.2162C31.4761 26.2813 31.3908 26.3573 31.3073 26.435C31.2459 26.4856 31.1982 26.5381 31.1505 26.6013C31.0772 26.6917 31.0056 26.7821 30.9323 26.8707C30.8846 26.9358 30.8471 26.9864 30.8113 27.0515C30.738 27.1672 30.6902 27.2829 30.6289 27.3986C30.605 27.4493 30.5675 27.5017 30.5556 27.565C30.4823 27.7458 30.4226 27.9374 30.3851 28.1435H27.8998V21.7143H36.7364L38.2756 23.3469C38.6148 23.7067 38.8092 24.1948 38.8092 24.7101V27.4998L38.7887 27.4999ZM13.3343 22.3562V12.0705C13.3343 11.7107 13.6002 11.4268 13.9412 11.4268C14.2804 11.4268 14.548 11.7089 14.548 12.0705V22.3562C14.548 22.716 14.2821 22.9999 13.9412 22.9999C13.602 22.9999 13.3343 22.7178 13.3343 22.3562ZM19.3941 22.3562V12.0705C19.3941 11.7107 19.66 11.4268 20.0009 11.4268C20.3402 11.4268 20.6078 11.7089 20.6078 12.0705V22.3562C20.6078 22.716 20.3419 22.9999 20.0009 22.9999C19.6617 22.9999 19.3941 22.7178 19.3941 22.3562ZM7.2731 22.3562V12.0705C7.2731 11.7107 7.53902 11.4268 7.87995 11.4268C8.21916 11.4268 8.4868 11.7089 8.4868 12.0705V22.3562C8.4868 22.716 8.22089 22.9999 7.87995 22.9999C7.54074 22.9999 7.2731 22.7178 7.2731 22.3562Z" fill="#171717"/>
</g>
</g>
<defs>
<clipPath id="clip0_12387_9324">
<rect width="40" height="40" fill="white"/>
</clipPath>
<clipPath id="clip1_12387_9324">
<rect width="40" height="40" fill="white" transform="translate(0.25)"/>
</clipPath>
</defs>
</svg>
