<svg width="40" height="40" viewBox="0 0 40 40" fill="none" xmlns="http://www.w3.org/2000/svg">
<path d="M10.335 6.03125L10.3359 6.03223L19.4023 7.63379H19.4014C19.6637 7.67482 19.8558 7.88796 19.8789 8.14258L19.8779 8.25488L18.2461 23.124L18.2451 23.1299C17.967 24.6927 17.0964 26.0874 15.8135 27.0234C14.558 27.9406 13.001 28.344 11.46 28.1602L9.99707 36.5439C11.4377 36.8242 12.838 37.2833 14.167 37.9092L14.1152 38.0996C12.7435 37.9654 10.8538 37.6213 9.49707 37.3662C8.14599 37.1107 6.23245 36.8185 4.90625 36.4746L4.92285 36.2783C6.38926 36.1438 7.86763 36.1936 9.32324 36.4258L10.8018 28.0391C9.28894 27.6822 7.96431 26.7684 7.09766 25.4746C6.21167 24.1544 5.87096 22.5433 6.14746 20.9775L6.14844 20.9707L9.69043 6.45703C9.7583 6.16735 10.0424 5.98112 10.335 6.03125ZM30.6875 6.03125C30.9805 5.98108 31.2637 6.16764 31.333 6.45703L34.875 20.9707L34.877 20.9766V20.9775C35.1518 22.5446 34.8087 24.1553 33.9229 25.4756C33.0533 26.7694 31.7273 27.6837 30.2129 28.0391L31.6758 36.4258C33.13 36.1935 34.6088 36.1437 36.0771 36.2783L36.0928 36.4746C34.7656 36.8187 32.8642 37.1429 31.5 37.3672C30.1394 37.5906 28.2541 37.9654 26.8848 38.0996L26.832 37.9092C28.1653 37.2818 29.5701 36.8242 31.0166 36.5439L29.5547 28.1592C28.0138 28.343 26.4567 27.9396 25.2012 27.0225C23.9185 26.0863 23.0486 24.6924 22.7705 23.1299L22.7686 23.124V23.123L21.1162 8.25488V8.25391C21.0847 7.9523 21.2937 7.67958 21.5938 7.63281L30.6865 6.03125H30.6875ZM18.46 15.3389C16.9114 15.0695 15.3247 15.1079 13.791 15.4492L13.4785 15.5234C11.7257 15.962 9.89954 16.0181 8.12207 15.6934L6.79102 21.1055L6.79199 21.1064C6.28307 23.9983 8.13407 26.7628 10.9639 27.416L11.2412 27.4727L11.5195 27.5137C14.3961 27.8694 17.0793 25.9133 17.5957 23.0273L18.46 15.3389ZM27.5674 15.5078C25.9368 15.0991 24.2399 15.0361 22.584 15.3242L23.4082 22.9307L23.4336 22.9277L23.4512 23.0225C23.9842 26.0059 26.8366 27.9934 29.8184 27.459C32.7995 26.9266 34.7853 24.0776 34.2549 21.0967L32.9229 15.6768C31.147 16.0013 29.32 15.9448 27.5674 15.5078ZM8.2793 15.0459C9.95632 15.3509 11.6804 15.2952 13.3359 14.8799C15.0288 14.4517 16.7917 14.3787 18.5137 14.6602L19.2168 8.27539L10.3145 6.72363L8.2793 15.0459ZM21.7969 8.27539L22.5 14.6797C24.2206 14.392 25.9841 14.4593 27.6787 14.8799C29.3353 15.2891 31.0572 15.3385 32.7334 15.0264L30.6992 6.70508L21.7969 8.27539ZM17.6279 4.04688C17.7354 3.94349 17.8952 3.92552 18.0205 3.99512L18.0713 4.03027L18.0791 4.03613L19.3965 5.36719C19.5249 5.49563 19.5252 5.70469 19.3984 5.83398L19.3975 5.83301C19.337 5.89705 19.2535 5.93225 19.165 5.93066V5.93164L19.1641 5.93066L19.1631 5.93164V5.93066C19.0745 5.9301 18.9911 5.89603 18.9277 5.83691L18.9248 5.83398L17.6064 4.5L17.5986 4.49219C17.4924 4.35916 17.5066 4.16607 17.627 4.04785L17.6279 4.04688ZM22.9795 3.77051C23.0467 3.76216 23.1125 3.77594 23.1699 3.80469L23.2236 3.83789L23.2295 3.8418L23.2734 3.8877C23.3645 4.00261 23.3718 4.16672 23.2852 4.29004L23.2832 4.29492L23.2822 4.29395L22.1377 5.76074C22.0759 5.84235 21.9793 5.8916 21.877 5.8916C21.8029 5.89157 21.732 5.86745 21.6729 5.8252L21.668 5.82227L21.7314 5.74414L21.668 5.82129C21.5285 5.70777 21.5015 5.50247 21.6133 5.35742L21.6143 5.35645L22.7588 3.89648C22.8131 3.82476 22.8946 3.78136 22.9785 3.77051H22.9795ZM20.7686 5.08789L20.6689 5.0752L20.7676 5.08789C20.7458 5.25578 20.6041 5.38161 20.4355 5.38184C20.2656 5.38184 20.1225 5.25633 20.1006 5.08789L20.0986 5.0752H20.0996V3.19238H20.1006C20.1227 3.02642 20.2653 2.90039 20.4355 2.90039C20.6047 2.90062 20.7458 3.02769 20.7676 3.19336L20.7695 3.20605H20.7686V5.08789Z" fill="#171717" stroke="#171717" stroke-width="0.2"/>
</svg>
