<svg width="17" height="17" viewBox="0 0 17 17" fill="none" xmlns="http://www.w3.org/2000/svg">
<path d="M4.82018 14.5H2V9.1H3.20008L4.82018 14.5ZM12.8001 6.7H9.20047V4.3C9.20047 3.82261 9.01081 3.36477 8.67323 3.02721C8.33564 2.68964 7.87777 2.5 7.40035 2.5H6.80031V4.9L5.0602 7.075C4.63305 7.60891 4.40028 8.27226 4.40016 8.956V9.7L5.66024 13.9H10.6628C11.1981 13.9001 11.7181 13.7212 12.14 13.3917C12.562 13.0623 12.8617 12.6013 12.9915 12.082L13.9642 8.191C14.0084 8.0141 14.0117 7.82945 13.9739 7.65108C13.9361 7.4727 13.8581 7.30529 13.7459 7.16156C13.6337 7.01783 13.4902 6.90156 13.3263 6.82159C13.1624 6.74161 12.9825 6.70003 12.8001 6.7Z" fill="#7A7A85"/>
</svg>
