<svg width="22" height="22" viewBox="0 0 22 22" fill="none" xmlns="http://www.w3.org/2000/svg">
<path d="M13.5889 7.04565H6.77531C5.44372 7.04565 4.36426 8.12512 4.36426 9.45671V14.978C4.36426 16.3096 5.44372 17.3891 6.77531 17.3891H13.5889C14.9205 17.3891 16 16.3096 16 14.978V9.45671C16 8.12512 14.9205 7.04565 13.5889 7.04565Z" stroke="#7A7A85" stroke-linecap="round" stroke-linejoin="round"/>
<path d="M12.7678 7.04562V5.10633C12.7678 4.42062 12.4954 3.763 12.0106 3.27814C11.5257 2.79327 10.8681 2.52087 10.1824 2.52087C9.49667 2.52087 8.83905 2.79327 8.35419 3.27814C7.86932 3.763 7.59692 4.42062 7.59692 5.10633V7.04562" stroke="#7A7A85" stroke-linecap="round" stroke-linejoin="round"/>
<path d="M10.1821 13.4229C10.8479 13.4229 11.3876 12.8832 11.3876 12.2174C11.3876 11.5516 10.8479 11.0118 10.1821 11.0118C9.5163 11.0118 8.97656 11.5516 8.97656 12.2174C8.97656 12.8832 9.5163 13.4229 10.1821 13.4229Z" fill="#7A7A85"/>
</svg>
