<svg width="40" height="40" viewBox="0 0 40 40" fill="none" xmlns="http://www.w3.org/2000/svg">
<path d="M14.2223 2.01493C14.4392 2.00205 14.6565 1.9975 14.8737 2.00129C16.9724 2.04139 18.9679 2.91892 20.416 4.43849C21.5902 5.67386 22.3305 7.25788 22.5251 8.95117C22.5944 9.55456 22.5787 10.1805 22.5761 10.7878C22.5757 11.4377 22.571 12.0877 22.5617 12.7375C22.6913 12.8093 22.8227 12.8755 22.9454 12.9561C23.9014 13.5835 23.9513 14.9887 23.2842 15.8448C23.1114 16.0666 22.9465 16.1953 22.7326 16.3731C22.7672 16.613 22.8372 16.9135 22.8867 17.1531L23.188 18.6066C23.4635 19.938 23.5958 20.9157 23.0455 22.241C22.5348 23.4846 21.5513 24.4748 20.3112 24.9941C20.6495 25.1407 21.1451 25.2863 21.5056 25.4127C22.3813 25.7196 23.2784 25.9957 24.1472 26.3211L24.1562 26.305C24.1842 26.2566 24.2098 26.2062 24.243 26.161C25.3556 24.6474 27.0145 23.6733 28.8572 23.3511C30.7402 23.036 32.6715 23.4779 34.2302 24.5805C35.7958 25.6899 36.8592 27.3733 37.1887 29.2636C37.4608 30.8258 37.2113 32.434 36.4783 33.8402C36.2562 34.262 36.0526 34.5519 35.7773 34.941C35.8337 35.1026 35.945 35.3458 36.0149 35.5101L36.4979 36.6369C36.5767 36.8212 36.7818 37.2669 36.7988 37.4451C36.8113 37.5869 36.7648 37.7277 36.6707 37.8344C36.4323 38.1056 36.0141 37.9752 35.6882 37.9183L33.6006 37.5512C33.2548 37.4903 32.7566 37.3825 32.4143 37.3796C32.3111 37.3788 31.8774 37.5122 31.7326 37.5494C31.431 37.6265 31.1235 37.6794 30.8133 37.7076C30.6668 37.7276 30.5194 37.7416 30.3717 37.7498C29.9639 37.7743 29.5969 37.7498 29.1954 37.6986C27.5655 37.4911 26.3252 36.8762 25.1101 35.8015C24.8434 35.7603 24.0923 35.7787 23.7816 35.7791L21.2665 35.7797L9.46293 35.7793L5.5498 35.7786C4.92633 35.7786 4.30117 35.7817 3.67786 35.7804C3.59853 35.7804 3.37636 35.7653 3.31015 35.7326C3.21819 35.687 3.07759 35.5673 3.04555 35.4605C3.0146 35.3572 3.0045 35.2813 3.00298 35.1747C2.99764 34.7972 3.00099 34.4174 3.00156 34.0399L3.0017 31.994L3.00149 30.6029C3.00153 30.2588 2.99288 29.8924 3.03063 29.5522C3.07636 29.1015 3.19921 28.6618 3.39387 28.2527C3.79442 27.3961 4.4878 26.7107 5.34904 26.3201C5.75479 26.1367 6.31236 25.9731 6.74408 25.8227C7.47952 25.5666 8.22777 25.3307 8.96104 25.067C8.00043 24.5706 7.30169 23.9755 6.74976 23.0272C6.15131 21.9966 5.93607 20.7877 6.14197 19.6139C6.21275 19.1954 6.35277 18.7168 6.46352 18.3016L6.94451 16.4924C6.80339 16.4034 6.67325 16.315 6.5399 16.2117C5.55879 15.4515 5.42101 13.8113 6.43118 13.0146C6.58045 12.8969 6.71098 12.8352 6.88473 12.7513C6.89336 12.0262 6.87321 11.2893 6.87775 10.563C6.88029 10.1545 6.86749 9.74311 6.89529 9.33478C7.01341 7.56934 7.72046 5.89456 8.90321 4.57857C10.2752 3.06458 12.1833 2.14496 14.2223 2.01493ZM7.92651 13.3615L7.91162 13.3846C7.65755 13.7725 7.36133 13.6286 7.03624 13.8815C6.78947 14.0734 6.75134 14.4717 6.80888 14.7605C6.86305 15.0468 7.03323 15.2979 7.27907 15.4543C7.58072 15.6489 8.05282 15.6425 8.13602 16.04C8.16135 16.1611 8.16482 16.2818 8.17072 16.405C8.25131 19.3067 10.439 22.1635 13.4009 22.5501C13.5814 22.5737 13.7659 22.5839 13.948 22.5927C14.5854 22.603 15.3451 22.6336 16.0028 22.5568C18.9572 22.2128 21.1873 19.3623 21.2975 16.4722C21.3225 15.8122 21.3726 15.7555 22.0293 15.5387C22.3856 15.4159 22.7085 14.9234 22.6816 14.5422C22.6827 14.3247 22.636 14.0683 22.4713 13.9167C22.1207 13.5942 21.8016 13.8229 21.5396 13.3505C21.1559 13.2947 20.7896 13.2697 20.4011 13.2024C19.1151 12.9818 17.8887 12.4976 16.799 11.7803C16.4633 11.5545 16.1412 11.3092 15.8343 11.0456C15.763 10.9849 15.5523 10.7835 15.4817 10.7664C14.1943 11.5282 13.0326 11.9479 11.5375 12.1449C11.2882 12.1787 11.0378 12.2034 10.7868 12.2189C10.453 12.2414 10.0634 12.1832 9.89032 12.5085C9.49166 13.2577 8.74554 13.5542 7.92651 13.3615ZM31.464 36.5297C31.6749 36.4824 32.2191 36.2937 32.3567 36.2945C32.6199 36.2963 33.1902 36.4094 33.4683 36.4602C34.1184 36.5788 34.7822 36.6819 35.4291 36.8046C35.2668 36.4378 35.1084 36.0692 34.9539 35.6992C34.8412 35.4345 34.5691 34.9464 34.686 34.6716C34.7727 34.4678 34.9778 34.2527 35.1112 34.0674C35.2473 33.8763 35.3723 33.6773 35.4849 33.4717C36.3838 31.8371 36.4923 29.8828 35.7797 28.1589C35.158 26.6427 33.9594 25.4357 32.4477 24.8036C31.6239 24.4614 30.7357 24.3022 29.8444 24.337C28.1367 24.4348 26.6151 25.0813 25.4669 26.368C24.3536 27.6086 23.7869 29.2453 23.8945 30.9087C24.1022 34.3502 27.0938 36.9042 30.5202 36.6712C30.8381 36.6494 31.1538 36.6019 31.464 36.5297ZM18.1316 6.42409C18.3158 6.127 18.6047 5.94863 18.9391 6.16348C19.0491 6.23317 19.1249 6.34557 19.1485 6.47359C19.2025 6.75466 19.0273 6.96984 18.8916 7.1965C18.7231 7.47822 18.5407 7.75538 18.3491 8.02206C17.7876 8.80863 17.1257 9.51848 16.3802 10.1336C17.6206 11.1961 18.8318 11.8341 20.4573 12.1455C20.8587 12.2224 21.1383 12.2321 21.5245 12.2792C21.5063 11.349 21.5745 10.2252 21.5089 9.31825C21.3836 7.65276 20.6491 6.09179 19.4459 4.93351C18.1444 3.67778 16.3947 2.99492 14.5867 3.03712C14.5313 3.03832 14.476 3.03994 14.4207 3.04201C12.4871 3.18061 10.8589 3.90905 9.5763 5.39018C8.63522 6.47961 8.06543 7.84035 7.94951 9.27529C7.87322 10.1511 7.95227 11.0844 7.93068 11.9659C7.92814 12.0693 7.95356 12.1498 8.03059 12.2126C8.55441 12.6396 8.88548 12.1584 9.14188 11.7476C9.32144 11.4599 9.72332 11.2294 10.0541 11.215C10.6541 11.166 11.2133 11.1377 11.8105 11.037C14.0149 10.6655 15.792 9.57961 17.1811 7.8317C17.5329 7.3871 17.8506 6.91657 18.1316 6.42409ZM4.0454 34.7189C4.70739 34.7389 5.40659 34.7288 6.07157 34.7288L9.40069 34.7282L12.4929 34.728C13.0529 34.728 13.6553 34.7157 14.2095 34.7335C14.1848 34.4387 14.2093 34.0681 14.202 33.7661C14.1823 32.9552 14.2357 32.0543 14.1957 31.25C13.061 30.1202 11.8519 28.9593 10.6969 27.8451L9.60609 26.7888C9.41693 26.6052 9.22466 26.415 9.0306 26.2363C8.99224 26.201 8.97585 26.2008 8.92693 26.198L7.06745 26.8241C5.91042 27.2162 4.96899 27.4319 4.36759 28.6438C4.22007 28.941 4.12338 29.2608 4.08154 29.5899C4.02834 29.9897 4.05031 30.6969 4.0505 31.1226L4.05111 33.4334C4.05117 33.8382 4.06318 34.3192 4.0454 34.7189ZM18.5112 24.3375C19.6254 24.2929 20.5868 23.8239 21.3386 23.0076C22.0475 22.232 22.422 21.2082 22.3805 20.1582C22.3719 19.967 22.1431 18.4783 22.0587 18.3439C21.9787 18.4797 21.9111 18.7035 21.8547 18.8554C21.7686 19.0919 21.6701 19.3238 21.5594 19.5499C20.9792 20.7126 20.1564 21.7144 19.0859 22.4569C18.7747 22.6728 18.5207 22.7985 18.2116 22.9902C18.2004 23.1714 18.1765 24.2077 18.2375 24.2979C18.3215 24.3409 18.4165 24.3415 18.5112 24.3375ZM15.256 27.8418C15.241 28.4442 15.2854 29.233 15.2476 29.8018C15.5071 29.5666 15.7859 29.2862 16.0359 29.0372L18.3556 26.7854C18.6523 26.4954 19.0876 26.0945 19.3595 25.7945C19.0539 25.688 18.7476 25.5833 18.4407 25.4805C18.2777 25.4254 17.9635 25.3131 17.8001 25.2827L16.0443 27.0286C15.8848 27.1878 15.3504 27.7035 15.256 27.8418ZM20.4741 26.1898L16.7283 29.8341L15.8106 30.7225C15.6789 30.8499 15.3392 31.1594 15.2524 31.2991L15.2522 33.5253C15.2524 33.8565 15.27 34.3987 15.2468 34.717C15.8061 34.7385 16.3949 34.7284 16.9574 34.7284L19.693 34.7282L24.1676 34.7277C23.0388 33.1651 22.5826 31.2158 22.9011 29.3148C23.0384 28.477 23.2383 27.9876 23.5732 27.2302C22.9325 26.9808 22.2075 26.7698 21.5551 26.5357C21.3898 26.4765 20.6067 26.2083 20.4741 26.1898ZM10.0967 25.7878C10.4943 26.2045 10.947 26.6297 11.3624 27.0324L13.458 29.0716L14.2075 29.793C14.1891 29.1347 14.2185 28.4643 14.1971 27.8044L12.325 25.9396C12.1132 25.728 11.9078 25.5074 11.6843 25.3087C11.6671 25.2935 11.5929 25.2982 11.5693 25.3019C11.1569 25.4389 10.4904 25.6895 10.0967 25.7878ZM17.1484 24.4313C17.1581 24.0891 17.1592 23.7465 17.1516 23.4043C16.7618 23.4966 16.3778 23.5814 15.9782 23.6216C15.2092 23.6989 12.9943 23.6978 12.326 23.3905C12.3111 23.7086 12.3091 24.1207 12.316 24.4427C13.0809 25.2209 13.9516 26.1048 14.7407 26.8525C15.1654 26.4068 15.6431 25.9357 16.0839 25.5033C16.3665 25.2121 16.9172 24.7106 17.1484 24.4313ZM11.2657 22.9932C10.9462 22.8107 10.6689 22.6603 10.3663 22.4494C9.3596 21.7372 8.54027 20.792 7.97829 19.6944C7.89253 19.5256 7.51932 18.608 7.48678 18.5701C7.41606 18.7343 7.36042 19.023 7.30834 19.2019C7.03684 20.1343 7.03176 21.0438 7.39445 21.9621C7.79243 22.9674 8.57739 23.7708 9.57316 24.192C9.93901 24.351 10.5069 24.5374 10.8998 24.4167L11.2594 24.2981C11.2809 23.9242 11.2775 23.3705 11.2657 22.9932Z" fill="black"/>
<path d="M27.8447 29.0636L30.8217 29.0621C31.309 29.0623 31.8783 29.0488 32.358 29.0772C32.9799 29.1142 33.0727 30.0725 32.259 30.1248C31.3469 30.1457 30.3427 30.1261 29.4233 30.127L28.3879 30.1281C28.1044 30.1285 27.6344 30.1746 27.4153 29.9819C27.315 29.8935 27.2549 29.7682 27.2483 29.6346C27.2263 29.2422 27.4986 29.0856 27.8447 29.0636Z" fill="black"/>
<path d="M27.7525 31.8081C28.2556 31.7864 28.7881 31.8133 29.2938 31.8018C29.5314 31.7963 30.0398 31.7773 30.2307 31.8989C30.3383 31.9663 30.4138 32.0748 30.4394 32.1993C30.5115 32.5383 30.3142 32.7919 29.981 32.8472C29.4273 32.8825 28.8415 32.8442 28.2847 32.8603C28.0839 32.8609 27.9173 32.8631 27.715 32.8418C27.2785 32.7959 27.1288 32.3451 27.3539 31.9998C27.4367 31.8726 27.6068 31.8309 27.7525 31.8081Z" fill="black"/>
<path d="M17.1326 31.4357C17.5231 31.4283 18.2324 31.35 18.2793 31.8971C18.2921 32.0441 18.2442 32.1898 18.1469 32.3006C18.0023 32.4653 17.8706 32.4749 17.6734 32.4863C17.3591 32.4898 16.9132 32.5432 16.6726 32.3424C16.5734 32.2604 16.5135 32.1403 16.5075 32.0116C16.5001 31.865 16.5518 31.7215 16.6511 31.6134C16.8007 31.4514 16.9337 31.4471 17.1326 31.4357Z" fill="black"/>
</svg>
