<svg width="35" height="46" viewBox="0 0 35 46" fill="none" xmlns="http://www.w3.org/2000/svg">
<path d="M6.97754 7.01166C7.4928 6.99748 8.04795 7.00728 8.56556 7.00736L11.4875 7.00778L13.1182 7.0057C13.4403 7.00523 13.7767 6.9854 14.0962 7.02256C14.3311 7.04987 14.5349 7.11675 14.7279 7.25288C15.0148 7.45529 15.1933 7.73791 15.2493 8.08054C15.2992 8.38561 15.3034 10.3877 15.2443 10.6782C15.2074 10.858 15.1307 11.0277 15.0196 11.1752C14.7987 11.4686 14.4604 11.6491 14.0964 11.7035C14.0761 12.1806 14.0895 12.7456 14.0894 13.2282L14.0901 15.7504C14.0984 17.5313 14.9673 18.9941 16.6023 19.8238C16.9077 19.9788 17.2634 20.0789 17.5862 20.2001C18.2843 20.4623 18.9186 20.8659 19.4479 21.3846C20.2768 22.1998 20.8061 23.2632 20.9522 24.4071C20.9916 24.717 20.9929 25.0545 20.9937 25.3676L20.9941 38.166V41.7615C20.9947 42.3768 21.0218 43.1421 20.9548 43.7398C20.8676 44.3026 20.5712 44.8057 20.1765 45.2021C19.233 46.1496 18.0818 45.9898 16.8461 45.9898L14.0231 45.989L3.00598 45.9894C2.09505 45.9853 1.47661 45.8241 0.790444 45.1782C0.43726 44.8458 0.0957648 44.221 0.0436494 43.7428C-0.0215868 43.1443 0.00548058 42.3985 0.0060127 41.783L0.00536723 38.1652L0.00530656 25.3124C0.00726104 24.8671 0.013515 24.5306 0.0988443 24.0855C0.411781 22.4496 1.50415 21.0608 3.03577 20.3514C3.33905 20.2106 3.67105 20.113 3.98615 19.9964C4.58721 19.7719 5.13228 19.4232 5.58452 18.9738C6.16554 18.4119 6.57689 17.7028 6.7729 16.925C6.9637 16.1839 6.91409 15.1448 6.91388 14.3536L6.91287 11.7043C6.03728 11.6053 5.64956 10.8719 5.71995 10.0702C5.77406 9.45408 5.63386 8.60635 5.76283 8.01448C5.80588 7.81437 5.89606 7.62697 6.02611 7.46732C6.27993 7.15575 6.58794 7.05092 6.97754 7.01166ZM0.775208 30.087C1.46267 30.1116 2.20072 30.0987 2.89329 30.0987H6.19838C6.75698 28.6818 7.58747 27.3669 9.06272 26.6995C9.9116 26.3154 10.8982 26.2969 11.7703 26.6351C12.0602 26.7497 12.3364 26.8953 12.5937 27.0695C13.6386 27.8169 14.3613 28.8847 14.7862 30.0756C15.1756 30.1284 16.1884 30.0989 16.635 30.0985L20.2248 30.0983C20.207 29.6881 20.2222 29.2113 20.223 28.7954L20.2244 26.3614C20.2244 25.5422 20.2701 24.6739 20.0522 23.8833C19.8287 23.0788 19.3777 22.3532 18.7517 21.7905C18.3559 21.4339 17.898 21.1502 17.4 20.953C17.0324 20.8109 16.6833 20.7103 16.321 20.5416C14.5544 19.7148 13.3979 17.995 13.3161 16.0731C13.256 14.8536 13.3418 13.5765 13.3064 12.3519C13.3005 12.1506 13.3021 11.9146 13.3122 11.7136L9.46069 11.7094L8.36578 11.7115C8.17571 11.7121 7.88525 11.7217 7.70278 11.7006C7.68289 12.0496 7.69452 12.506 7.69489 12.8613L7.6965 14.8767C7.69667 15.4059 7.71048 15.9537 7.64712 16.4783C7.49292 17.7206 6.88837 18.8665 5.94437 19.706C5.46286 20.1313 4.90733 20.4678 4.30441 20.6993C3.96432 20.8285 3.65754 20.9163 3.32544 21.072C1.84291 21.767 0.871152 23.2196 0.790039 24.8296C0.766347 25.2998 0.778688 25.8382 0.778769 26.3168L0.779862 28.9372C0.779943 29.2815 0.7936 29.7514 0.775208 30.087ZM0.778061 36.3731L0.780004 41.3605L0.778648 42.6629C0.778425 42.9694 0.764161 43.3933 0.82399 43.6831C0.901885 44.0557 1.09258 44.3965 1.371 44.6606C1.6614 44.9457 2.03791 45.1309 2.4442 45.1882C2.83759 45.2439 3.77964 45.2174 4.23233 45.2166L7.45924 45.216L14.5664 45.2162C15.7474 45.2164 16.9303 45.2172 18.1108 45.2164C18.7206 45.2158 19.2186 45.0696 19.6569 44.6282C20.2159 44.0653 20.2244 43.5021 20.2246 42.7687L20.2232 41.8099V38.2516C20.2232 37.6514 20.207 36.9685 20.2268 36.3785C18.9459 36.368 17.6649 36.3654 16.3838 36.3709C15.8999 36.3711 15.2723 36.3908 14.8013 36.3733C14.2053 37.8088 13.3736 39.163 11.845 39.8022C10.9979 40.1632 10.0375 40.168 9.1866 39.8157C7.86377 39.2832 6.8944 38.0341 6.35819 36.7626C6.30533 36.6387 6.25776 36.5128 6.21559 36.3849C5.97626 36.362 5.68744 36.3699 5.44198 36.3699L4.23214 36.3703C3.22561 36.3711 2.14787 36.3507 1.14783 36.3741C1.01068 36.3791 0.914672 36.3819 0.778061 36.3731ZM10.7496 39.2905C11.7421 39.1612 12.5626 38.614 13.1633 37.805C15.2232 35.0308 15.0811 30.075 12.304 27.792C11.7818 27.3627 10.9765 27.122 10.2988 27.1817C9.33313 27.2681 8.59457 27.729 7.98403 28.4662C6.68746 30.0315 6.30547 32.1981 6.48649 34.1605C6.69086 36.3763 8.07749 39.4521 10.7496 39.2905ZM20.2218 30.8755L16.7351 30.8711C16.1938 30.8713 15.5776 30.8855 15.0413 30.8689C15.4275 32.5892 15.4523 33.8633 15.0387 35.5971L19.9741 35.5963L20.2216 35.5969C20.1989 35.1348 20.22 34.5373 20.2204 34.0619L20.2218 30.8755ZM0.779215 30.8741L0.78144 33.9182C0.781521 34.441 0.79884 35.071 0.777899 35.5868C2.00732 35.6232 3.27344 35.5814 4.50583 35.5973C4.95999 35.6033 5.52216 35.5792 5.96673 35.6037C5.94411 35.5279 5.92054 35.4617 5.91301 35.3825C5.54547 34.076 5.60857 32.1755 5.96161 30.8721L2.40515 30.8711C1.88094 30.8711 1.29584 30.8857 0.779215 30.8741ZM13.8359 10.9362C14.5809 10.9142 14.4991 10.4495 14.5017 9.87293C14.5033 9.5135 14.4913 9.15214 14.4963 8.79264C14.503 8.41955 14.5691 7.82968 14.0364 7.79403C13.7328 7.77371 13.4146 7.78303 13.1084 7.7832L11.4433 7.78456L8.75075 7.78385C8.26146 7.78373 7.73248 7.77409 7.24578 7.7882C7.15053 7.78964 7.03619 7.78712 6.94079 7.79657C6.48159 7.84209 6.49652 8.33785 6.49857 8.67496C6.50201 9.24521 6.49984 9.81833 6.50231 10.3868C6.50361 10.6804 6.68845 10.9176 6.99267 10.9244C7.2599 10.9412 7.52673 10.937 7.7992 10.9369L9.20252 10.9363L13.8359 10.9362Z" fill="#45080D"/>
<path d="M10.9284 17.4262C11.2722 17.4034 11.5669 17.6617 11.4464 18.0235C11.3702 18.2527 11.0952 18.324 10.8881 18.4082C9.95785 18.7805 9.27866 19.5958 9.08207 20.5763C8.99314 21.0313 9.12152 21.4789 8.63294 21.6736C8.41846 21.6867 8.13629 21.5851 8.11631 21.3401C7.97435 19.5992 9.24384 17.8727 10.9284 17.4262Z" fill="#45080D"/>
<path d="M21.8242 33.0058C22.1117 32.9929 22.4871 33.0055 22.7845 33.0055L24.6764 33.0058L30.6017 33.0134H33.0187C33.3512 33.013 33.7463 32.9995 34.0807 33.0304C34.3115 33.0517 34.3639 33.2653 34.3392 33.4779C34.2425 34.3126 34.1343 35.1505 34.0308 35.9852L33.4335 40.8029L33.1131 43.3865C33.0652 43.7746 33.0032 44.4647 32.9113 44.8175C32.8515 44.9933 32.789 45.1328 32.6808 45.2861C32.4359 45.6304 32.0666 45.8641 31.6526 45.9368C31.3596 45.986 30.6807 45.9642 30.3537 45.9623L28.3852 45.961L25.6002 45.9584C25.1538 45.957 24.6665 45.9711 24.2241 45.9361C23.9669 45.9158 23.6937 45.7942 23.4891 45.6411C23.1217 45.3661 22.9105 44.9913 22.8526 44.5346C22.7498 43.7239 22.6534 42.9105 22.5551 42.0993L22.0038 37.5774L21.6594 34.7363C21.6084 34.3173 21.5478 33.8965 21.5006 33.4772C21.4865 33.3525 21.5032 33.2133 21.5819 33.1125C21.6463 33.0299 21.7265 33.0177 21.8242 33.0058ZM23.3495 43.1811C23.7647 43.2337 24.2772 43.2299 24.7013 43.2352L26.8911 43.2469C27.9767 43.2522 29.0625 43.2515 30.1481 43.245C30.8546 43.2436 31.7607 43.255 32.463 43.2089C32.5267 42.8765 32.5577 42.5217 32.6031 42.1848C32.7961 40.3994 33.0521 38.5494 33.2737 36.7621L33.5305 34.6875C33.5644 34.4136 33.6073 33.9388 33.6566 33.6817L25.5755 33.6736L23.2892 33.6738C22.9897 33.674 22.4778 33.6918 22.201 33.6728C22.187 33.7528 22.2219 33.958 22.2334 34.0459C22.6322 37.0844 22.9417 40.1447 23.3495 43.1811ZM32.0908 44.9665C32.3657 44.6167 32.3211 44.3323 32.3925 43.9032L25.9409 43.9077C25.3519 43.9085 24.763 43.9058 24.174 43.8994C24.019 43.8981 23.5608 43.906 23.4431 43.8814C23.4816 44.5753 23.5806 45.2507 24.4531 45.2866C24.8037 45.3012 25.1588 45.2907 25.5098 45.2907L27.7241 45.2942L30.1401 45.295C30.4544 45.2959 30.7705 45.2969 31.0846 45.299C31.4846 45.3017 31.8096 45.2938 32.0908 44.9665Z" fill="#45080D"/>
<path d="M24.9647 34.9005C25.0812 34.8915 25.1803 34.9025 25.2924 34.9358C26.0492 35.1604 26.8224 35.3652 27.5694 35.6141C27.8363 35.7121 27.772 35.951 27.7027 36.1477C27.459 36.8388 27.2482 37.5419 26.977 38.2229C26.9529 38.2832 26.8566 38.34 26.7982 38.3692C26.7325 38.3795 26.6733 38.381 26.6085 38.3641C25.9271 38.1875 25.2501 37.9722 24.5742 37.7779C24.1429 37.6373 23.8814 37.6452 24.0596 37.1442C24.3057 36.452 24.5223 35.7232 24.7961 35.0388C24.8195 34.9805 24.9075 34.9287 24.9647 34.9005ZM24.7466 37.1854C25.2193 37.2871 25.9822 37.5438 26.475 37.6842L26.8237 36.6696C26.8751 36.5194 26.9844 36.2249 27.0094 36.0814C26.5181 35.9518 26.0353 35.7963 25.5467 35.6585C25.4623 35.6346 25.378 35.6065 25.2908 35.5927L24.7466 37.1854Z" fill="#45080D"/>
<path d="M28.9808 38.0648C29.0358 38.06 29.0899 38.0585 29.1445 38.0681C29.306 38.0961 31.0554 39.208 31.2868 39.3732C31.3584 39.4243 31.4488 39.4928 31.4972 39.5668C31.5333 39.622 31.5274 39.7189 31.5128 39.7804C31.4752 39.9377 30.311 41.8151 30.1518 42.0229C30.1015 42.0885 30.0492 42.1247 29.9787 42.1664C29.7891 42.2019 29.6583 42.089 29.5013 41.99C28.8871 41.6022 28.2818 41.2329 27.6702 40.8376C27.3022 40.6538 27.4617 40.3225 27.6723 40.0443C27.921 39.7161 28.6939 38.2101 28.9808 38.0648ZM28.2393 40.4135C28.6053 40.6201 28.9628 40.8644 29.3221 41.0831C29.4132 41.1384 29.7096 41.3337 29.7891 41.3626C30.0607 40.8903 30.4933 40.27 30.7266 39.8191C30.3979 39.608 30.068 39.3988 29.7369 39.1915C29.6066 39.1096 29.3201 38.9214 29.1851 38.8572C28.883 39.3797 28.5389 39.8866 28.2393 40.4135Z" fill="#45080D"/>
</svg>
