<svg width="27" height="46" viewBox="0 0 27 46" fill="none" xmlns="http://www.w3.org/2000/svg">
<path d="M6.20513 0.0181447C6.4857 -0.0086376 6.86839 0.00201839 7.15456 0.00245449L8.61528 0.00152662C9.17371 0.000215158 9.63024 0.0118914 10.0545 0.441549C10.2349 0.62617 10.3624 0.856023 10.4232 1.10694C10.5011 1.42459 10.4739 2.03232 10.4742 2.38455L10.4744 4.27289C11.0916 4.83027 10.8694 5.38284 10.9065 6.12647C10.9285 6.57252 10.7877 6.76698 10.5074 7.09448C10.5128 7.517 10.6028 8.24007 10.6434 8.68033L10.9181 11.6617L11.2571 15.344C11.3722 16.5976 11.4209 17.8627 11.8732 19.0534C12.1584 19.8041 12.4987 20.5388 12.8278 21.2715L14.3477 24.6802C14.6245 25.3024 15.0134 26.1032 15.1903 26.7402C15.3295 27.2542 15.4002 27.7844 15.4008 28.3168L15.4002 39.1896L15.4008 42.5213C15.4015 42.9498 15.4273 43.9127 15.3827 44.292C15.3429 44.6138 15.1979 44.9135 14.9706 45.1445C14.3908 45.7267 13.792 45.5898 13.043 45.605C12.8845 45.6084 12.7247 45.6052 12.566 45.6052L9.2379 45.6043L4.12561 45.6039C3.2406 45.6041 2.352 45.6149 1.46834 45.5967C0.745166 45.5817 0.0859357 45.0134 0.0211146 44.2839C-0.00902905 43.9445 0.00169874 43.5933 0.00250676 43.2503L0.00326982 41.6789L0.00333694 36.3783L0.00365203 30.6733L0.00243964 29.0467C0.00219274 28.416 -0.0143933 27.8127 0.108201 27.1885C0.288502 26.2707 0.758857 25.3477 1.13975 24.4829L2.59419 21.1831C2.90056 20.4891 3.22826 19.7826 3.49535 19.0736C3.95794 17.8453 4.01136 16.5911 4.1301 15.297L4.40819 12.272L4.71703 8.93773C4.77225 8.33503 4.84744 7.67194 4.87909 7.07421C4.66541 6.84244 4.48742 6.64091 4.49505 6.28381C4.5056 5.80225 4.4129 5.08269 4.61917 4.64454C4.65306 4.57238 4.87639 4.33213 4.93767 4.26244C4.95585 3.60893 4.93834 2.94698 4.94462 2.2932C4.94777 1.9631 4.9242 1.50249 4.98166 1.1867C5.01667 0.984522 5.09501 0.792288 5.21127 0.623127C5.46804 0.249925 5.77442 0.0960916 6.20513 0.0181447ZM10.1929 24.7157C11.0443 25.8617 11.8734 27.0383 12.7061 28.1983C12.7658 28.2813 12.8134 28.4209 12.8138 28.5246C12.6823 28.8694 11.6357 29.5198 11.3107 29.7871C11.0032 30.0401 10.6109 30.3478 10.2684 30.553C10.2044 30.5878 10.083 30.6147 10.025 30.5768C9.72406 30.3792 9.42644 29.9268 9.20244 29.654C8.69922 29.0413 8.23035 28.403 7.71479 27.8073L6.27943 29.5878C5.28691 30.8196 5.50665 30.8941 4.20596 29.8572C3.75167 29.4949 3.23656 29.1484 2.78138 28.7803C2.35245 28.4604 2.84916 27.9837 3.08416 27.66L3.80891 26.6632C4.2302 26.0839 4.79604 25.2461 5.23551 24.7087C5.0371 24.454 3.13893 22.0515 3.04151 22.0118L1.78617 24.8288C1.45869 25.5657 0.970066 26.5521 0.82148 27.3056C0.765592 27.5936 0.733495 27.8854 0.72519 28.1785C0.695787 29.1071 0.721375 30.1494 0.7216 31.0887L0.721824 36.6084L0.722049 41.5117C0.7216 42.3579 0.716213 43.2043 0.724742 44.0503C0.729905 44.573 1.07354 44.8659 1.58192 44.8731C2.22923 44.8825 2.87654 44.8778 3.52386 44.8774L7.24389 44.8767L11.6314 44.8762C12.3443 44.8765 13.0605 44.8807 13.7734 44.8769C13.9224 44.874 14.0827 44.8576 14.2196 44.799C14.3457 44.7449 14.5881 44.5519 14.6155 44.4134C14.7235 43.8673 14.6828 43.198 14.6828 42.6439V40.128L14.6819 30.6369L14.6828 28.943C14.6824 27.2509 14.5515 26.9066 13.8739 25.3814L13.206 23.8798C12.9582 23.323 12.6249 22.5049 12.3562 21.9867L10.9029 23.8006C10.7422 24.0013 10.315 24.5094 10.1929 24.7157ZM8.17805 0.720655C7.8912 0.712673 7.48674 0.734479 7.22997 0.714588L7.23469 1.78139C7.23738 2.21509 7.29798 3.07097 6.57907 2.65401C6.43003 2.19422 6.57615 0.896341 6.47425 0.725602L6.41073 0.713187C5.48084 0.797073 5.67162 1.51147 5.65366 2.21013C5.6375 2.84106 5.67229 3.48492 5.65231 4.11517C7.00418 4.11832 8.3924 4.09953 9.73887 4.12067C9.72585 3.5027 9.75324 2.88016 9.74246 2.26326C9.73528 1.84637 9.82663 1.22077 9.50747 0.905274C9.28706 0.739181 9.16922 0.754306 8.901 0.6957C8.89247 1.05209 8.89045 1.40861 8.89562 1.76506C8.89629 1.95196 8.91492 2.32561 8.87205 2.49258C8.76858 2.89491 8.19353 2.86283 8.17917 2.3824C8.16256 1.82777 8.16975 1.2736 8.17805 0.720655ZM7.82387 22.9071C8.81998 22.8379 9.57211 21.9753 9.505 20.979C9.43766 19.9827 8.57645 19.229 7.57989 19.2944C6.58086 19.36 5.82469 20.224 5.89225 21.2229C5.95959 22.2219 6.82507 22.9764 7.82387 22.9071ZM4.7094 17.095C4.94575 17.4657 5.26491 17.8819 5.52258 18.2452C5.68127 18.4689 5.97866 18.902 6.14812 19.0922C6.95345 18.5361 7.80232 18.3951 8.72099 18.7785C8.8725 18.8417 9.17057 19.0622 9.29918 19.0779C9.69466 18.4482 10.3456 17.7006 10.7004 17.1033C10.6481 16.2267 10.5404 15.2795 10.4589 14.3982L10.0235 9.67666C9.95435 8.92994 9.84369 8.02103 9.80733 7.29231C8.80584 7.25276 7.75496 7.29944 6.74965 7.28297C6.47066 7.27839 5.83457 7.31233 5.60765 7.2856C5.46871 8.47464 5.37714 9.78143 5.26738 10.9819L4.7094 17.095ZM4.52266 18.1554C4.24816 19.2978 3.77838 20.1531 3.32612 21.225L5.06336 23.3962C5.34976 23.7535 5.65972 24.116 5.91672 24.4926C6.08932 24.7451 5.74973 25.141 5.61079 25.3329C5.47635 25.519 5.34055 25.706 5.20566 25.8918L3.98779 27.5765C3.8226 27.8053 3.55954 28.1493 3.4242 28.385C3.9438 28.7652 4.70244 29.3784 5.21823 29.7108L6.6886 27.867C6.91642 27.5812 7.52602 26.5622 7.93744 26.9975C8.65658 27.7586 9.41365 28.9764 10.1844 29.6909C10.203 29.7081 10.5613 29.4404 10.6169 29.3928C11.0117 29.0539 11.5585 28.734 11.9369 28.392C11.7735 28.157 11.6047 27.9296 11.4416 27.6968L10.0641 25.7857C9.96175 25.6438 9.85604 25.5008 9.75504 25.3579C9.53283 25.0429 9.23925 24.7772 9.52879 24.3869C9.80509 24.0138 10.1045 23.6502 10.3967 23.2848L12.0267 21.2397C11.6314 20.3565 11.2023 19.4851 10.9704 18.5435C10.939 18.4165 10.9015 18.2651 10.8571 18.1428C10.5819 18.5104 10.0031 19.2743 9.77748 19.649C10.1849 20.337 10.3635 20.9613 10.1548 21.7632C9.97926 22.4241 9.5463 22.9872 8.95285 23.327C8.37804 23.6637 7.69122 23.7533 7.04907 23.575C6.38851 23.3932 5.82716 22.9567 5.48824 22.361C5.15897 21.7695 5.07974 21.0709 5.26783 20.4205C5.3511 20.1324 5.48016 19.8997 5.6265 19.6399C5.49318 19.4536 4.63219 18.2161 4.52266 18.1554ZM9.97679 6.54217C10.0493 6.50898 10.1442 6.45356 10.1548 6.37518C10.1909 6.10427 10.2349 5.12803 10.1231 4.9238C10.0311 4.87601 9.88162 4.83849 9.77726 4.83893C8.33741 4.84515 6.87467 4.803 5.43729 4.84578C5.35739 4.87081 5.30352 4.89083 5.26088 4.96972C5.18052 5.11788 5.18456 6.207 5.24741 6.37761C5.26671 6.43019 5.29634 6.47825 5.34953 6.50054C5.5677 6.59178 9.47515 6.57182 9.97679 6.54217Z" fill="#45080D"/>
<path d="M2.92102 32.8803C3.63634 32.8585 4.44122 32.8754 5.16394 32.8751L9.39752 32.8749L11.3246 32.8751C11.7399 32.8751 12.196 32.8516 12.6065 32.9191C12.6496 32.9162 12.7521 33.017 12.7618 33.0632C12.8484 33.4845 12.8114 34.2663 12.8114 34.6795V37.3125L12.8112 39.9516C12.8112 40.3846 12.837 41.1443 12.7784 41.5959C12.7643 41.7043 12.6181 41.7845 12.5122 41.8233C11.9729 41.8511 11.313 41.8345 10.7671 41.8343L7.76038 41.8336L4.69439 41.8345C4.15571 41.8347 3.61614 41.8401 3.07768 41.8305C2.92416 41.8278 2.65594 41.7999 2.62789 41.6076C2.57694 41.2574 2.59624 40.879 2.59691 40.523L2.60028 38.7304L2.59848 35.1697C2.59781 34.541 2.59355 33.9121 2.60028 33.2839C2.60275 33.0424 2.69006 32.9292 2.92102 32.8803ZM3.31246 41.0983L12.0817 41.1037C12.1187 39.5602 12.0943 37.9482 12.0952 36.3997L12.0963 34.6119C12.0963 34.3159 12.1075 33.8989 12.0851 33.6111L5.75761 33.6057L4.19634 33.6091C4.00601 33.6095 3.49269 33.6237 3.32952 33.5902C3.28844 34.1098 3.3165 34.9369 3.31717 35.479L3.31829 39.1696C3.31829 39.7334 3.34298 40.5486 3.31246 41.0983Z" fill="#45080D"/>
<path d="M8.5205 8.4751C8.56876 8.48544 8.61859 8.49537 8.66527 8.51153C8.73799 8.53673 8.82374 8.59938 8.85157 8.67418C8.92272 8.86526 8.91643 12.2164 8.88837 12.6368C8.88321 12.7124 8.86818 12.7747 8.83137 12.8407C8.76964 12.9511 8.67492 12.9776 8.55956 13.0098C8.49447 13.0069 8.4314 12.9951 8.37057 12.9708C8.30458 12.9445 8.24308 12.9018 8.21817 12.8325C8.13826 12.6111 8.15465 9.37287 8.18001 8.94198C8.18562 8.84652 8.18877 8.72285 8.23568 8.63832C8.29493 8.53134 8.41254 8.50733 8.5205 8.4751Z" fill="#45080D"/>
<path d="M8.46615 14.1777C8.60015 14.182 8.83784 14.235 8.85827 14.4021C8.9164 14.8769 8.9274 15.4412 8.84749 15.9135C8.83156 16.0089 8.66794 16.0752 8.59073 16.1098C8.0792 16.0953 8.15843 15.6239 8.171 15.2305C8.18402 14.8218 8.05092 14.3615 8.46615 14.1777Z" fill="#45080D"/>
<path d="M16.998 13.8673C17.0363 13.8662 17.0746 13.8654 17.1128 13.8648C18.6738 13.8469 20.28 13.8634 21.8455 13.863L23.7007 13.8628C24.0337 13.8629 24.3729 13.8517 24.7053 13.8674C24.8035 13.8721 25.022 13.88 25.0907 13.9417C25.2758 14.108 25.4017 15.2777 25.4474 15.5921C25.9549 19.082 26.232 23.8342 24.8642 27.1858C24.6001 27.8328 24.2609 28.4704 23.8012 29.0351C23.5542 29.3386 23.2576 29.5938 22.9843 29.877C22.4331 30.4481 22.1657 31.1786 22.022 31.8964C21.8919 32.5468 21.9043 33.1981 21.9045 33.8551L21.905 35.8216L21.9085 42.25C22.643 43.0287 23.9824 43.9282 25.1027 44.2116C25.4522 44.3145 25.8972 44.2842 26.1957 44.4849C26.5245 44.7058 26.5345 45.1464 26.2576 45.3933C25.9501 45.6679 25.2588 45.5994 24.8403 45.5978C22.8415 45.5777 20.8143 45.5909 18.8133 45.5916C18.2995 45.5904 17.7856 45.592 17.2718 45.5969C16.8234 45.6007 16.1037 45.6624 15.7086 45.4638C15.313 45.2648 15.3138 44.6915 15.6812 44.4659C15.9757 44.285 16.4582 44.3167 16.7945 44.2069C18.0336 43.8562 19.1211 43.1029 19.945 42.2549C19.95 42.2488 19.9549 42.2428 19.9599 42.2368C19.9966 41.8951 19.9707 41.0761 19.9706 40.704L19.9703 37.6704L19.9707 34.4097C19.9708 33.7493 20.0061 33.0744 19.9333 32.417C19.8663 31.8118 19.7264 31.2037 19.4319 30.6469C19.1011 30.0218 18.7045 29.7625 18.2381 29.251C17.3489 28.2755 16.8612 27.0444 16.5507 25.8524C15.7208 22.6665 15.9536 18.6923 16.4368 15.4669C16.4809 15.1728 16.5894 14.1729 16.7478 13.9778C16.8107 13.9004 16.8945 13.8835 16.998 13.8673ZM17.304 14.4327C16.6702 18.2854 15.8953 25.6309 18.7802 28.874C19.2554 29.4083 19.7929 29.8152 20.597 29.9063C21.2321 29.9782 21.8608 29.8567 22.3692 29.5208C22.6156 29.3569 22.8353 29.1659 23.0225 28.9529C25.7675 25.9865 25.2791 19.33 24.7869 15.7409C24.7406 15.4031 24.6508 14.7542 24.5771 14.4336C22.6188 14.3834 20.6234 14.458 18.6623 14.4263C18.3524 14.4213 18.0259 14.4233 17.716 14.4303C17.5764 14.4344 17.4436 14.4404 17.304 14.4327ZM16.0153 44.9799C16.3239 45.0211 16.8371 45.0078 17.1636 45.0075L19.0415 45.0049L23.5792 45.0057L24.9564 45.0037C25.1273 45.0046 25.6304 45.0363 25.7671 44.9819L25.7726 44.9515C25.3315 44.836 24.8918 44.7992 24.4579 44.6401C23.2324 44.1903 22.11 43.4084 21.2888 42.5207C21.1977 42.4222 21.2275 41.0975 21.2277 40.8919L21.2285 38.1276L21.2284 34.4371C21.2288 32.7498 21.1429 32.0077 21.8083 30.4066C21.1615 30.5437 20.7112 30.5412 20.063 30.4045C20.3737 31.0516 20.5668 31.735 20.6358 32.4316C20.6764 32.8307 20.6599 33.3908 20.66 33.8031L20.6605 36.0416L20.6605 40.0751C20.6605 40.415 20.6908 42.153 20.6229 42.4494C20.554 42.7502 19.2881 43.6514 18.9519 43.8877C19.55 43.8813 20.1483 43.8795 20.7465 43.8823C20.8901 43.8824 21.4563 43.8756 21.5708 43.8928C21.6423 43.9031 21.7089 43.9304 21.7625 43.9721C21.9749 44.1343 21.8148 44.4429 21.5626 44.4657C21.276 44.4914 20.9582 44.4798 20.6694 44.4785L18.888 44.4778C18.6078 44.4782 18.1672 44.4724 17.9002 44.4943C17.686 44.5119 17.2089 44.7183 16.9389 44.7853C16.6792 44.8496 16.2124 44.8932 16.0153 44.9799Z" fill="#45080D"/>
<path d="M18.3246 16.2223L21.7926 16.2213C22.3084 16.2214 22.8257 16.2206 23.3415 16.2223C23.4811 16.2228 23.7703 16.2174 23.8794 16.2921C23.9475 16.3386 23.991 16.4064 24 16.4803C24.01 16.5649 23.98 16.6495 23.9165 16.7153C23.8291 16.8042 23.7188 16.8069 23.5923 16.8156L20.1271 16.816C19.5 16.8168 18.847 16.8268 18.22 16.8069C18.1122 16.8035 18.0488 16.7782 17.9536 16.7369C17.7725 16.3975 17.916 16.2475 18.3246 16.2223Z" fill="#45080D"/>
<path d="M21.8084 28.2046C21.9296 28.2174 22.1275 28.2863 22.1552 28.3989C22.233 28.7169 21.7338 28.9075 21.4459 28.9816C20.9514 29.1093 20.4803 29.0377 20.0339 28.8317C19.8169 28.7393 19.6031 28.5374 19.7669 28.3417C20.0343 28.0222 20.5878 28.5059 21.002 28.4605C21.4082 28.4159 21.497 28.2759 21.8084 28.2046Z" fill="#45080D"/>
<path d="M20.5261 25.7478C20.6396 25.707 20.7703 25.7219 20.867 25.7869C20.9637 25.8518 21.011 25.9564 20.9903 26.0596C20.9697 26.1628 20.8845 26.2483 20.768 26.2825C20.5961 26.333 20.4081 26.2587 20.3428 26.1145C20.2776 25.9703 20.3587 25.8081 20.5261 25.7478Z" fill="#45080D"/>
<path d="M19.7792 18.8476C19.9601 18.8207 20.133 18.9221 20.1677 19.0753C20.2023 19.2285 20.086 19.3771 19.9062 19.4091C19.7846 19.4308 19.6589 19.3938 19.5791 19.3129C19.5018 19.2346 19.4796 19.1272 19.5209 19.0312C19.5622 18.9352 19.6606 18.8652 19.7792 18.8476Z" fill="#45080D"/>
<path d="M23.5028 22.9031C23.6202 22.876 23.7457 22.9048 23.8309 22.9786C23.9161 23.0524 23.9478 23.1595 23.9136 23.2587C23.8795 23.358 23.7849 23.4337 23.6663 23.4569C23.5405 23.4814 23.4093 23.4426 23.3286 23.357C23.2578 23.2819 23.2363 23.1816 23.2714 23.0901C23.3065 22.9987 23.3935 22.9284 23.5028 22.9031Z" fill="#45080D"/>
<path d="M17.955 19.9001C18.1292 19.8446 18.3233 19.9199 18.388 20.0681C18.4527 20.2163 18.3634 20.3809 18.1888 20.4354C18.015 20.4896 17.8223 20.4141 17.7579 20.2667C17.6935 20.1192 17.7817 19.9553 17.955 19.9001Z" fill="#45080D"/>
<path d="M22.809 24.8258C22.9841 24.7752 23.1743 24.8544 23.2345 25.0029C23.2946 25.1515 23.202 25.3134 23.0273 25.3649C22.8519 25.4167 22.6603 25.3376 22.5999 25.1884C22.5395 25.0392 22.6332 24.8767 22.809 24.8258Z" fill="#45080D"/>
<path d="M21.1674 22.1627C21.2812 22.1275 21.4085 22.1472 21.5005 22.2142C21.5925 22.2812 21.6347 22.3851 21.6111 22.4861C21.5874 22.587 21.5014 22.6692 21.3863 22.7012C21.2123 22.7494 21.025 22.6703 20.9652 22.5234C20.9055 22.3764 20.9955 22.216 21.1674 22.1627Z" fill="#45080D"/>
<path d="M18.003 23.4801C18.1846 23.4455 18.3645 23.5431 18.404 23.6975C18.4435 23.8519 18.3275 24.0041 18.1454 24.0366C17.9651 24.0688 17.788 23.9714 17.7489 23.8184C17.7098 23.6655 17.8233 23.5144 18.003 23.4801Z" fill="#45080D"/>
<path d="M22.5067 19.698C22.3557 19.7643 22.1701 19.7244 22.0744 19.605C21.9787 19.4857 22.003 19.3244 22.131 19.2293C22.2589 19.1342 22.4503 19.1353 22.5769 19.2317C22.6427 19.4061 22.5462 19.551 22.5067 19.698Z" fill="#45080D"/>
<path d="M22.577 19.2314C22.6592 19.2941 22.7 19.3871 22.686 19.4802C22.672 19.5733 22.605 19.6546 22.5068 19.6977C22.5464 19.5507 22.6428 19.4058 22.577 19.2314Z" fill="#45080D"/>
</svg>
