<svg width="37" height="46" viewBox="0 0 37 46" fill="none" xmlns="http://www.w3.org/2000/svg">
<g clip-path="url(#clip0_12504_6098)">
<path d="M14.7814 13.9041C14.7563 13.9041 14.7279 13.9006 14.7028 13.8938C14.5388 13.8494 14.4446 13.6812 14.4887 13.5171L16.1779 7.1481C16.1969 7.08727 16.1874 7.02232 16.1556 6.96695C16.1244 6.9109 16.0702 6.87193 16.0106 6.85484L15.1473 6.62037C15.0877 6.60465 15.0213 6.61353 14.9677 6.64498C14.9108 6.67711 14.8729 6.72838 14.8573 6.7899L13.0264 13.6751C12.9824 13.8391 12.8184 13.9362 12.6544 13.8924C12.4938 13.848 12.3962 13.6798 12.4403 13.5158L14.2685 6.63062C14.3254 6.41119 14.467 6.22799 14.6621 6.11314C14.8573 5.99898 15.0877 5.96822 15.3052 6.02769L16.1685 6.26148C16.386 6.32096 16.5689 6.46109 16.6821 6.65934C16.7952 6.85689 16.8237 7.08658 16.7675 7.30602L15.0748 13.6751C15.0402 13.8125 14.9169 13.9027 14.7814 13.9027V13.9041Z" fill="#45080D"/>
<path d="M9.1498 31.6658V38.3985C9.1498 38.4409 9.18436 38.4764 9.22569 38.4764H10.8675C10.9082 38.4764 10.9434 38.4395 10.9434 38.3985V31.6658C10.3478 31.728 9.74609 31.728 9.1498 31.6658ZM10.8675 39.091H9.22569C8.84759 39.091 8.54199 38.7813 8.54199 38.3992V31.3192C8.54199 31.2296 8.57994 31.1449 8.64634 31.0875C8.71275 31.0287 8.80084 31.0027 8.88892 31.015C9.658 31.1271 10.4366 31.1271 11.205 31.015C11.2931 31.002 11.3811 31.028 11.4476 31.0861C11.514 31.1449 11.5519 31.229 11.5519 31.3192V38.3992C11.5519 38.7813 11.2463 39.091 10.8682 39.091H10.8675Z" fill="#45080D"/>
<path d="M10.0477 40.9999C7.17063 40.9999 4.11328 40.2234 4.11328 38.7837C4.11328 37.5232 6.48015 36.7842 8.82195 36.6113C8.98864 36.5983 9.13703 36.7261 9.14652 36.895C9.15939 37.0645 9.03336 37.2115 8.86599 37.2231C6.30668 37.4117 4.72177 38.1801 4.72177 38.783C4.72177 39.4523 6.74848 40.3854 10.0477 40.3854C13.347 40.3854 15.3676 39.4523 15.3676 38.783C15.3676 38.1808 13.7854 37.4117 11.2261 37.2231C11.0594 37.2115 10.9327 37.0638 10.9422 36.895C10.955 36.7261 11.1 36.5983 11.2701 36.6113C13.6119 36.7842 15.9754 37.5225 15.9754 38.7837C15.9754 40.2234 12.9214 40.9999 10.0471 40.9999H10.0477Z" fill="#45080D"/>
<path d="M3.81059 13.9044C4.18869 15.2224 5.21323 19.5358 4.14465 24.6389C3.67168 26.9063 4.35606 28.7985 6.07311 29.9675C8.30107 31.481 11.7901 31.481 14.0153 29.9675C15.7357 28.7985 16.4228 26.9063 15.9471 24.6389C14.8786 19.5358 15.9031 15.2224 16.2812 13.9044H3.81059ZM10.0479 31.7093C8.49419 31.7093 6.94383 31.2984 5.73634 30.4768C3.79839 29.1595 3.01983 27.0417 3.54904 24.5124C4.77482 18.6608 3.12689 13.7472 3.10792 13.6973C3.07607 13.6036 3.09233 13.4997 3.14857 13.419C3.20549 13.3384 3.29697 13.2905 3.39725 13.2905H16.6966C16.7942 13.2905 16.8856 13.3384 16.9425 13.419C16.9995 13.4997 17.015 13.6036 16.9832 13.6973C16.9642 13.7472 15.319 18.6697 16.5421 24.5124C17.0713 27.041 16.2961 29.1595 14.3548 30.4768C13.148 31.2984 11.5969 31.7093 10.0466 31.7093H10.0479Z" fill="#45080D"/>
<path d="M12.4463 21.8511C11.9706 21.8511 11.5451 21.5496 11.1324 21.2591C10.795 21.0219 10.4487 20.7771 10.1648 20.7771C9.88086 20.7771 9.53461 21.0219 9.19716 21.2591C8.7845 21.5496 8.35897 21.8511 7.88329 21.8511C7.40761 21.8511 6.97869 21.5496 6.56603 21.2591C6.23197 21.0219 5.88504 20.7771 5.59841 20.7771C5.31178 20.7771 4.96824 21.0219 4.63418 21.2591C4.57455 21.3008 4.51424 21.3425 4.45462 21.3828C4.31571 21.4785 4.12666 21.443 4.03247 21.3028C3.93828 21.1627 3.97284 20.972 4.11107 20.8763C4.16799 20.8366 4.22762 20.7963 4.28454 20.7553C4.6972 20.4641 5.12273 20.1626 5.59909 20.1626C6.07544 20.1626 6.50369 20.4641 6.91635 20.756C7.25041 20.9925 7.59734 21.2372 7.88397 21.2372C8.17059 21.2372 8.51414 20.9925 8.85158 20.756C9.26153 20.4641 9.68978 20.1626 10.1655 20.1626C10.6411 20.1626 11.0701 20.4641 11.4827 20.756C11.8168 20.9925 12.1637 21.2372 12.4469 21.2372C12.7302 21.2372 13.0805 20.9925 13.4146 20.756C13.8272 20.4641 14.2561 20.1626 14.7318 20.1626C15.1668 20.1626 15.57 20.4196 15.9766 20.7061C16.1155 20.8031 16.1501 20.9945 16.0525 21.134C15.9576 21.2734 15.7686 21.3076 15.6303 21.2099C15.3058 20.9815 14.9907 20.7765 14.7318 20.7765C14.4452 20.7765 14.0983 21.0212 13.7642 21.2584C13.3515 21.5489 12.926 21.8504 12.4469 21.8504L12.4463 21.8511Z" fill="#45080D"/>
<path d="M23 24H14.5H11L15 36L20.5 35.5L23 26L23.5 24.5L23 24Z" fill="#FAF9F6"/>
<circle cx="13.5" cy="20.5" r="1.5" fill="#FAF9F6"/>
</g>
<mask id="path-8-inside-1_12504_6098" fill="white">
<path d="M12.0291 17.0029C11.8271 16.9834 11.6276 17.0628 11.5575 17.2715C11.4673 17.5401 11.7501 17.9103 11.8809 18.1377L12.5085 19.2313C12.0596 19.7323 11.8473 20.2771 11.9874 20.9656C12.0874 21.4455 12.37 21.8639 12.7715 22.1272C13.2822 22.4666 13.7264 22.4702 14.294 22.3401C14.4786 22.6961 14.758 23.1595 14.9638 23.5105C14.5705 23.4798 14.0132 23.5124 13.6014 23.5029C13.1377 23.4923 12.6261 23.5051 12.1632 23.5094C11.8176 23.5234 11.4895 23.6823 11.27 23.956C10.8419 24.4896 11.0108 24.9852 11.1796 25.5708L11.4304 26.4406L12.3361 29.5822L13.3456 33.0876L13.6466 34.1315C13.8488 34.8328 13.9968 35.3505 14.5785 35.8422C15.1369 36.3143 15.7407 36.4394 16.4474 36.4238C16.6395 36.4196 16.8314 36.4415 17.0266 36.4209C17.2548 36.8497 17.4138 37.5563 17.4123 38.045C17.4117 38.228 17.3738 38.4828 17.3487 38.6681C17.0334 38.7288 16.7183 38.7626 16.3901 38.8353C14.9794 39.1477 12.9429 39.7691 12.4453 41.3481C12.3182 41.7511 12.4177 42.3168 12.6377 42.6763C13.2971 43.7549 14.6234 44.2676 15.7656 44.5891C18.3993 45.2676 21.9919 45.1747 24.4131 43.7886C24.9767 43.4523 25.6236 42.8739 25.7741 42.1945C26.1697 40.4077 23.9622 39.3769 22.6137 39.0298C22.0137 38.8552 21.4909 38.7653 20.8779 38.679C20.7188 37.7852 20.8749 37.2459 21.2282 36.424C21.8943 36.4215 22.6099 36.4796 23.2271 36.1877C23.677 35.975 24.0674 35.6132 24.3182 35.1723C24.5026 34.8481 24.595 34.4722 24.6978 34.1139L24.9562 33.215L26.0229 29.5139L26.3563 28.3547C26.4097 28.168 26.4714 27.9155 26.5358 27.7409L26.5427 27.7227C26.622 27.9272 26.6955 28.1937 26.76 28.4081L27.0778 29.4658C27.1404 29.6743 27.1958 29.8863 27.2742 30.0889C27.3839 30.372 27.5708 30.4159 27.8417 30.3608C29.2853 30.0672 30.566 29.1887 31.3193 27.8765C31.9901 26.6973 32.1744 25.2898 31.8308 23.9693C31.444 22.4715 30.4978 21.1927 29.1991 20.4129C27.8755 19.6104 26.2828 19.3368 24.7842 19.7317C24.6233 19.7741 24.4389 19.8285 24.3549 19.9886C24.3162 20.0638 24.3018 20.1496 24.3136 20.2338C24.3414 20.4437 24.5398 21.0339 24.6108 21.2764C24.8283 22.0197 25.0695 22.7641 25.2816 23.5094C25 23.4886 24.5292 23.5029 24.2365 23.503L22.2214 23.503L15.9172 23.5021C15.6522 23.0884 15.4227 22.6321 15.1674 22.2107C15.104 22.106 15.0413 21.9918 14.9891 21.8811C15.0765 21.7955 15.1747 21.6643 15.2393 21.5595C15.4906 21.1442 15.5719 20.643 15.4656 20.1658C15.3631 19.6969 15.0853 19.2885 14.6929 19.0293C14.2132 18.7163 13.7565 18.6911 13.2204 18.8132L12.6056 17.7413C12.4697 17.5038 12.2869 17.0784 12.0291 17.0029ZM25.7085 27.6523C25.5333 28.1714 25.3582 28.8582 25.2024 29.3986L24.2242 32.7892L23.9192 33.8517C23.8451 34.1106 23.7595 34.4537 23.6401 34.6866C23.4871 34.992 23.2426 35.2381 22.943 35.3885C22.7525 35.4834 22.5464 35.5403 22.3355 35.5563C22.0556 35.5785 21.6049 35.5643 21.3154 35.5637L19.4839 35.562L17.2406 35.5629C16.8464 35.5631 16.4467 35.5673 16.0534 35.5582C15.4712 35.5448 14.9116 35.1641 14.6667 34.6198C14.556 34.3732 14.4759 34.0475 14.3986 33.7792L14.0274 32.4876L12.7817 28.1618C12.9379 28.2126 13.1851 28.3019 13.3369 28.3399C14.7748 28.7786 16.2775 28.7418 17.7157 28.321C18.0349 28.8306 18.3731 29.4538 18.6763 29.9824L20.4149 33.0131L21.0466 34.1174C21.1599 34.3161 21.2704 34.5142 21.3931 34.707C21.69 35.1732 22.3387 34.7803 22.0884 34.2865C21.9758 34.0644 21.8466 33.8514 21.7214 33.6353L21.1149 32.5787L19.4036 29.5963C19.1214 29.1042 18.7996 28.5688 18.5327 28.0736C20.0748 27.6148 21.4062 26.9761 23.0909 27.0528C24.1268 27.1156 24.7372 27.2574 25.7085 27.6523ZM21.0252 39.5498C21.4587 39.6396 21.874 39.699 22.3053 39.8197C23.0921 40.0399 23.8175 40.3116 24.4631 40.8353C25.3582 41.5615 25.0376 42.4197 24.1588 42.9607C22.3996 44.044 20.0759 44.2326 18.08 44.1074C16.6124 43.9735 14.9616 43.6866 13.7551 42.7317C13.0048 42.1377 13.0561 41.3605 13.7969 40.7977C14.7005 40.0981 15.8024 39.7983 16.8992 39.6017C16.9961 39.5844 17.0992 39.5726 17.1931 39.545C17.0551 39.9033 16.5593 40.6031 17.1452 40.8172C17.6279 40.9937 17.8714 40.0385 18.0019 39.7167C18.3282 38.6818 18.3032 37.4545 18.0319 36.4131C18.6134 36.4487 19.2318 36.4039 19.8167 36.4211C19.9428 36.4249 20.0915 36.4232 20.2173 36.4123C19.9534 37.1102 19.9315 38.3504 20.057 39.0777C20.1212 39.4468 20.2274 39.8068 20.3734 40.1502C20.4996 40.4475 20.7086 40.9877 21.1174 40.7929C21.6321 40.5476 21.1526 39.9341 21.0252 39.5498ZM25.9445 26.8244C25.5623 26.6897 25.2414 26.5667 24.8494 26.4563C23.1675 25.9829 21.625 26.179 19.9811 26.7063C19.3792 26.8994 18.6908 27.1547 18.0926 27.3254C18.0338 27.2053 17.9789 27.1088 17.9116 26.9931L16.9275 25.2804C16.7749 25.0149 16.5343 24.6233 16.4046 24.3543C17.0945 24.3875 17.9789 24.3638 18.6785 24.3638L22.904 24.3637L24.7734 24.3635C24.9247 24.3636 25.4155 24.3809 25.5331 24.3596C25.624 24.6198 26.09 26.0829 26.09 26.2533C26.09 26.4332 25.9924 26.651 25.9445 26.8244ZM25.7304 21.7277C26.4571 21.7859 26.8911 21.8915 27.5634 22.1817C27.3309 22.5783 27.0358 22.9983 26.7874 23.3908C26.6495 23.6011 26.4497 23.8866 26.3287 24.0993C26.2608 23.9227 26.2016 23.7209 26.1495 23.5371C25.9812 22.9431 25.7723 22.3477 25.6159 21.7515L25.6297 21.7293C25.6777 21.7224 25.6837 21.7241 25.7304 21.7277ZM25.3479 20.8687C25.3116 20.7479 25.2681 20.6138 25.2375 20.4926C25.6405 20.4286 26.1139 20.3683 26.5202 20.4168C27.1958 20.4834 27.7248 20.6073 28.3424 20.903C30.129 21.7584 31.355 23.6676 31.1594 25.7356C31.0476 26.8497 30.5118 27.8724 29.6695 28.5792C29.1621 29.0034 28.57 29.3065 27.9357 29.4669C27.9 29.3526 27.8194 29.1695 27.8568 29.0652C27.8962 29.0265 27.9004 29.0276 27.9484 29.005C29.051 28.3758 29.9421 27.4845 30.302 26.1975C30.5651 25.2365 30.4464 24.2069 29.9722 23.3362C29.3553 22.1902 28.2709 21.4473 27.0677 21.0983C26.6788 20.9855 26.2796 20.9147 25.8766 20.8872C25.6986 20.8754 25.5185 20.8797 25.3479 20.8687ZM28.3881 27.6923C28.0919 27.9539 27.8917 28.0675 27.5605 28.263C27.4941 27.9302 26.8679 26.0386 26.8809 25.9247L26.8971 25.9178C27.3927 26.1546 27.8788 26.4213 28.3695 26.6676C28.5249 26.7456 28.8679 26.9392 29.0164 26.994C28.8408 27.2477 28.625 27.4976 28.3881 27.6923ZM29.4105 26.2542L28.0934 25.5796C27.8668 25.4622 27.6408 25.3431 27.4074 25.2411C27.5497 25.1753 27.816 25.1201 27.9759 25.0818L29.0211 24.8348C29.1638 24.8013 29.4572 24.7406 29.5817 24.6966C29.6446 25.2003 29.629 25.7892 29.4105 26.2542ZM12.4987 27.1362C12.4317 26.9818 12.3742 26.7575 12.3266 26.5909L12.0827 25.7379C12.0412 25.5928 11.9865 25.3817 11.9379 25.2458C11.5692 24.2124 12.1579 24.3624 12.8638 24.3639L14.6315 24.3643C14.8112 24.3645 15.2711 24.3805 15.4248 24.3661C15.4948 24.4103 15.6494 24.7062 15.7027 24.7989L16.1213 25.5295C16.5071 26.2033 16.9077 26.8861 17.2836 27.5639C17.0212 27.6052 16.7672 27.6712 16.5035 27.71C15.6181 27.849 14.7151 27.8105 13.844 27.5964C13.2853 27.4524 13.0214 27.3294 12.4987 27.1362ZM29.3333 23.8875C28.8721 24.004 28.4014 24.1059 27.9446 24.2236L27.0986 24.4243C27.2418 24.2154 27.3771 24.0007 27.5154 23.7883C27.6823 23.5319 27.8475 23.2741 28.0149 23.0181C28.0948 22.8958 28.173 22.7724 28.2562 22.6525C28.268 22.6476 28.2799 22.6428 28.2917 22.6379C28.2933 22.6377 28.2949 22.6374 28.2965 22.6371C28.7921 23.0164 29.0375 23.3369 29.3333 23.8875ZM13.6758 19.5905C14.2069 19.5601 14.6607 19.9805 14.6884 20.5284C14.716 21.0763 14.3071 21.5431 13.7759 21.5698C13.2471 21.5964 12.7971 21.1769 12.7696 20.6316C12.7421 20.0863 13.1472 19.6207 13.6758 19.5905Z"/>
</mask>
<path d="M12.0291 17.0029C11.8271 16.9834 11.6276 17.0628 11.5575 17.2715C11.4673 17.5401 11.7501 17.9103 11.8809 18.1377L12.5085 19.2313C12.0596 19.7323 11.8473 20.2771 11.9874 20.9656C12.0874 21.4455 12.37 21.8639 12.7715 22.1272C13.2822 22.4666 13.7264 22.4702 14.294 22.3401C14.4786 22.6961 14.758 23.1595 14.9638 23.5105C14.5705 23.4798 14.0132 23.5124 13.6014 23.5029C13.1377 23.4923 12.6261 23.5051 12.1632 23.5094C11.8176 23.5234 11.4895 23.6823 11.27 23.956C10.8419 24.4896 11.0108 24.9852 11.1796 25.5708L11.4304 26.4406L12.3361 29.5822L13.3456 33.0876L13.6466 34.1315C13.8488 34.8328 13.9968 35.3505 14.5785 35.8422C15.1369 36.3143 15.7407 36.4394 16.4474 36.4238C16.6395 36.4196 16.8314 36.4415 17.0266 36.4209C17.2548 36.8497 17.4138 37.5563 17.4123 38.045C17.4117 38.228 17.3738 38.4828 17.3487 38.6681C17.0334 38.7288 16.7183 38.7626 16.3901 38.8353C14.9794 39.1477 12.9429 39.7691 12.4453 41.3481C12.3182 41.7511 12.4177 42.3168 12.6377 42.6763C13.2971 43.7549 14.6234 44.2676 15.7656 44.5891C18.3993 45.2676 21.9919 45.1747 24.4131 43.7886C24.9767 43.4523 25.6236 42.8739 25.7741 42.1945C26.1697 40.4077 23.9622 39.3769 22.6137 39.0298C22.0137 38.8552 21.4909 38.7653 20.8779 38.679C20.7188 37.7852 20.8749 37.2459 21.2282 36.424C21.8943 36.4215 22.6099 36.4796 23.2271 36.1877C23.677 35.975 24.0674 35.6132 24.3182 35.1723C24.5026 34.8481 24.595 34.4722 24.6978 34.1139L24.9562 33.215L26.0229 29.5139L26.3563 28.3547C26.4097 28.168 26.4714 27.9155 26.5358 27.7409L26.5427 27.7227C26.622 27.9272 26.6955 28.1937 26.76 28.4081L27.0778 29.4658C27.1404 29.6743 27.1958 29.8863 27.2742 30.0889C27.3839 30.372 27.5708 30.4159 27.8417 30.3608C29.2853 30.0672 30.566 29.1887 31.3193 27.8765C31.9901 26.6973 32.1744 25.2898 31.8308 23.9693C31.444 22.4715 30.4978 21.1927 29.1991 20.4129C27.8755 19.6104 26.2828 19.3368 24.7842 19.7317C24.6233 19.7741 24.4389 19.8285 24.3549 19.9886C24.3162 20.0638 24.3018 20.1496 24.3136 20.2338C24.3414 20.4437 24.5398 21.0339 24.6108 21.2764C24.8283 22.0197 25.0695 22.7641 25.2816 23.5094C25 23.4886 24.5292 23.5029 24.2365 23.503L22.2214 23.503L15.9172 23.5021C15.6522 23.0884 15.4227 22.6321 15.1674 22.2107C15.104 22.106 15.0413 21.9918 14.9891 21.8811C15.0765 21.7955 15.1747 21.6643 15.2393 21.5595C15.4906 21.1442 15.5719 20.643 15.4656 20.1658C15.3631 19.6969 15.0853 19.2885 14.6929 19.0293C14.2132 18.7163 13.7565 18.6911 13.2204 18.8132L12.6056 17.7413C12.4697 17.5038 12.2869 17.0784 12.0291 17.0029ZM25.7085 27.6523C25.5333 28.1714 25.3582 28.8582 25.2024 29.3986L24.2242 32.7892L23.9192 33.8517C23.8451 34.1106 23.7595 34.4537 23.6401 34.6866C23.4871 34.992 23.2426 35.2381 22.943 35.3885C22.7525 35.4834 22.5464 35.5403 22.3355 35.5563C22.0556 35.5785 21.6049 35.5643 21.3154 35.5637L19.4839 35.562L17.2406 35.5629C16.8464 35.5631 16.4467 35.5673 16.0534 35.5582C15.4712 35.5448 14.9116 35.1641 14.6667 34.6198C14.556 34.3732 14.4759 34.0475 14.3986 33.7792L14.0274 32.4876L12.7817 28.1618C12.9379 28.2126 13.1851 28.3019 13.3369 28.3399C14.7748 28.7786 16.2775 28.7418 17.7157 28.321C18.0349 28.8306 18.3731 29.4538 18.6763 29.9824L20.4149 33.0131L21.0466 34.1174C21.1599 34.3161 21.2704 34.5142 21.3931 34.707C21.69 35.1732 22.3387 34.7803 22.0884 34.2865C21.9758 34.0644 21.8466 33.8514 21.7214 33.6353L21.1149 32.5787L19.4036 29.5963C19.1214 29.1042 18.7996 28.5688 18.5327 28.0736C20.0748 27.6148 21.4062 26.9761 23.0909 27.0528C24.1268 27.1156 24.7372 27.2574 25.7085 27.6523ZM21.0252 39.5498C21.4587 39.6396 21.874 39.699 22.3053 39.8197C23.0921 40.0399 23.8175 40.3116 24.4631 40.8353C25.3582 41.5615 25.0376 42.4197 24.1588 42.9607C22.3996 44.044 20.0759 44.2326 18.08 44.1074C16.6124 43.9735 14.9616 43.6866 13.7551 42.7317C13.0048 42.1377 13.0561 41.3605 13.7969 40.7977C14.7005 40.0981 15.8024 39.7983 16.8992 39.6017C16.9961 39.5844 17.0992 39.5726 17.1931 39.545C17.0551 39.9033 16.5593 40.6031 17.1452 40.8172C17.6279 40.9937 17.8714 40.0385 18.0019 39.7167C18.3282 38.6818 18.3032 37.4545 18.0319 36.4131C18.6134 36.4487 19.2318 36.4039 19.8167 36.4211C19.9428 36.4249 20.0915 36.4232 20.2173 36.4123C19.9534 37.1102 19.9315 38.3504 20.057 39.0777C20.1212 39.4468 20.2274 39.8068 20.3734 40.1502C20.4996 40.4475 20.7086 40.9877 21.1174 40.7929C21.6321 40.5476 21.1526 39.9341 21.0252 39.5498ZM25.9445 26.8244C25.5623 26.6897 25.2414 26.5667 24.8494 26.4563C23.1675 25.9829 21.625 26.179 19.9811 26.7063C19.3792 26.8994 18.6908 27.1547 18.0926 27.3254C18.0338 27.2053 17.9789 27.1088 17.9116 26.9931L16.9275 25.2804C16.7749 25.0149 16.5343 24.6233 16.4046 24.3543C17.0945 24.3875 17.9789 24.3638 18.6785 24.3638L22.904 24.3637L24.7734 24.3635C24.9247 24.3636 25.4155 24.3809 25.5331 24.3596C25.624 24.6198 26.09 26.0829 26.09 26.2533C26.09 26.4332 25.9924 26.651 25.9445 26.8244ZM25.7304 21.7277C26.4571 21.7859 26.8911 21.8915 27.5634 22.1817C27.3309 22.5783 27.0358 22.9983 26.7874 23.3908C26.6495 23.6011 26.4497 23.8866 26.3287 24.0993C26.2608 23.9227 26.2016 23.7209 26.1495 23.5371C25.9812 22.9431 25.7723 22.3477 25.6159 21.7515L25.6297 21.7293C25.6777 21.7224 25.6837 21.7241 25.7304 21.7277ZM25.3479 20.8687C25.3116 20.7479 25.2681 20.6138 25.2375 20.4926C25.6405 20.4286 26.1139 20.3683 26.5202 20.4168C27.1958 20.4834 27.7248 20.6073 28.3424 20.903C30.129 21.7584 31.355 23.6676 31.1594 25.7356C31.0476 26.8497 30.5118 27.8724 29.6695 28.5792C29.1621 29.0034 28.57 29.3065 27.9357 29.4669C27.9 29.3526 27.8194 29.1695 27.8568 29.0652C27.8962 29.0265 27.9004 29.0276 27.9484 29.005C29.051 28.3758 29.9421 27.4845 30.302 26.1975C30.5651 25.2365 30.4464 24.2069 29.9722 23.3362C29.3553 22.1902 28.2709 21.4473 27.0677 21.0983C26.6788 20.9855 26.2796 20.9147 25.8766 20.8872C25.6986 20.8754 25.5185 20.8797 25.3479 20.8687ZM28.3881 27.6923C28.0919 27.9539 27.8917 28.0675 27.5605 28.263C27.4941 27.9302 26.8679 26.0386 26.8809 25.9247L26.8971 25.9178C27.3927 26.1546 27.8788 26.4213 28.3695 26.6676C28.5249 26.7456 28.8679 26.9392 29.0164 26.994C28.8408 27.2477 28.625 27.4976 28.3881 27.6923ZM29.4105 26.2542L28.0934 25.5796C27.8668 25.4622 27.6408 25.3431 27.4074 25.2411C27.5497 25.1753 27.816 25.1201 27.9759 25.0818L29.0211 24.8348C29.1638 24.8013 29.4572 24.7406 29.5817 24.6966C29.6446 25.2003 29.629 25.7892 29.4105 26.2542ZM12.4987 27.1362C12.4317 26.9818 12.3742 26.7575 12.3266 26.5909L12.0827 25.7379C12.0412 25.5928 11.9865 25.3817 11.9379 25.2458C11.5692 24.2124 12.1579 24.3624 12.8638 24.3639L14.6315 24.3643C14.8112 24.3645 15.2711 24.3805 15.4248 24.3661C15.4948 24.4103 15.6494 24.7062 15.7027 24.7989L16.1213 25.5295C16.5071 26.2033 16.9077 26.8861 17.2836 27.5639C17.0212 27.6052 16.7672 27.6712 16.5035 27.71C15.6181 27.849 14.7151 27.8105 13.844 27.5964C13.2853 27.4524 13.0214 27.3294 12.4987 27.1362ZM29.3333 23.8875C28.8721 24.004 28.4014 24.1059 27.9446 24.2236L27.0986 24.4243C27.2418 24.2154 27.3771 24.0007 27.5154 23.7883C27.6823 23.5319 27.8475 23.2741 28.0149 23.0181C28.0948 22.8958 28.173 22.7724 28.2562 22.6525C28.268 22.6476 28.2799 22.6428 28.2917 22.6379C28.2933 22.6377 28.2949 22.6374 28.2965 22.6371C28.7921 23.0164 29.0375 23.3369 29.3333 23.8875ZM13.6758 19.5905C14.2069 19.5601 14.6607 19.9805 14.6884 20.5284C14.716 21.0763 14.3071 21.5431 13.7759 21.5698C13.2471 21.5964 12.7971 21.1769 12.7696 20.6316C12.7421 20.0863 13.1472 19.6207 13.6758 19.5905Z" fill="#45080D" stroke="#FAF9F6" stroke-width="0.2" mask="url(#path-8-inside-1_12504_6098)"/>
<defs>
<clipPath id="clip0_12504_6098">
<rect width="19" height="35" fill="white" transform="translate(0 6)"/>
</clipPath>
</defs>
</svg>
