<svg width="40" height="40" viewBox="0 0 40 40" fill="none" xmlns="http://www.w3.org/2000/svg">
<path d="M31.0856 19.2364C31.7171 19.1855 32.288 19.3407 32.7758 19.7571C33.2245 20.1357 33.4994 20.6809 33.537 21.2668C34.3099 21.2639 34.9225 21.4108 35.4572 22.0147C35.8468 22.4544 36.0446 23.0315 36.0065 23.6178C35.9755 24.1445 35.7566 24.6424 35.3894 25.0212C35.1174 25.3015 34.1836 25.906 33.821 26.1532L31.0397 28.057L28.455 29.8256C28.0817 30.0814 27.38 30.5898 27.0066 30.7911C26.6348 30.9916 26.2233 31.1072 25.8015 31.1297C25.5359 31.1464 25.2163 31.1382 24.9459 31.1382L23.6439 31.1416L18.8772 31.1534C18.452 31.1568 18.0095 31.1616 17.5847 31.1557C16.7258 31.1435 16.1049 31.2062 15.4435 31.7974C15.6335 32.3238 15.7084 32.7717 15.5673 33.3274C15.4594 33.7451 15.2361 34.124 14.9229 34.4207C14.7547 34.581 14.5752 34.7018 14.3756 34.8194C13.1814 35.5224 11.9665 36.1945 10.7752 36.9023L24.1472 36.9027L28.1822 36.9023C28.8575 36.9023 29.542 36.898 30.2178 36.9065C30.3803 36.9084 30.5347 36.9313 30.6607 37.0396C30.7738 37.1386 30.8404 37.2805 30.8441 37.4308C30.8482 37.5856 30.7894 37.7213 30.6795 37.8272C30.5045 37.9996 30.2552 37.9976 30.0268 37.9949C29.7636 37.9917 29.4991 37.9931 29.2356 37.9931H26.9376L19.4054 37.9935H10.3866L8.16358 37.9951C7.78529 37.9938 7.34128 38.0228 6.97806 37.9512C6.71427 37.8993 6.57187 37.5146 6.66234 37.2701C6.85211 36.7576 7.43608 36.9288 7.86305 36.9022C8.08929 36.8882 8.38098 36.9337 8.60975 36.8793C8.9208 36.7422 9.32195 36.4913 9.62275 36.3175L11.4772 35.2469C11.8181 35.0503 12.2216 34.804 12.5685 34.6285C12.4818 34.4804 12.0846 33.9937 11.9626 33.8382L10.6809 32.2044L6.32861 26.6577C5.98226 26.8064 5.31379 27.2889 5.00918 27.2856C4.86699 27.2833 4.73207 27.2223 4.63638 27.1171C4.52952 27.0009 4.48995 26.8617 4.50212 26.7038C4.5309 26.3312 4.9006 26.2119 5.17715 26.0504C5.36252 25.9422 5.55898 25.8409 5.74779 25.736L6.95643 25.0622C7.2508 24.8981 7.59226 24.6914 7.90784 24.5862C8.22235 24.4797 8.5562 24.4426 8.88637 24.4779C9.70237 24.5719 10.1569 24.9672 10.6409 25.5785C11.0285 25.2009 11.3422 24.9081 11.7715 24.5702C13.759 23.0058 16.2226 22.1906 18.7381 22.083C19.7989 22.0377 21.5478 22.0896 22.5491 22.4186C23.1709 22.6237 23.7443 22.9542 24.2334 23.3898C24.6737 23.7833 24.9293 24.1531 25.2585 24.6273C25.3162 24.7104 25.5735 24.3745 25.6172 24.3256C25.7246 24.2052 25.8327 24.0829 25.945 23.9639L28.4242 21.3058L29.2184 20.4494C29.8559 19.7595 30.1047 19.3983 31.0856 19.2364ZM24.7242 26.3937C24.4818 25.282 24.0335 24.4673 23.0482 23.8336C22.7543 23.6448 22.4342 23.5006 22.0979 23.4057C21.735 23.3023 21.4216 23.2712 21.0524 23.2309C19.5624 23.0632 18.055 23.1425 16.5909 23.4657C15.7568 23.6509 14.9484 23.9374 14.1838 24.319C13.16 24.8482 12.0995 25.5767 11.3208 26.4327L13.8378 29.6331C13.9528 29.7795 14.7306 30.7897 14.8287 30.8597C14.9045 30.8477 15.2544 30.5909 15.3772 30.5229C15.778 30.3019 16.2177 30.1605 16.6721 30.1059C16.9673 30.0719 17.3401 30.0785 17.6429 30.0767L19.1593 30.074L23.6185 30.0579L24.9897 30.0544C25.2745 30.0531 25.6301 30.0647 25.9082 30.0286C26.0641 30.0098 26.2163 29.9679 26.3601 29.9046C26.6265 29.7884 26.917 29.5755 27.1604 29.4081L28.123 28.7467L31.4059 26.4995L33.2037 25.2705C33.5448 25.0373 34.5275 24.4145 34.7255 24.1429C34.903 23.8956 34.9733 23.587 34.9205 23.2871C34.872 22.9875 34.7031 22.7207 34.4527 22.5487C34.2414 22.4028 33.9726 22.3375 33.7175 22.3522C33.5808 22.3692 33.4316 22.3835 33.3113 22.4531C33.0591 22.5992 32.8077 22.7661 32.5623 22.9238L31.2293 23.7807L26.8959 26.5598C26.4966 26.8157 25.872 27.2461 25.4617 27.4556C25.3586 27.5083 24.3516 27.4823 24.1577 27.4821L21.0821 27.4818L19.7254 27.4841C19.4959 27.4846 19.2813 27.4913 19.045 27.4768C18.5532 27.4465 18.318 26.9737 18.6211 26.578C18.7452 26.4161 18.9186 26.4034 19.1057 26.3946C19.3817 26.3876 19.6657 26.391 19.9425 26.3912L21.4232 26.3923C22.5002 26.3921 23.6525 26.3704 24.7242 26.3937ZM7.27779 26.1134C7.54824 26.4846 7.8575 26.866 8.14255 27.2293L9.54506 29.0157L13.498 34.0531C13.7788 33.9903 14.2133 33.666 14.3787 33.4018C14.5551 33.118 14.6101 32.7753 14.5314 32.4505C14.5041 32.3309 14.4542 32.2175 14.3843 32.1167C14.1482 31.7801 13.8002 31.3617 13.5391 31.0297L11.9784 29.0443L10.4364 27.082C10.1683 26.7373 9.91426 26.3833 9.63538 26.0469C9.25967 25.5935 8.95171 25.5381 8.39813 25.5708C7.95958 25.682 7.67764 25.9176 7.27779 26.1134ZM26.541 25.4788L30.4615 22.9641L31.7248 22.1539C31.9281 22.0236 32.1481 21.888 32.3453 21.7514C32.5976 21.5766 32.4224 21.0243 32.2846 20.8103C32.1296 20.5681 31.8835 20.3986 31.6019 20.3401C31.4451 20.3087 31.2788 20.3183 31.1201 20.3295C30.7529 20.3898 30.5794 20.5668 30.3353 20.8267C30.105 21.0721 29.8767 21.3199 29.6479 21.5667L27.9362 23.4088L26.4565 25.0017C26.2901 25.1812 25.7468 25.7029 25.7117 25.9042L25.7262 25.952L25.7555 25.9667C25.8554 25.9295 26.4068 25.5683 26.541 25.4788Z" fill="black"/>
<path d="M27.8767 5.01017C28.1997 4.95901 28.4386 5.10171 28.5283 5.41823C28.634 5.79231 28.7221 6.17318 28.8157 6.55081L29.3422 8.64609L30.0435 11.4367C30.1853 12.0003 30.3422 12.5521 30.4535 13.1224C30.8077 14.956 30.4211 16.8553 29.3787 18.4048C28.587 19.5746 27.4652 20.4824 26.1561 21.0128C25.9014 21.1174 25.4666 21.2706 25.1994 21.3225C25.2353 21.5999 25.4361 22.2896 25.2699 22.5606C25.0406 22.9341 24.4483 22.8934 24.3146 22.4523C24.2401 22.2062 24.1814 21.7969 24.1408 21.5076C22.8788 21.5842 21.8517 21.4136 20.6894 20.9243C20.2681 20.7491 19.7446 20.4392 19.3789 20.1723C17.8711 19.0729 16.8588 17.4222 16.5626 15.5797C16.4762 15.0176 16.4425 14.3497 16.3997 13.7751L16.1943 11.0611L16.0176 8.70232C15.9843 8.27187 15.9361 7.82552 15.9279 7.3952C15.918 6.87746 16.4501 6.85789 16.8122 6.79988L17.7209 6.65391L20.5696 6.19177L25.274 5.42925C26.1257 5.29072 27.026 5.12705 27.8767 5.01017ZM17.2688 11.0167L17.4777 13.7948C17.5169 14.314 17.5466 14.9538 17.6292 15.4586C17.8558 16.8422 18.5671 18.1002 19.6359 19.0078C20.84 20.0466 22.4111 20.558 23.996 20.427C25.4351 20.3156 26.785 19.6866 27.7959 18.6563C28.9196 17.4893 29.5403 15.9985 29.5127 14.369C29.5077 14.0681 29.4768 13.8102 29.4402 13.5105L29.4166 13.5211C29.1908 13.6242 28.9685 13.7634 28.7462 13.8784C27.0169 14.7728 25.0891 15.0629 23.2265 14.3778C22.2345 14.006 21.3519 13.3912 20.6593 12.5897C20.4746 12.3742 20.3074 12.1442 20.1598 11.9018C19.7451 11.215 19.4265 10.4584 18.4744 10.5058C18.0393 10.5408 17.5883 10.7167 17.2688 11.0167ZM17.0387 7.85363C17.0423 8.05922 17.0555 8.28058 17.0758 8.48555C17.1179 8.91099 17.1276 9.35763 17.1845 9.78054C18.8334 8.95935 20.0544 9.54933 20.9238 11.0755C21.5588 12.2362 22.6282 13.0976 23.8976 13.4707C25.4959 13.9489 27.0565 13.5804 28.4819 12.8037C28.7163 12.6767 28.9449 12.5388 29.1664 12.3903C29.0691 11.8976 27.6293 6.20467 27.6114 6.18434C27.6007 6.17203 27.5846 6.1657 27.5712 6.15637C27.2761 6.19048 26.9258 6.25776 26.6286 6.30633L24.956 6.5782L19.7395 7.42232L17.942 7.71594C17.7402 7.74881 17.224 7.84592 17.0387 7.85363Z" fill="black"/>
<path d="M26.502 31.5484C26.7232 31.5351 26.9709 31.6552 27.0419 31.8716C27.1316 32.1443 27.1735 32.4535 27.225 32.7363L27.514 34.3328C27.732 34.3237 28.0525 34.2629 28.2727 34.2267L29.4697 34.0304C29.7051 33.9919 29.9631 33.9339 30.2051 33.945C30.7624 33.9703 30.8345 34.8031 30.3413 34.9631C30.0333 35.0632 29.5884 35.111 29.2589 35.1641C28.5535 35.274 27.8489 35.39 27.1454 35.5116C26.2196 35.6355 25.2947 35.8211 24.3702 35.9569C24.2525 35.9741 24.12 36 24.001 35.9974C23.7675 35.992 23.5473 35.8085 23.5006 35.5795C23.4693 35.429 23.5033 35.272 23.5942 35.148C23.637 35.0888 23.748 34.983 23.8153 34.9651C24.091 34.8921 24.4184 34.8497 24.6997 34.8042C25.2852 34.7081 25.8713 34.6149 26.458 34.5247L26.1738 32.974C26.1312 32.7406 26.0859 32.5072 26.0489 32.2728C25.9879 31.8866 26.0963 31.6326 26.502 31.5484Z" fill="black"/>
</svg>
