<svg width="24" height="24" viewBox="0 0 24 24" fill="none" xmlns="http://www.w3.org/2000/svg">
<path d="M12.0015 2.00146C6.47847 2.00146 2.00146 6.47847 2.00146 12.0015C2.00146 17.5245 6.47847 22.0015 12.0015 22.0015C17.5245 22.0015 22.0015 17.5245 22.0015 12.0015C22.0015 6.47847 17.5245 2.00146 12.0015 2.00146ZM12.0015 21.0015C7.03896 21.0015 3.00146 16.964 3.00146 12.0015C3.00146 7.03896 7.03896 3.00146 12.0015 3.00146C16.964 3.00146 21.0015 7.03896 21.0015 12.0015C21.0015 16.964 16.964 21.0015 12.0015 21.0015Z" fill="#383838"/>
<path d="M12.0015 6.50146C10.623 6.50146 9.50146 7.62296 9.50146 9.00147H10.5015C10.5015 8.17447 11.1745 7.50146 12.0015 7.50146C12.8285 7.50146 13.5015 8.17447 13.5015 9.00147C13.5015 9.68947 13.2235 9.95997 12.8035 10.3695C12.2235 10.935 11.5015 11.6385 11.5015 13.501H12.5015C12.5015 12.0605 12.9875 11.587 13.5015 11.086C13.97 10.629 14.5015 10.1115 14.5015 9.00147C14.5015 7.62296 13.38 6.50146 12.0015 6.50146Z" fill="#383838"/>
<path d="M12.0015 17.9985C12.5537 17.9985 13.0015 17.5508 13.0015 16.9985C13.0015 16.4463 12.5537 15.9985 12.0015 15.9985C11.4492 15.9985 11.0015 16.4463 11.0015 16.9985C11.0015 17.5508 11.4492 17.9985 12.0015 17.9985Z" fill="#383838"/>
</svg>
