<svg width="26" height="43" viewBox="0 0 26 43" fill="none" xmlns="http://www.w3.org/2000/svg">
<path d="M6.3584 15.4937C6.6136 15.4778 6.86988 15.485 7.12402 15.5122C8.29008 15.6355 9.35529 16.202 10.0801 17.0845C10.7967 17.962 11.1167 19.0776 10.9697 20.1821C10.8538 21.0533 10.4518 21.8654 9.82324 22.5015L9.69434 22.6265C9.47578 22.8302 9.25443 22.9867 9.01172 23.1694L8.99512 23.1821L8.99219 23.2026C8.97421 23.3396 8.97075 23.5898 8.97168 23.8394C8.97262 24.093 8.97841 24.3427 8.97852 24.4937L8.97754 27.0708C8.97786 27.2014 8.99161 27.3877 8.99707 27.5757C9.00263 27.7672 9.00011 27.9673 8.96973 28.1401C8.93906 28.3145 8.8819 28.4515 8.78613 28.5278C8.69384 28.6014 8.55313 28.6281 8.33105 28.5532C7.89074 28.4046 7.32741 28.1049 6.88867 27.9009C6.86536 27.8899 6.82446 27.8702 6.7832 27.855C6.76259 27.8474 6.74078 27.8397 6.71973 27.8354L6.65234 27.8345C6.32301 27.913 6.01063 28.0732 5.70508 28.229C5.39718 28.386 5.09534 28.5383 4.7793 28.6089C4.66126 28.6352 4.54956 28.5912 4.46387 28.5083C4.37761 28.4248 4.32275 28.3058 4.31836 28.1948C4.30095 27.7542 4.31378 27.3111 4.31348 26.8657L4.3125 24.5903C4.31254 24.1453 4.32228 23.6597 4.30469 23.2144L4.30371 23.1929L4.28711 23.1782C4.24057 23.1379 4.1723 23.0882 4.10449 23.0396C4.03542 22.99 3.96608 22.9416 3.91504 22.9028C3.01013 22.2155 2.4323 21.2087 2.30957 20.1099C2.18449 18.9891 2.53445 17.8667 3.28223 16.9956H3.2832C4.07816 16.0575 5.12335 15.6172 6.35938 15.4946L6.3584 15.4937ZM5.24219 23.6626C5.21995 24.0667 5.21916 24.5199 5.23047 24.9253C5.24161 25.3293 5.23172 25.7443 5.22559 26.1606C5.21947 26.5764 5.2164 26.9934 5.24023 27.3979L5.24512 27.4761L5.31445 27.4399C5.47848 27.352 5.7689 27.1897 6.06348 27.064C6.2107 27.0012 6.35733 26.9476 6.48828 26.9175C6.62045 26.8871 6.7298 26.8818 6.80664 26.9067C7.07993 26.9957 7.45781 27.1947 7.74121 27.3208L7.99023 27.4321L8.06055 27.4634V27.3862C8.06119 26.1906 8.09001 24.869 8.05762 23.6772L8.05566 23.6147L7.99512 23.6304C7.22265 23.832 6.64811 23.9043 5.84375 23.7603C5.67757 23.7305 5.45704 23.6856 5.3125 23.6196L5.24609 23.5894L5.24219 23.6626ZM6.51758 16.3618C4.62179 16.4262 3.13677 17.9533 3.20605 19.7749C3.27561 21.5961 4.87232 23.0148 6.76758 22.9468C8.66012 22.8787 10.1411 21.3533 10.0723 19.5347C10.003 17.716 8.41036 16.2977 6.51758 16.3618Z" fill="#45080D" stroke="white" stroke-width="0.1"/>
<mask id="path-2-inside-1_12504_6048" fill="white">
<path fill-rule="evenodd" clip-rule="evenodd" d="M9.24781 0C9.36666 0.0820741 9.55902 0.206612 9.57203 0.358398C9.61839 0.899828 9.5982 1.5646 9.5984 2.10547V3.58203C9.5984 3.86896 9.60306 4.15199 9.58668 4.43848C9.57449 4.65138 9.49527 4.72526 9.36793 4.88477C9.33203 5.17568 9.34763 5.66463 9.34742 5.97461V9.65918C9.3474 9.9725 9.32376 10.4667 9.3816 10.7617C9.49918 11.3616 10.2043 11.8871 10.6462 12.2393C11.3124 12.7698 11.9615 13.3111 12.4158 14.0381C13.04 15.0474 13.1988 16.2088 13.1619 17.3711C13.1358 18.1914 13.1547 19.0343 13.157 19.8555L13.1853 27.3682C13.2164 27.3455 13.248 27.3244 13.2781 27.3037V29.6104C13.248 29.5919 13.2159 29.5749 13.1853 29.5557C13.2149 29.9309 13.1924 30.6662 13.1921 31.0605V34.0488L13.1843 38.1377C13.1749 39.6735 13.3065 41.5452 12.3474 42.8564C12.3178 42.8966 12.1963 42.9707 12.1492 43H1.03785C0.994381 42.971 0.875737 42.8929 0.848397 42.8574C-0.0965167 41.6237 0.0261255 39.7337 0.0124593 38.3037C0.000134752 36.732 -0.00289119 35.1596 0.00269372 33.5879L0.0319906 23.0986C0.0513908 21.0891 0.0492267 19.0789 0.0261312 17.0693C-0.00534444 15.2619 0.622394 13.7756 2.04273 12.6416C2.64854 12.0883 3.57126 11.6136 3.81812 10.7822C3.86916 10.6103 3.85784 10.2408 3.85621 10.084C3.8383 8.35461 3.88529 6.61529 3.84937 4.8877C3.71284 4.7419 3.61797 4.65302 3.61012 4.43945C3.60001 4.16391 3.60415 3.88895 3.60426 3.61328L3.60523 2.02734C3.60553 1.51741 3.5886 0.898534 3.62379 0.387695C3.63552 0.217657 3.81814 0.087883 3.95094 0H9.24781ZM6.00855 10.4961C5.68183 10.4965 5.16909 10.5153 4.86207 10.4971C4.76421 12.4346 2.80445 12.9541 1.79273 14.3281C1.27136 15.0362 1.06995 15.9021 1.03199 16.7705C1.01645 17.1224 1.04581 17.4946 1.04762 17.8525L1.04273 20.2109L1.01539 28.2617L1.01051 36.1172L1.0193 38.7549C1.02704 39.813 0.9728 41.0293 1.48121 41.9893C2.29973 42.0079 3.15761 41.9961 3.97926 41.9961H8.32496L11.7107 41.9971C12.2391 40.7771 12.1713 40.0035 12.1765 38.7178L12.1834 36.3174L12.1785 28.7402L12.158 20.4473L12.1511 17.9561C12.1545 16.8313 12.2373 16.2403 11.8386 15.1221C11.1309 13.1377 8.43973 12.7405 8.3484 10.499L6.00855 10.4961ZM5.98219 4.94824C5.66403 4.94862 5.15197 4.96842 4.85621 4.9502L4.85523 7.92383C4.85538 8.40214 4.87137 9.0048 4.8484 9.47461C5.60901 9.48515 6.36994 9.48788 7.13062 9.48438C7.47286 9.48446 8.03465 9.50227 8.34937 9.47949L8.35035 6.38574C8.35035 6.02673 8.37302 5.28838 8.34742 4.95312C7.55928 4.94718 6.77054 4.9457 5.98219 4.94824ZM5.8357 1.00977C5.49529 1.01015 4.92233 1.03176 4.60621 1.00977L4.60523 2.90625C4.60528 3.21176 4.617 3.62532 4.60035 3.9248C5.93244 3.94625 7.2669 3.91893 8.59644 3.93457L8.60328 1.01562C7.68079 1.0075 6.75819 1.00543 5.8357 1.00977Z"/>
</mask>
<path fill-rule="evenodd" clip-rule="evenodd" d="M9.24781 0C9.36666 0.0820741 9.55902 0.206612 9.57203 0.358398C9.61839 0.899828 9.5982 1.5646 9.5984 2.10547V3.58203C9.5984 3.86896 9.60306 4.15199 9.58668 4.43848C9.57449 4.65138 9.49527 4.72526 9.36793 4.88477C9.33203 5.17568 9.34763 5.66463 9.34742 5.97461V9.65918C9.3474 9.9725 9.32376 10.4667 9.3816 10.7617C9.49918 11.3616 10.2043 11.8871 10.6462 12.2393C11.3124 12.7698 11.9615 13.3111 12.4158 14.0381C13.04 15.0474 13.1988 16.2088 13.1619 17.3711C13.1358 18.1914 13.1547 19.0343 13.157 19.8555L13.1853 27.3682C13.2164 27.3455 13.248 27.3244 13.2781 27.3037V29.6104C13.248 29.5919 13.2159 29.5749 13.1853 29.5557C13.2149 29.9309 13.1924 30.6662 13.1921 31.0605V34.0488L13.1843 38.1377C13.1749 39.6735 13.3065 41.5452 12.3474 42.8564C12.3178 42.8966 12.1963 42.9707 12.1492 43H1.03785C0.994381 42.971 0.875737 42.8929 0.848397 42.8574C-0.0965167 41.6237 0.0261255 39.7337 0.0124593 38.3037C0.000134752 36.732 -0.00289119 35.1596 0.00269372 33.5879L0.0319906 23.0986C0.0513908 21.0891 0.0492267 19.0789 0.0261312 17.0693C-0.00534444 15.2619 0.622394 13.7756 2.04273 12.6416C2.64854 12.0883 3.57126 11.6136 3.81812 10.7822C3.86916 10.6103 3.85784 10.2408 3.85621 10.084C3.8383 8.35461 3.88529 6.61529 3.84937 4.8877C3.71284 4.7419 3.61797 4.65302 3.61012 4.43945C3.60001 4.16391 3.60415 3.88895 3.60426 3.61328L3.60523 2.02734C3.60553 1.51741 3.5886 0.898534 3.62379 0.387695C3.63552 0.217657 3.81814 0.087883 3.95094 0H9.24781ZM6.00855 10.4961C5.68183 10.4965 5.16909 10.5153 4.86207 10.4971C4.76421 12.4346 2.80445 12.9541 1.79273 14.3281C1.27136 15.0362 1.06995 15.9021 1.03199 16.7705C1.01645 17.1224 1.04581 17.4946 1.04762 17.8525L1.04273 20.2109L1.01539 28.2617L1.01051 36.1172L1.0193 38.7549C1.02704 39.813 0.9728 41.0293 1.48121 41.9893C2.29973 42.0079 3.15761 41.9961 3.97926 41.9961H8.32496L11.7107 41.9971C12.2391 40.7771 12.1713 40.0035 12.1765 38.7178L12.1834 36.3174L12.1785 28.7402L12.158 20.4473L12.1511 17.9561C12.1545 16.8313 12.2373 16.2403 11.8386 15.1221C11.1309 13.1377 8.43973 12.7405 8.3484 10.499L6.00855 10.4961ZM5.98219 4.94824C5.66403 4.94862 5.15197 4.96842 4.85621 4.9502L4.85523 7.92383C4.85538 8.40214 4.87137 9.0048 4.8484 9.47461C5.60901 9.48515 6.36994 9.48788 7.13062 9.48438C7.47286 9.48446 8.03465 9.50227 8.34937 9.47949L8.35035 6.38574C8.35035 6.02673 8.37302 5.28838 8.34742 4.95312C7.55928 4.94718 6.77054 4.9457 5.98219 4.94824ZM5.8357 1.00977C5.49529 1.01015 4.92233 1.03176 4.60621 1.00977L4.60523 2.90625C4.60528 3.21176 4.617 3.62532 4.60035 3.9248C5.93244 3.94625 7.2669 3.91893 8.59644 3.93457L8.60328 1.01562C7.68079 1.0075 6.75819 1.00543 5.8357 1.00977Z" fill="#45080D"/>
<path d="M9.24781 0L9.30464 -0.0822851L9.27899 -0.1H9.24781V0ZM9.57203 0.358398L9.67167 0.349867L9.67166 0.349856L9.57203 0.358398ZM9.5984 2.10547H9.6984V2.10543L9.5984 2.10547ZM9.58668 4.43848L9.68651 4.44419V4.44418L9.58668 4.43848ZM9.36793 4.88477L9.28978 4.82237L9.27214 4.84446L9.26868 4.87252L9.36793 4.88477ZM9.34742 5.97461L9.24742 5.97454V5.97461H9.34742ZM9.34742 9.65918L9.44742 9.65919V9.65918H9.34742ZM9.3816 10.7617L9.47973 10.7425V10.7425L9.3816 10.7617ZM10.6462 12.2393L10.5839 12.3175L10.5839 12.3175L10.6462 12.2393ZM12.4158 14.0381L12.5008 13.9855L12.5006 13.9851L12.4158 14.0381ZM13.1619 17.3711L13.0619 17.3679V17.3679L13.1619 17.3711ZM13.157 19.8555L13.057 19.8557L13.057 19.8558L13.157 19.8555ZM13.1853 27.3682L13.0853 27.3685L13.086 27.5641L13.2442 27.449L13.1853 27.3682ZM13.2781 27.3037H13.3781V27.1138L13.2215 27.2213L13.2781 27.3037ZM13.2781 29.6104L13.2257 29.6955L13.3781 29.7892V29.6104H13.2781ZM13.1853 29.5557L13.2385 29.471L13.07 29.365L13.0856 29.5635L13.1853 29.5557ZM13.1921 31.0605L13.0921 31.0605V31.0605H13.1921ZM13.1921 34.0488L13.2921 34.049V34.0488H13.1921ZM13.1843 38.1377L13.2843 38.1383L13.2843 38.1379L13.1843 38.1377ZM12.3474 42.8564L12.4279 42.9157L12.4281 42.9155L12.3474 42.8564ZM12.1492 43V43.1H12.1777L12.202 43.0849L12.1492 43ZM1.03785 43L0.98233 43.0832L1.00754 43.1H1.03785V43ZM0.848397 42.8574L0.769007 42.9182L0.769169 42.9184L0.848397 42.8574ZM0.0124593 38.3037L-0.0875377 38.3045L-0.0875361 38.3047L0.0124593 38.3037ZM0.00269372 33.5879L0.102693 33.5882L0.102693 33.5882L0.00269372 33.5879ZM0.0319906 23.0986L-0.0680071 23.0977L-0.068009 23.0984L0.0319906 23.0986ZM0.0261312 17.0693L0.126126 17.0682L0.126116 17.0676L0.0261312 17.0693ZM2.04273 12.6416L2.10527 12.7199L2.11017 12.7154L2.04273 12.6416ZM3.81812 10.7822L3.91399 10.8107L3.91399 10.8107L3.81812 10.7822ZM3.85621 10.084L3.75621 10.085L3.75621 10.085L3.85621 10.084ZM3.84937 4.8877L3.94935 4.88562L3.94856 4.84731L3.92236 4.81934L3.84937 4.8877ZM3.61012 4.43945L3.51018 4.44312L3.51018 4.44313L3.61012 4.43945ZM3.60426 3.61328L3.50426 3.61322V3.61324L3.60426 3.61328ZM3.60523 2.02734L3.70523 2.02741V2.0274L3.60523 2.02734ZM3.62379 0.387695L3.52402 0.38081L3.52402 0.380823L3.62379 0.387695ZM3.95094 0V-0.1H3.92084L3.89575 -0.083392L3.95094 0ZM6.00855 10.4961L6.00868 10.3961H6.00842L6.00855 10.4961ZM4.86207 10.4971L4.86798 10.3972L4.76728 10.3913L4.7622 10.492L4.86207 10.4971ZM1.79273 14.3281L1.71221 14.2688L1.71221 14.2688L1.79273 14.3281ZM1.03199 16.7705L1.13189 16.7749L1.1319 16.7749L1.03199 16.7705ZM1.04762 17.8525L1.14762 17.8527L1.14761 17.852L1.04762 17.8525ZM1.04273 20.2109L1.14273 20.2113L1.14273 20.2111L1.04273 20.2109ZM1.01539 28.2617L0.915389 28.2614L0.915389 28.2617L1.01539 28.2617ZM1.01051 36.1172L0.910505 36.1171L0.910507 36.1175L1.01051 36.1172ZM1.0193 38.7549L0.919295 38.7552L0.919298 38.7556L1.0193 38.7549ZM1.48121 41.9893L1.39284 42.0361L1.42029 42.0879L1.47893 42.0892L1.48121 41.9893ZM3.97926 41.9961V41.8961V41.8961V41.9961ZM8.32496 41.9961L8.32499 41.8961H8.32496V41.9961ZM11.7107 41.9971L11.7107 42.0971L11.7764 42.0971L11.8025 42.0368L11.7107 41.9971ZM12.1765 38.7178L12.2765 38.7182L12.2765 38.7181L12.1765 38.7178ZM12.1834 36.3174L12.2834 36.3177V36.3173L12.1834 36.3174ZM12.1785 28.7402L12.2785 28.7402V28.74L12.1785 28.7402ZM12.158 20.4473L12.258 20.447V20.447L12.158 20.4473ZM12.1511 17.9561L12.0511 17.9558L12.0511 17.9563L12.1511 17.9561ZM11.8386 15.1221L11.9328 15.0885L11.9328 15.0885L11.8386 15.1221ZM8.3484 10.499L8.44831 10.495L8.44441 10.3991L8.34852 10.399L8.3484 10.499ZM5.98219 4.94824L5.9823 5.04824L5.98251 5.04824L5.98219 4.94824ZM4.85621 4.9502L4.86236 4.85038L4.75624 4.84384L4.75621 4.95016L4.85621 4.9502ZM4.85523 7.92383L4.75523 7.9238V7.92386L4.85523 7.92383ZM4.8484 9.47461L4.74852 9.46973L4.74346 9.57316L4.84701 9.5746L4.8484 9.47461ZM7.13062 9.48438L7.13065 9.38437L7.13016 9.38438L7.13062 9.48438ZM8.34937 9.47949L8.35659 9.57923L8.44934 9.57252L8.44937 9.47952L8.34937 9.47949ZM8.35035 6.38574L8.45035 6.38577V6.38574H8.35035ZM8.34742 4.95312L8.44713 4.94551L8.44013 4.85382L8.34817 4.85313L8.34742 4.95312ZM5.8357 1.00977L5.83581 1.10977L5.83617 1.10976L5.8357 1.00977ZM4.60621 1.00977L4.61315 0.910007L4.50626 0.902569L4.50621 1.00971L4.60621 1.00977ZM4.60523 2.90625L4.50523 2.9062V2.90626L4.60523 2.90625ZM4.60035 3.9248L4.5005 3.91925L4.49473 4.02312L4.59874 4.02479L4.60035 3.9248ZM8.59644 3.93457L8.59527 4.03456L8.69621 4.03575L8.69644 3.9348L8.59644 3.93457ZM8.60328 1.01562L8.70328 1.01586L8.70351 0.916504L8.60416 0.915629L8.60328 1.01562ZM9.24781 0L9.19099 0.0822851C9.25301 0.125122 9.32343 0.171989 9.38132 0.226106C9.44121 0.282103 9.46917 0.329289 9.47239 0.366941L9.57203 0.358398L9.67166 0.349856C9.66188 0.235721 9.58715 0.144745 9.5179 0.0800078C9.44664 0.0133916 9.36145 -0.0430481 9.30464 -0.0822851L9.24781 0ZM9.57203 0.358398L9.47239 0.36693C9.51827 0.902714 9.49819 1.55953 9.4984 2.10551L9.5984 2.10547L9.6984 2.10543C9.6982 1.56966 9.71851 0.896941 9.67167 0.349867L9.57203 0.358398ZM9.5984 2.10547H9.4984V3.58203H9.5984H9.6984V2.10547H9.5984ZM9.5984 3.58203H9.4984C9.4984 3.87121 9.50301 4.14999 9.48684 4.43277L9.58668 4.43848L9.68651 4.44418C9.7031 4.15398 9.6984 3.86672 9.6984 3.58203H9.5984ZM9.58668 4.43848L9.48684 4.43276C9.48153 4.52558 9.46239 4.58189 9.43371 4.63194C9.40152 4.68815 9.35813 4.73676 9.28978 4.82237L9.36793 4.88477L9.44608 4.94716C9.50507 4.87327 9.56496 4.80519 9.60726 4.73135C9.65308 4.65137 9.67964 4.56428 9.68651 4.44419L9.58668 4.43848ZM9.36793 4.88477L9.26868 4.87252C9.23178 5.17152 9.24763 5.67207 9.24742 5.97454L9.34742 5.97461L9.44742 5.97468C9.44764 5.65718 9.43227 5.17985 9.46718 4.89701L9.36793 4.88477ZM9.34742 5.97461H9.24742V9.65918H9.34742H9.44742V5.97461H9.34742ZM9.34742 9.65918L9.24742 9.65917C9.24741 9.80792 9.24152 10.0217 9.24282 10.218C9.24414 10.418 9.25259 10.6235 9.28347 10.781L9.3816 10.7617L9.47973 10.7425C9.45277 10.6049 9.44413 10.4158 9.44281 10.2166C9.44147 10.0137 9.44741 9.82376 9.44742 9.65919L9.34742 9.65918ZM9.3816 10.7617L9.28347 10.781C9.34801 11.1102 9.57069 11.409 9.82098 11.6635C10.0725 11.9193 10.3653 12.1432 10.5839 12.3175L10.6462 12.2393L10.7086 12.1611C10.4852 11.9831 10.2045 11.7682 9.96358 11.5232C9.72143 11.277 9.53277 11.0131 9.47973 10.7425L9.3816 10.7617ZM10.6462 12.2393L10.5839 12.3175C11.2506 12.8485 11.8868 13.3803 12.331 14.0911L12.4158 14.0381L12.5006 13.9851C12.0361 13.2418 11.3741 12.6912 10.7086 12.161L10.6462 12.2393ZM12.4158 14.0381L12.3307 14.0907C12.9405 15.0766 13.0985 16.2157 13.0619 17.3679L13.1619 17.3711L13.2618 17.3743C13.2991 16.2019 13.1394 15.0181 12.5008 13.9855L12.4158 14.0381ZM13.1619 17.3711L13.0619 17.3679C13.0358 18.1905 13.0547 19.0373 13.057 19.8557L13.157 19.8555L13.257 19.8552C13.2547 19.0313 13.2359 18.1923 13.2618 17.3743L13.1619 17.3711ZM13.157 19.8555L13.057 19.8558L13.0853 27.3685L13.1853 27.3682L13.2853 27.3678L13.257 19.8551L13.157 19.8555ZM13.1853 27.3682L13.2442 27.449C13.2738 27.4275 13.3034 27.4077 13.3347 27.3862L13.2781 27.3037L13.2215 27.2213C13.1926 27.2411 13.1591 27.2636 13.1265 27.2873L13.1853 27.3682ZM13.2781 27.3037H13.1781V29.6104H13.2781H13.3781V27.3037H13.2781ZM13.2781 29.6104L13.3305 29.5252C13.3139 29.515 13.2968 29.5052 13.2817 29.4966C13.266 29.4876 13.2519 29.4794 13.2385 29.471L13.1853 29.5557L13.1321 29.6403C13.1493 29.6511 13.1666 29.6611 13.1821 29.67C13.1982 29.6793 13.2123 29.6873 13.2257 29.6955L13.2781 29.6104ZM13.1853 29.5557L13.0856 29.5635C13.1148 29.9335 13.0924 30.6591 13.0921 31.0605L13.1921 31.0605L13.2921 31.0606C13.2924 30.6734 13.315 29.9282 13.285 29.5478L13.1853 29.5557ZM13.1921 31.0605H13.0921V34.0488H13.1921H13.2921V31.0605H13.1921ZM13.1921 34.0488L13.0921 34.0486L13.0843 38.1375L13.1843 38.1377L13.2843 38.1379L13.2921 34.049L13.1921 34.0488ZM13.1843 38.1377L13.0843 38.1371C13.0796 38.9108 13.11 39.7535 13.0226 40.5707C12.9353 41.3861 12.7315 42.1619 12.2667 42.7974L12.3474 42.8564L12.4281 42.9155C12.9224 42.2398 13.1324 41.4242 13.2214 40.592C13.3103 39.7615 13.2796 38.9004 13.2843 38.1383L13.1843 38.1377ZM12.3474 42.8564L12.2669 42.7971C12.2677 42.796 12.2633 42.8014 12.2481 42.8136C12.2346 42.8244 12.2175 42.8367 12.1986 42.8496C12.1608 42.8754 12.1207 42.8999 12.0963 42.9151L12.1492 43L12.202 43.0849C12.2248 43.0707 12.2691 43.0436 12.3112 43.0149C12.3322 43.0006 12.354 42.9851 12.3731 42.9697C12.3904 42.9559 12.4123 42.9369 12.4279 42.9157L12.3474 42.8564ZM12.1492 43V42.9H1.03785V43V43.1H12.1492V43ZM1.03785 43L1.09337 42.9168C1.07109 42.902 1.03216 42.8762 0.995298 42.8498C0.976859 42.8366 0.959988 42.824 0.946631 42.8131C0.931357 42.8006 0.926807 42.7953 0.927624 42.7964L0.848397 42.8574L0.769169 42.9184C0.783657 42.9372 0.804189 42.955 0.82021 42.9681C0.838146 42.9827 0.858779 42.9981 0.878852 43.0124C0.919013 43.0412 0.961146 43.069 0.98233 43.0832L1.03785 43ZM0.848397 42.8574L0.927786 42.7966C0.471356 42.2007 0.268899 41.4408 0.180603 40.6432C0.0921787 39.8444 0.119343 39.0236 0.112455 38.3028L0.0124593 38.3037L-0.0875361 38.3047C-0.0807585 39.0139 -0.108082 39.8531 -0.0181826 40.6652C0.0718457 41.4785 0.280524 42.2804 0.769007 42.9182L0.848397 42.8574ZM0.0124593 38.3037L0.112456 38.3029C0.100135 36.7316 0.0971095 35.1596 0.102693 33.5882L0.00269372 33.5879L-0.0973056 33.5875C-0.102892 35.1597 -0.0998653 36.7323 -0.0875376 38.3045L0.0124593 38.3037ZM0.00269372 33.5879L0.102693 33.5882L0.13199 23.0989L0.0319906 23.0986L-0.068009 23.0984L-0.0973059 33.5876L0.00269372 33.5879ZM0.0319906 23.0986L0.131986 23.0996C0.151393 21.0894 0.149228 19.0784 0.126125 17.0682L0.0261312 17.0693L-0.0738622 17.0705C-0.0507747 19.0794 -0.0486114 21.0889 -0.0680047 23.0977L0.0319906 23.0986ZM0.0261312 17.0693L0.126116 17.0676C0.0951296 15.2883 0.711233 13.8327 2.10513 12.7197L2.04273 12.6416L1.98034 12.5635C0.533555 13.7186 -0.105818 15.2356 -0.0738536 17.0711L0.0261312 17.0693ZM2.04273 12.6416L2.11017 12.7154C2.25811 12.5803 2.42619 12.4493 2.60204 12.3138C2.7768 12.1791 2.95921 12.04 3.13046 11.8918C3.47234 11.5961 3.78233 11.2541 3.91399 10.8107L3.81812 10.7822L3.72226 10.7538C3.60705 11.1418 3.33226 11.4528 2.99961 11.7406C2.83359 11.8842 2.65631 12.0195 2.47995 12.1554C2.3047 12.2904 2.13026 12.4262 1.9753 12.5678L2.04273 12.6416ZM3.81812 10.7822L3.91399 10.8107C3.94374 10.7105 3.95356 10.5628 3.95689 10.43C3.96029 10.2942 3.957 10.1596 3.9562 10.0829L3.85621 10.084L3.75621 10.085C3.75705 10.1653 3.76024 10.2938 3.75695 10.425C3.75359 10.5591 3.74355 10.6821 3.72226 10.7538L3.81812 10.7822ZM3.85621 10.084L3.9562 10.0829C3.93838 8.3619 3.98521 6.61057 3.94935 4.88562L3.84937 4.8877L3.7494 4.88977C3.78537 6.62 3.73822 8.34731 3.75621 10.085L3.85621 10.084ZM3.84937 4.8877L3.92236 4.81934C3.85058 4.74269 3.80162 4.69279 3.7664 4.63617C3.73431 4.58458 3.71337 4.52607 3.71005 4.43578L3.61012 4.43945L3.51018 4.44313C3.51472 4.56641 3.54514 4.65912 3.59658 4.74181C3.64489 4.81947 3.71163 4.8869 3.77638 4.95605L3.84937 4.8877ZM3.61012 4.43945L3.71005 4.43579C3.70003 4.1627 3.70415 3.89096 3.70426 3.61332L3.60426 3.61328L3.50426 3.61324C3.50415 3.88695 3.49999 4.16512 3.51018 4.44312L3.61012 4.43945ZM3.60426 3.61328L3.70426 3.61334L3.70523 2.02741L3.60523 2.02734L3.50523 2.02728L3.50426 3.61322L3.60426 3.61328ZM3.60523 2.02734L3.70523 2.0274C3.70553 1.51295 3.68868 0.900868 3.72355 0.394567L3.62379 0.387695L3.52402 0.380823C3.48852 0.8962 3.50552 1.52186 3.50523 2.02729L3.60523 2.02734ZM3.62379 0.387695L3.72355 0.39458C3.72704 0.343992 3.75686 0.290412 3.8132 0.233218C3.86891 0.176674 3.93992 0.127203 4.00612 0.083392L3.95094 0L3.89575 -0.083392C3.82915 -0.0393198 3.74246 0.0200377 3.67073 0.092861C3.59963 0.165035 3.53227 0.26136 3.52402 0.38081L3.62379 0.387695ZM3.95094 0V0.1H9.24781V0V-0.1H3.95094V0ZM6.00855 10.4961L6.00842 10.3961C5.67461 10.3965 5.17122 10.4152 4.86798 10.3972L4.86207 10.4971L4.85615 10.5969C5.16696 10.6153 5.68906 10.5965 6.00869 10.5961L6.00855 10.4961ZM4.86207 10.4971L4.7622 10.492C4.7153 11.4205 4.22529 12.0114 3.60467 12.5483C3.28866 12.8217 2.95745 13.0662 2.62146 13.3454C2.29158 13.6196 1.97222 13.9157 1.71221 14.2688L1.79273 14.3281L1.87326 14.3874C2.11911 14.0535 2.42411 13.7695 2.74929 13.4992C3.06836 13.2341 3.4229 12.97 3.73552 12.6996C4.37219 12.1488 4.91098 11.5112 4.96194 10.5021L4.86207 10.4971ZM1.79273 14.3281L1.71221 14.2688C1.17486 14.9986 0.97054 15.8865 0.932086 16.7661L1.03199 16.7705L1.1319 16.7749C1.16936 15.9178 1.36786 15.0738 1.87326 14.3874L1.79273 14.3281ZM1.03199 16.7705L0.932088 16.7661C0.916482 17.1195 0.945872 17.5071 0.947617 17.853L1.04762 17.8525L1.14761 17.852C1.14575 17.4821 1.11642 17.1254 1.13189 16.7749L1.03199 16.7705ZM1.04762 17.8525L0.947616 17.8523L0.942733 20.2107L1.04273 20.2109L1.14273 20.2111L1.14762 17.8527L1.04762 17.8525ZM1.04273 20.2109L0.942733 20.2106L0.91539 28.2614L1.01539 28.2617L1.11539 28.2621L1.14273 20.2113L1.04273 20.2109ZM1.01539 28.2617L0.915389 28.2617L0.910506 36.1171L1.01051 36.1172L1.11051 36.1172L1.11539 28.2618L1.01539 28.2617ZM1.01051 36.1172L0.910507 36.1175L0.919296 38.7552L1.0193 38.7549L1.11929 38.7546L1.11051 36.1169L1.01051 36.1172ZM1.0193 38.7549L0.919298 38.7556C0.923143 39.2808 0.911458 39.8562 0.962921 40.418C1.01449 40.981 1.12996 41.5397 1.39284 42.0361L1.48121 41.9893L1.56958 41.9425C1.32405 41.4789 1.21244 40.9495 1.16209 40.3998C1.11163 39.849 1.12319 39.2871 1.11929 38.7542L1.0193 38.7549ZM1.48121 41.9893L1.47893 42.0892C2.29895 42.1079 3.15955 42.0961 3.97926 42.0961L3.97926 41.9961V41.8961C3.15568 41.8961 2.3005 41.9079 1.48349 41.8893L1.48121 41.9893ZM3.97926 41.9961V42.0961H8.32496V41.9961V41.8961H3.97926V41.9961ZM8.32496 41.9961L8.32493 42.0961L11.7107 42.0971L11.7107 41.9971L11.7107 41.8971L8.32499 41.8961L8.32496 41.9961ZM11.7107 41.9971L11.8025 42.0368C12.3406 40.7945 12.2713 39.9988 12.2765 38.7182L12.1765 38.7178L12.0765 38.7174C12.0713 40.0082 12.1377 40.7597 11.6189 41.9573L11.7107 41.9971ZM12.1765 38.7178L12.2765 38.7181L12.2834 36.3177L12.1834 36.3174L12.0834 36.3171L12.0765 38.7175L12.1765 38.7178ZM12.1834 36.3174L12.2834 36.3173L12.2785 28.7402L12.1785 28.7402L12.0785 28.7403L12.0834 36.3174L12.1834 36.3174ZM12.1785 28.7402L12.2785 28.74L12.258 20.447L12.158 20.4473L12.058 20.4475L12.0785 28.7405L12.1785 28.7402ZM12.158 20.4473L12.258 20.447L12.2511 17.9558L12.1511 17.9561L12.0511 17.9563L12.058 20.4475L12.158 20.4473ZM12.1511 17.9561L12.2511 17.9564C12.2545 16.838 12.3386 16.2268 11.9328 15.0885L11.8386 15.1221L11.7444 15.1557C12.1359 16.2538 12.0545 16.8246 12.0511 17.9558L12.1511 17.9561ZM11.8386 15.1221L11.9328 15.0885C11.5673 14.0636 10.6881 13.4488 9.92539 12.8293C9.15377 12.2026 8.49203 11.5679 8.44831 10.495L8.3484 10.499L8.24848 10.5031C8.29609 11.6716 9.02559 12.3562 9.7993 12.9846C10.5819 13.6202 11.4022 14.1962 11.7444 15.1557L11.8386 15.1221ZM8.3484 10.499L8.34852 10.399L6.00868 10.3961L6.00855 10.4961L6.00843 10.5961L8.34827 10.599L8.3484 10.499ZM5.98219 4.94824L5.98207 4.84824C5.65619 4.84862 5.15426 4.86838 4.86236 4.85038L4.85621 4.9502L4.85006 5.05001C5.14968 5.06847 5.67187 5.04861 5.9823 5.04824L5.98219 4.94824ZM4.85621 4.9502L4.75621 4.95016L4.75523 7.9238L4.85523 7.92383L4.95523 7.92386L4.95621 4.95023L4.85621 4.9502ZM4.85523 7.92383L4.75523 7.92386C4.75538 8.40654 4.77133 9.00315 4.74852 9.46973L4.8484 9.47461L4.94828 9.47949C4.97141 9.00646 4.95538 8.39773 4.95523 7.9238L4.85523 7.92383ZM4.8484 9.47461L4.84701 9.5746C5.60831 9.58515 6.36986 9.58788 7.13108 9.58437L7.13062 9.48438L7.13016 9.38438C6.37003 9.38788 5.60972 9.38515 4.84978 9.37462L4.8484 9.47461ZM7.13062 9.48438L7.1306 9.58438C7.46603 9.58446 8.03713 9.60235 8.35659 9.57923L8.34937 9.47949L8.34215 9.37975C8.03216 9.40219 7.47968 9.38446 7.13065 9.38437L7.13062 9.48438ZM8.34937 9.47949L8.44937 9.47952L8.45035 6.38577L8.35035 6.38574L8.25035 6.38571L8.24937 9.47946L8.34937 9.47949ZM8.35035 6.38574H8.45035C8.45035 6.03439 8.47311 5.28569 8.44713 4.94551L8.34742 4.95312L8.24771 4.96074C8.27294 5.29107 8.25035 6.01908 8.25035 6.38574H8.35035ZM8.34742 4.95312L8.34817 4.85313C7.55966 4.84718 6.77056 4.8457 5.98186 4.84824L5.98219 4.94824L5.98251 5.04824C6.77052 5.0457 7.5589 5.04718 8.34667 5.05312L8.34742 4.95312ZM5.8357 1.00977L5.83559 0.909766C5.48735 0.910159 4.9248 0.931692 4.61315 0.910007L4.60621 1.00977L4.59927 1.10952C4.91987 1.13183 5.50323 1.11014 5.83581 1.10977L5.8357 1.00977ZM4.60621 1.00977L4.50621 1.00971L4.50523 2.9062L4.60523 2.90625L4.70523 2.9063L4.70621 1.00982L4.60621 1.00977ZM4.60523 2.90625L4.50523 2.90626C4.50528 3.21677 4.51695 3.62343 4.5005 3.91925L4.60035 3.9248L4.7002 3.93036C4.71705 3.62722 4.70527 3.20674 4.70523 2.90624L4.60523 2.90625ZM4.60035 3.9248L4.59874 4.02479C5.26588 4.03553 5.93341 4.03406 6.59968 4.03186C7.26624 4.02967 7.93141 4.02675 8.59527 4.03456L8.59644 3.93457L8.59762 3.83458C7.93193 3.82675 7.2651 3.82967 6.59902 3.83187C5.93265 3.83406 5.26691 3.83552 4.60196 3.82482L4.60035 3.9248ZM8.59644 3.93457L8.69644 3.9348L8.70328 1.01586L8.60328 1.01562L8.50328 1.01539L8.49644 3.93434L8.59644 3.93457ZM8.60328 1.01562L8.60416 0.915629C7.68123 0.907497 6.75818 0.905429 5.83523 0.909767L5.8357 1.00977L5.83617 1.10976C6.7582 1.10543 7.68035 1.1075 8.6024 1.11562L8.60328 1.01562Z" fill="white" mask="url(#path-2-inside-1_12504_6048)"/>
<path d="M16.1831 19.0645L18.8286 19.0654H22.062C22.6081 19.0653 23.1547 19.0565 23.6968 19.0723C23.8078 19.0755 23.9012 19.1095 23.9722 19.168C24.0429 19.2264 24.0947 19.3113 24.1187 19.4219C24.4325 20.8735 24.7808 22.3721 25.0034 23.8496L25.0903 24.4814C25.1543 24.9743 25.1959 25.4701 25.2153 25.9668L25.228 26.4639C25.2293 27.0405 25.1769 27.7772 25.0269 28.3271C24.7784 29.2376 24.2181 30.2258 23.5757 30.8887C22.9633 31.5205 22.2645 31.9274 21.4458 32.2012C21.3135 32.2454 21.1465 32.2934 20.979 32.3447C20.8132 32.3956 20.6471 32.4498 20.522 32.5068L20.4966 32.5186L20.4927 32.5469C20.4469 32.9138 20.4292 33.4169 20.4224 33.9248L20.4175 35.3311C20.3932 37.0371 20.4168 38.7436 20.4878 40.4482L20.4888 40.4824L20.521 40.4932C21.134 40.7035 21.8344 40.739 22.4712 40.8086C22.6939 40.8329 22.9201 40.8439 23.1353 40.8613C23.3521 40.8789 23.5605 40.9038 23.7554 40.9541C24.1419 41.0539 24.4758 41.2564 24.7085 41.7217C24.7648 41.8343 24.8272 42.0077 24.8638 42.1836C24.9008 42.3615 24.9093 42.5326 24.8696 42.6455C24.8196 42.7878 24.7176 42.8667 24.5884 42.9502H14.1431C14.0783 42.9071 14.0125 42.8641 13.9585 42.8115C13.9021 42.7565 13.8615 42.6945 13.8511 42.6182C13.8044 42.2769 13.965 41.8551 14.1499 41.5693C14.3778 41.2173 14.6863 41.0442 15.0337 40.9502C15.3842 40.8554 15.7687 40.8421 16.1519 40.8057C16.8237 40.7416 17.5275 40.6823 18.1929 40.5039L18.2251 40.4951L18.229 40.4619C18.2576 40.2473 18.2812 39.6692 18.2983 38.9209C18.3155 38.171 18.3263 37.2462 18.3286 36.3359C18.3309 35.4256 18.3247 34.5286 18.3081 33.835C18.2998 33.4884 18.2887 33.192 18.2749 32.9697C18.268 32.8587 18.2609 32.7652 18.2524 32.6934C18.2442 32.6237 18.2349 32.5678 18.2222 32.5361L18.2163 32.5234L18.2046 32.5146L18.1333 32.4746C18.1053 32.4616 18.0738 32.4487 18.0405 32.4365C17.9722 32.4115 17.8911 32.3858 17.8101 32.3623C17.729 32.3389 17.6464 32.3173 17.5737 32.2979C17.5005 32.2783 17.4376 32.2616 17.395 32.249C17.1858 32.1869 16.9788 32.1153 16.7749 32.0361H16.7739C15.0664 31.359 13.75 29.7298 13.438 27.8535C13.0683 25.6296 13.7103 22.7931 14.188 20.5859C14.2049 20.508 14.2267 20.3944 14.2515 20.2666C14.2763 20.1384 14.3043 19.9944 14.3354 19.8535C14.3666 19.7125 14.4005 19.5752 14.436 19.46C14.4721 19.343 14.5092 19.2548 14.5435 19.207C14.5996 19.1287 14.7177 19.0853 14.8218 19.0742C15.2614 19.0272 15.7302 19.0636 16.1831 19.0645ZM20.6753 25.5156C19.2957 24.8537 18.2701 24.4669 16.7046 24.5723L16.7036 24.5732C15.9345 24.6401 15.0589 24.7493 14.3091 24.9658L14.2798 24.9746L14.2739 25.0049C14.193 25.4374 14.1576 26.028 14.1733 26.6123C14.189 27.1965 14.2552 27.7794 14.3784 28.1943C14.8669 29.8391 16.1777 31.0908 17.8013 31.4541C17.9674 31.4913 18.1913 31.5542 18.4048 31.6416C18.6185 31.7291 18.8159 31.8397 18.936 31.9717C18.9877 32.0497 19.0285 32.1812 19.0591 32.3477C19.0898 32.5147 19.1091 32.711 19.1216 32.9102C19.134 33.1095 19.1392 33.3104 19.1421 33.4873L19.1479 33.9219C19.1665 34.8947 19.173 35.868 19.1665 36.8408C19.1656 37.6424 19.1544 38.4438 19.1343 39.2451C19.1307 39.3956 19.1251 39.7103 19.1118 40.0205C19.0984 40.3331 19.0779 40.6338 19.0464 40.7607C18.9947 40.9679 18.8432 41.124 18.6255 41.2432C18.4075 41.3624 18.1277 41.4426 17.8286 41.499C17.5297 41.5554 17.2146 41.5876 16.9292 41.6143C16.6455 41.6407 16.3877 41.6613 16.2075 41.6943C15.9558 41.7406 15.7599 41.7323 15.5522 41.751C15.3469 41.7695 15.1459 41.8151 14.9116 41.9707L14.7866 42.0527L14.936 42.0625C15.6473 42.1055 16.6753 42.0746 17.4097 42.0742L21.98 42.0732L23.1509 42.0752C23.226 42.0753 23.3514 42.0787 23.4702 42.0781C23.5891 42.0775 23.7116 42.0734 23.7856 42.0596L23.8179 42.0537L23.8257 42.0215L23.8315 41.9922L23.8374 41.9658L23.8198 41.9463C23.7903 41.915 23.748 41.8905 23.6997 41.8701C23.6507 41.8495 23.5914 41.8319 23.5249 41.8164C23.3918 41.7854 23.2232 41.7618 23.0327 41.7412C22.842 41.7206 22.6272 41.7026 22.4019 41.6836C22.1763 41.6646 21.9397 41.6447 21.7036 41.6191C21.2304 41.5679 20.7623 41.4957 20.395 41.3701C20.0248 41.2435 19.7734 41.0681 19.7036 40.8242C19.6853 40.7601 19.6701 40.652 19.6577 40.5176C19.6454 40.3842 19.6364 40.2282 19.6294 40.0703C19.6153 39.7544 19.6096 39.4333 19.605 39.2725C19.5649 37.5737 19.5549 35.874 19.5737 34.1748C19.5759 33.9431 19.5666 33.4546 19.5962 32.9795C19.611 32.7422 19.6356 32.5101 19.6753 32.3164C19.7156 32.12 19.7697 31.9725 19.8384 31.8965C19.9041 31.8238 20.0073 31.7597 20.1362 31.7012C20.2646 31.6429 20.4145 31.5919 20.5698 31.5449C20.7262 31.4977 20.8833 31.4556 21.0317 31.4121C21.178 31.3692 21.3135 31.3247 21.4194 31.2764C23.1993 30.6072 24.3767 28.7771 24.3823 26.834C24.383 26.6014 24.3835 26.3631 24.3784 26.1279L24.3774 26.0723L24.3218 26.0801C23.2426 26.2286 21.6664 25.9911 20.6753 25.5156ZM15.2173 19.9805C15.1942 20.0248 15.1716 20.0929 15.1499 20.1689C15.1279 20.2461 15.1058 20.3356 15.0854 20.4258C15.0448 20.6059 15.0086 20.7933 14.9878 20.8916C14.9181 21.2118 14.8506 21.5325 14.7847 21.8535L14.5933 22.8174C14.5295 23.1585 14.4667 23.6402 14.3911 23.9531L14.3716 24.0332L14.4507 24.0137C16.2031 23.5909 18.198 23.4987 19.8921 24.1982C20.0706 24.2719 20.2493 24.3562 20.4292 24.4414C20.6086 24.5263 20.7897 24.6121 20.9702 24.6895C21.6744 24.9938 22.4227 25.1759 23.1841 25.2275H23.1851C23.6149 25.2458 23.8678 25.206 24.2642 25.1934L24.3169 25.1914L24.312 25.1387C24.1566 23.475 23.737 21.6318 23.3833 20.001L23.3745 19.9609H23.3345L17.4536 19.9639L16.0015 19.9658C15.9616 19.9659 15.9027 19.9668 15.8364 19.9678C15.77 19.9688 15.6946 19.9706 15.6206 19.9707C15.5466 19.9708 15.4735 19.9693 15.4116 19.9668C15.349 19.9643 15.3007 19.96 15.2729 19.9541L15.2349 19.9463L15.2173 19.9805Z" fill="#45080D" stroke="white" stroke-width="0.1"/>
</svg>
