<svg width="124" height="44" viewBox="0 0 124 44" fill="none" xmlns="http://www.w3.org/2000/svg">
<g clip-path="url(#clip0_12336_86911)">
<path d="M43.4686 7.27734C43.8652 8.74206 44.1564 10.3675 44.5267 11.4072H43.8389C41.5131 7.99709 41.4327 7.91741 37.9434 7.91741H35.7758C35.1406 7.91741 35.0352 8.13121 35.0088 9.08998L34.9034 15.164H38.2083C40.4813 15.164 40.6935 14.8174 41.0901 13.0061H41.6712V18.4945H41.0901C40.7989 16.5756 40.3496 16.0696 38.4468 16.0696H34.9047V21.238C34.9311 23.2631 35.2223 23.6363 37.4163 23.6363V24.1688H30.0938V23.6363C32.2614 23.6363 32.5526 23.2631 32.579 21.238C32.6053 18.3603 32.6844 12.9795 32.6844 10.2081C32.6844 8.183 32.3668 7.80985 30.464 7.80985V7.27734H43.4712H43.4686Z" fill="#45080D"/>
<path d="M50.7337 21.236C50.7337 23.2611 51.0513 23.6343 52.7433 23.6343V24.1668H46.3984V23.6343C48.1431 23.6343 48.4607 23.2611 48.4607 21.236V10.2062C48.4607 8.18105 48.1431 7.8079 46.3984 7.8079V7.27539H53.1135V7.8079C51.0513 7.8079 50.7337 8.18105 50.7337 10.2062V21.236Z" fill="#45080D"/>
<path d="M55.7902 23.6349C57.4821 23.449 58.0632 23.1821 58.0632 20.1982V10.2612C58.0632 8.28924 57.1646 7.97053 55.3672 7.80985V7.27734H59.5444C61.6066 9.78184 70.2508 19.1066 71.5198 20.4917C71.5989 17.3485 71.6516 12.7657 71.6516 10.2347C71.6516 8.66239 71.1759 8.05021 69.1927 7.80985V7.27734H74.876V7.80985C72.9719 8.05021 72.4435 8.68894 72.4435 10.2347C72.4435 11.22 72.2327 19.5329 72.0996 24.1688H71.6239C70.2495 21.9843 63.0324 15.0578 58.9343 9.83629H58.8552V20.1995C58.8552 23.1834 59.2255 23.4238 61.1559 23.6363V24.1688H55.7889V23.6363L55.7902 23.6349Z" fill="#45080D"/>
<path d="M76.4857 23.6343C78.6533 23.6343 78.9446 23.2611 78.9709 21.236C79.0236 17.7728 79.0763 14.0426 79.0763 10.2062C79.0763 8.18105 78.7588 7.8079 76.7492 7.8079V7.27539H89.4916L90.0463 10.3124H89.6234C88.4071 8.79456 87.6665 7.91413 85.1826 7.91413H82.9096C81.5879 7.91413 81.3494 8.04692 81.3494 8.98047V14.7889H84.0718C86.3449 14.7889 86.557 14.4423 86.9537 12.4716H87.5348V18.28H86.9537C86.6624 16.2018 86.2131 15.6959 84.3103 15.6959H81.3494V22.4099C81.3494 23.3156 81.746 23.5294 83.0413 23.5294H86.5307C89.0422 23.5294 89.5443 23.05 91.2362 20.1989H91.7383C91.4734 20.8921 91.0504 23.1562 90.8396 24.1681H76.4844V23.6356L76.4857 23.6343Z" fill="#45080D"/>
<path d="M39.8605 30.3703H39.4375C38.6442 27.9455 37.2962 26.5605 35.4988 26.5605C34.2035 26.5605 32.3534 27.4927 32.3534 29.4381C32.3534 33.8867 41.0504 33.0621 41.0504 38.3367C41.0504 40.4946 39.1199 43.3456 35.0759 43.3456C33.9123 43.3456 31.2426 43.0256 30.6878 42.5197C30.1594 42.0403 30.0804 39.1095 30 38.2304H30.3966C30.7933 39.322 32.0622 42.8131 35.288 42.8131C37.0854 42.8131 39.0949 41.7468 39.0949 39.403C39.0949 34.6078 30.3979 36.046 30.3979 30.4513C30.3979 28.2934 31.9845 26.0293 35.9231 26.0293C37.2448 26.0293 38.6192 26.1887 39.8618 26.8287V30.3717L39.8605 30.3703Z" fill="#45080D"/>
<path d="M43.1692 42.5972C45.0997 42.5972 45.4159 42.224 45.4159 40.1989V29.169C45.4159 27.1439 45.0984 26.7708 43.0625 26.7708V26.2383H50.306C53.0284 26.2383 56.4927 27.2502 56.4927 30.7679C56.4927 34.7371 52.7649 35.9628 48.6141 35.9628V35.3241C52.5 35.3241 54.2183 33.7518 54.2183 30.902C54.2183 27.7322 51.5486 26.8797 49.7763 26.8797C48.0039 26.8797 47.6877 27.2528 47.6877 29.2779V40.2016C47.6877 42.2267 48.0053 42.5998 50.0411 42.5998V43.1323H43.1679V42.5998L43.1692 42.5972Z" fill="#45080D"/>
<path d="M62.7572 40.2009C62.7572 42.226 63.0747 42.5991 64.7667 42.5991V43.1316H58.4219V42.5991C60.1665 42.5991 60.4841 42.226 60.4841 40.2009V29.171C60.4841 27.1459 60.1665 26.7727 58.4219 26.7727V26.2402H65.137V26.7727C63.0747 26.7727 62.7572 27.1459 62.7572 29.171V40.2009Z" fill="#45080D"/>
<path d="M67.7214 42.5972C69.6255 42.5972 69.9417 42.224 69.9417 40.1989C69.9417 36.2563 70.0472 32.8992 70.0208 29.169C70.0208 27.1439 69.7032 26.7708 68.0903 26.7708V26.2383H73.2189C77.4751 26.2383 80.357 27.5436 80.357 30.6072C80.357 33.6708 77.2103 34.4436 76.4447 34.6295L80.8063 41.1298C81.4942 42.1683 82.1544 42.5945 83.0794 42.5945V43.127H80.1448C79.9063 43.127 79.6428 43.0474 79.0604 42.1417L74.5129 35.0279H72.2135V40.1963C72.2135 42.2214 72.5311 42.5945 74.5129 42.5945V43.127H67.7188V42.5945L67.7214 42.5972ZM72.2161 34.3918C76.2339 34.3918 77.9258 33.5924 77.9258 30.5554C77.9258 28.104 75.9953 26.8783 73.9608 26.8783C72.4797 26.8783 72.2161 27.1984 72.2161 28.2634V34.3905V34.3918Z" fill="#45080D"/>
<path d="M89.1947 40.2009C89.1947 42.226 89.5122 42.5991 91.2042 42.5991V43.1316H84.8594V42.5991C86.604 42.5991 86.9216 42.226 86.9216 40.2009V29.171C86.9216 27.1459 86.604 26.7727 84.8594 26.7727V26.2402H91.5745V26.7727C89.5122 26.7727 89.1947 27.1459 89.1947 29.171V40.2009Z" fill="#45080D"/>
<path d="M110.768 25.6543V30.1573H110.397C109.764 27.7325 108.6 27.3063 105.85 27.3063C103.656 27.3063 103.418 27.3859 103.418 29.6514C103.418 32.1559 103.18 38.7093 103.18 40.2019C103.18 42.0663 103.682 42.4926 105.876 42.6002V43.1327H98.289V42.6002C100.748 42.6002 101.065 42.227 101.065 40.2019C101.065 38.7093 101.304 32.1559 101.304 29.6514C101.304 27.4669 101.251 27.4138 99.189 27.4138C96.4139 27.4138 95.224 28.4257 94.378 30.1573H93.7969L94.9341 25.6543H95.4888C95.9909 26.2134 96.626 26.5068 97.8159 26.5068H107.755C109.395 26.5068 109.632 26.3475 110.399 25.6543H110.769H110.768Z" fill="#45080D"/>
<path d="M122.61 30.3703H122.188C121.394 27.9455 120.046 26.5605 118.249 26.5605C116.954 26.5605 115.103 27.4927 115.103 29.4381C115.103 33.8867 123.8 33.0621 123.8 38.3367C123.8 40.4946 121.87 43.3456 117.826 43.3456C116.662 43.3456 113.993 43.0256 113.438 42.5197C112.909 42.0403 112.83 39.1095 112.75 38.2304H113.147C113.543 39.322 114.812 42.8131 118.037 42.8131C119.834 42.8131 121.844 41.7468 121.844 39.403C121.844 34.6078 113.147 36.046 113.147 30.4513C113.147 28.2934 114.733 26.0293 118.672 26.0293C119.994 26.0293 121.368 26.1887 122.61 26.8287V30.3717V30.3703Z" fill="#45080D"/>
<path d="M10.305 25.5787C6.47568 25.5787 3.68739 24.3875 2.01784 22.0344C0.943898 20.5232 -0.217013 17.6828 0.353559 12.7349C0.692213 9.79879 1.4947 7.46427 1.50393 7.44169L1.56718 7.25977H19.3524L19.4157 7.44037C19.4236 7.46294 20.2221 9.74833 20.5621 12.6406C20.8784 15.3297 20.8546 19.1116 18.9439 21.8658C17.2573 24.2959 14.4031 25.5442 10.4618 25.5774C10.4091 25.5774 10.3564 25.5774 10.3037 25.5774L10.305 25.5787ZM1.95327 7.80289C1.53819 9.11092 -0.808669 17.1224 2.45664 21.7184C4.04185 23.9493 6.74054 25.0648 10.4578 25.0329C14.2133 25.0011 16.9199 23.8311 18.5012 21.5537C21.7085 16.9351 19.3827 9.091 18.9677 7.80157H1.95327V7.80289Z" fill="#45080D"/>
<path d="M21.6067 41.0989C21.554 41.0989 21.5013 41.0949 21.4486 41.0856C20.546 40.9382 18.2637 40.593 16.5796 40.5584C14.8969 40.5252 12.7978 40.84 11.9755 40.9781C11.455 41.0644 10.953 40.7098 10.8568 40.188C10.3916 37.6503 9.78285 27.3893 9.75781 26.9537L10.6552 26.9006C10.6618 27.0068 11.285 37.54 11.741 40.0233C11.7489 40.0645 11.7871 40.0923 11.8293 40.0844C12.8821 39.9091 14.9035 39.6183 16.5994 39.6528C18.2782 39.686 20.4485 40.0047 21.5936 40.1906C21.6199 40.1946 21.6397 40.1853 21.6515 40.176C21.6634 40.1667 21.6779 40.1508 21.6819 40.1229L23.1814 27.5313L16.581 27.4291L16.5941 26.5234L24.1921 26.6403L22.5739 40.2304C22.5423 40.4947 22.4026 40.739 22.1918 40.8997C22.0205 41.0299 21.8176 41.0976 21.6081 41.0976L21.6067 41.0989Z" fill="#45080D"/>
<path d="M17.0931 38.8378C14.2337 38.8378 11.1529 37.8352 11 37.7834L11.112 37.4395C11.1555 37.4541 15.5224 38.875 18.6006 38.361L18.6599 38.7183C18.1605 38.8019 17.6308 38.8378 17.0945 38.8378H17.0931Z" fill="#45080D"/>
<path d="M16.378 37.9237C15.8416 37.9237 15.3119 37.8879 14.8125 37.8042L14.8718 37.447C17.9487 37.9609 22.3169 36.54 22.3604 36.5254L22.4724 36.8693C22.3195 36.9198 19.2387 37.9237 16.3793 37.9237H16.378Z" fill="#45080D"/>
<path d="M17.8097 6.26825C17.3485 2.97363 16.4155 0.518267 16.376 0.416016L15.2019 0.874155C15.2388 0.969767 18.8125 10.4592 15.1308 16.5996C13.4006 19.4852 11.3515 21.0881 6.9688 21.5967L5.36119 23.08V39.5425C5.32561 42.3059 4.10672 42.6166 1.14844 42.6166V43.3444H11.142V42.6166C8.14816 42.6166 6.6565 42.2847 6.61961 39.5212V22.9034C11.117 22.2673 14.3414 20.3683 16.2073 17.2556C17.8716 14.4802 18.4251 10.681 17.8084 6.26958L17.8097 6.26825Z" fill="#45080D"/>
</g>
<defs>
<clipPath id="clip0_12336_86911">
<rect width="124" height="44" fill="white"/>
</clipPath>
</defs>
</svg>
