<svg width="71" height="98" viewBox="0 0 71 98" fill="none" xmlns="http://www.w3.org/2000/svg">
<path d="M25.9647 28.3463V4.18293C25.9647 1.87634 24.0675 0 21.7352 0H14.7224C12.3902 0 10.493 1.87634 10.493 4.18293V28.3463C10.493 33.7582 8.60789 37.7838 6.42269 42.4448C3.41174 48.8705 0 56.1508 0 69.3231V92.8211C0 95.6775 2.34834 98 5.23643 98H31.2192C34.1073 98 36.4556 95.6775 36.4556 92.8211V69.325C36.4556 56.1528 33.0439 48.8705 30.033 42.4468C27.8498 37.7838 25.9647 33.7602 25.9647 28.3463ZM18.3839 31.4556C18.3376 31.5134 18.3034 31.5293 18.2288 31.5293C18.1543 31.5293 18.1201 31.5134 18.0738 31.4556L12.9098 25.1952V10.6266H23.5478V25.1952L18.3839 31.4556ZM14.7224 2.39024H21.7352C22.7342 2.39024 23.5478 3.19496 23.5478 4.18293V8.23638H12.9098V4.18293C12.9098 3.19496 13.7215 2.39024 14.7224 2.39024ZM34.0388 92.8211C34.0388 94.3589 32.774 95.6098 31.2192 95.6098H5.23643C3.68162 95.6098 2.41682 94.3589 2.41682 92.8211V69.325C2.41682 56.6807 5.70973 49.6513 8.61393 43.4506C10.7448 38.9032 12.7608 34.5988 12.8998 28.9678L16.1987 32.9674C16.7062 33.5809 17.4252 33.9196 18.2268 33.9196C19.0284 33.9196 19.7494 33.5809 20.2549 32.9674L23.5539 28.9678C23.6928 34.6008 25.7089 38.9052 27.8397 43.4526C30.7439 49.6533 34.0368 56.6806 34.0368 69.327V92.8211H34.0388ZM66.9881 92.7773C65.0707 92.5263 63.3508 92.2116 61.7295 91.8152C61.1817 91.6798 60.8131 91.2137 60.8131 90.656V74.5617C63.1232 74.0318 65.1835 73.014 66.8028 71.5659C69.5499 69.1099 71 65.5265 71 61.2062C71.002 57.093 70.0534 53.402 69.0504 49.494C68.7342 48.263 68.408 46.9902 68.0958 45.6576C67.9689 45.1159 67.4815 44.7314 66.9176 44.7314H47.144C46.5821 44.7314 46.0927 45.1159 45.9658 45.6576C45.6557 46.9902 45.3274 48.263 45.0112 49.494C44.0082 53.402 43.0596 57.093 43.0616 61.2062C43.0616 65.5285 44.5137 69.1099 47.2588 71.5659C48.8781 73.016 50.9384 74.0318 53.2485 74.5617V90.656C53.2485 91.2157 52.8799 91.6818 52.3321 91.8152C50.7128 92.2136 48.9929 92.5283 47.0735 92.7773C45.7342 92.9526 44.7977 94.0342 44.7977 95.4106C44.7977 96.8387 45.9719 98 47.4159 98H66.6417C68.0857 98 69.2599 96.8387 69.2599 95.4106C69.2639 94.0342 68.3294 92.9526 66.9881 92.7773ZM47.3575 50.0796C47.6032 49.1215 47.855 48.1395 48.1027 47.1177H65.9609C66.2087 48.1395 66.4604 49.1215 66.7061 50.0796C67.552 53.3702 68.2972 56.2843 68.5147 59.3896C63.6589 60.4074 61.2784 59.4035 58.7689 58.3459C55.7116 57.0571 52.5557 55.7305 45.6234 58.4574C45.9155 55.6927 46.5982 53.0395 47.3575 50.0796ZM45.4824 61.2042C45.4824 61.1703 45.4845 61.1385 45.4845 61.1046C52.2375 58.1865 54.8355 59.282 57.8263 60.5449C59.7034 61.3357 61.7476 62.2001 64.813 62.1981C65.9186 62.1981 67.1593 62.0846 68.5711 61.8157C68.2851 69.7393 62.4787 72.5877 57.0328 72.5917C51.448 72.5877 45.4824 69.5939 45.4824 61.2042ZM66.6457 95.6098H47.4199C47.3112 95.6098 47.2185 95.5181 47.2185 95.4106C47.2185 95.1696 47.3374 95.1536 47.3937 95.1476C49.4017 94.8867 51.2103 94.5541 52.9182 94.1358C54.5375 93.7374 55.6693 92.3072 55.6693 90.656V74.9302C56.1185 74.964 56.5716 74.9839 57.0328 74.9839H57.0348C57.494 74.9839 57.9492 74.964 58.3983 74.9302V90.656C58.3983 92.3072 59.5302 93.7374 61.1495 94.1358C62.8594 94.5561 64.6659 94.8867 66.6739 95.1476C66.7303 95.1556 66.8491 95.1715 66.8491 95.4106C66.8471 95.5181 66.7545 95.6098 66.6457 95.6098ZM4.73696 71.4643V83.0909C4.73696 84.8477 6.18302 86.2778 7.95938 86.2778H28.4117C30.188 86.2778 31.6341 84.8477 31.6341 83.0909V71.4643C31.6341 69.7075 30.188 68.2773 28.4117 68.2773H7.95938C6.18101 68.2773 4.73696 69.7075 4.73696 71.4643ZM29.2173 71.4643V83.0909C29.2173 83.5311 28.8568 83.8876 28.4117 83.8876H7.95938C7.51428 83.8876 7.15377 83.5311 7.15377 83.0909V71.4643C7.15377 71.0241 7.51428 70.6676 7.95938 70.6676H28.4117C28.8568 70.6676 29.2173 71.0261 29.2173 71.4643Z" fill="#770E16"/>
</svg>
