<svg width="88" height="89" viewBox="0 0 88 89" fill="none" xmlns="http://www.w3.org/2000/svg">
<path d="M84.4727 49.1686L77.6002 46.2777C77.0996 46.0667 76.6911 45.677 76.4511 45.1809L72.1218 36.1917C71.5078 34.9087 70.1992 34.0802 68.787 34.0802H58.5846V20.4094C58.5846 18.7135 57.22 17.3341 55.5424 17.3341H51.211C47.8945 8.6514 39.5552 2.47339 29.8104 2.47339C20.0655 2.47339 11.7263 8.65158 8.40972 17.3341H4.07474C2.39714 17.3341 1.03223 18.7134 1.03223 20.4094V65.1477C1.03223 66.8436 2.39714 68.2239 4.07474 68.2239H10.8837C10.8811 68.315 10.8701 68.4039 10.8701 68.4956C10.8701 71.6829 12.4495 74.4998 14.8545 76.2027H5.22709C4.76227 76.2027 4.38537 76.5832 4.38537 77.0536C4.38537 77.524 4.76227 77.9045 5.22709 77.9045H20.1771C25.3095 77.9045 29.4848 73.6842 29.4848 68.4957C29.4848 68.4041 29.4738 68.315 29.4712 68.2241H61.7849C61.7823 68.3152 61.7713 68.4041 61.7713 68.4957C61.7713 71.6831 63.3505 74.5 65.7555 76.2029H56.7153C56.2502 76.2029 55.8736 76.5833 55.8736 77.0538C55.8736 77.5242 56.25 77.9047 56.7153 77.9047H71.0785C76.2109 77.9047 80.3856 73.6843 80.3856 68.4959C80.3856 68.4043 80.3747 68.3152 80.3721 68.2243H83.8133C85.5074 68.2243 86.8859 66.8307 86.8859 65.1173C86.8859 64.9451 86.8859 52.3891 86.8859 52.8243C86.8859 51.2169 85.9382 49.7819 84.4727 49.1686ZM29.8104 4.1752C41.5285 4.1752 51.0625 13.8126 51.0625 25.6586C51.0625 37.5055 41.5283 47.1436 29.8104 47.1436C18.0919 47.1436 8.55825 37.5053 8.55825 25.6586C8.55808 13.8126 18.0919 4.1752 29.8104 4.1752ZM4.07474 19.0359H7.83329C7.2129 21.1357 6.87481 23.3576 6.87481 25.6586C6.87481 38.4436 17.1635 48.8454 29.8104 48.8454C42.4573 48.8454 52.7459 38.4436 52.7459 25.6586C52.7459 23.3576 52.4078 21.1359 51.7875 19.0359H55.5422C56.291 19.0359 56.901 19.6524 56.901 20.4094V51.5708H2.71549V20.4094C2.71549 19.6524 3.32541 19.0359 4.07474 19.0359ZM20.1771 76.2027C15.9732 76.2027 12.5532 72.7451 12.5532 68.4956C12.5532 64.2461 15.973 60.7885 20.1771 60.7885C24.3813 60.7885 27.8014 64.2461 27.8014 68.4956C27.8014 72.7451 24.3813 76.2027 20.1771 76.2027ZM20.1771 59.0868C15.7149 59.0868 11.9796 62.2787 11.0796 66.5221H4.07474C3.32558 66.5221 2.71567 65.9055 2.71567 65.1477V53.2726H56.9011V66.5221H29.2752C28.3752 62.2787 24.6397 59.0868 20.1771 59.0868ZM71.0785 76.2027C66.8749 76.2027 63.4546 72.7451 63.4546 68.4956C63.4546 64.2461 66.8749 60.7885 71.0785 60.7885C75.2821 60.7885 78.7024 64.2461 78.7024 68.4956C78.7024 72.7451 75.2821 76.2027 71.0785 76.2027ZM83.8135 66.5221H80.176C79.2761 62.2787 75.541 59.0868 71.0785 59.0868C66.6159 59.0868 62.8809 62.2787 61.981 66.5221H58.5844C58.5844 58.5546 58.5844 43.2581 58.5844 35.782H68.7869C69.557 35.782 70.2713 36.234 70.6066 36.9346L74.9385 45.928C75.3594 46.7971 76.0752 47.4793 76.9532 47.8483L83.8274 50.74C84.6626 51.0898 85.2026 51.9076 85.2026 52.8241V53.4631H83.8439C81.6608 53.4631 79.8844 55.2579 79.8844 57.4648C79.8844 59.6718 81.6608 61.4675 83.8439 61.4675H85.2026V65.1171C85.2026 65.8915 84.5795 66.5221 83.8135 66.5221ZM85.2026 59.7657H83.8439C82.5887 59.7657 81.5679 58.7337 81.5679 57.4648C81.5679 56.1968 82.5887 55.1649 83.8439 55.1649H85.2026V59.7657Z" fill="#770E16" stroke="#770E16" stroke-width="0.5"/>
<path d="M69.8656 39.7173C69.5376 39.0184 68.8324 38.5664 68.068 38.5664H62.1496C61.054 38.5664 60.1621 39.468 60.1621 40.5765V50.3534C60.1621 51.4619 61.054 52.3635 62.1496 52.3635H72.6414C73.3262 52.3635 73.9542 52.0138 74.3208 51.4288C74.6874 50.8438 74.731 50.12 74.4384 49.4944L69.8656 39.7173ZM72.8987 50.5189C72.865 50.572 72.7869 50.6617 72.6414 50.6617H62.1496C61.9819 50.6617 61.8455 50.5237 61.8455 50.3534V40.5765C61.8455 40.4062 61.9821 40.2682 62.1496 40.2682H68.068C68.1847 40.2682 68.2932 40.338 68.3434 40.4453L72.9169 50.2222C72.9783 50.3552 72.9314 50.4649 72.8987 50.5189Z" fill="#770E16" stroke="#770E16" stroke-width="0.5"/>
<path d="M64.834 53.7512H61.5329C61.0677 53.7512 60.6912 54.1317 60.6912 54.6021C60.6912 55.0724 61.0676 55.453 61.5329 55.453H64.834C65.2992 55.453 65.6757 55.0725 65.6757 54.6021C65.6757 54.1319 65.2993 53.7512 64.834 53.7512Z" fill="#770E16" stroke="#770E16" stroke-width="0.5"/>
<path d="M71.0787 63.5498C68.381 63.5498 66.1855 65.7684 66.1855 68.4955C66.1855 71.2227 68.381 73.4413 71.0787 73.4413C73.7765 73.4413 75.9711 71.2227 75.9711 68.4955C75.9713 65.7684 73.7765 63.5498 71.0787 63.5498ZM71.0787 71.7397C69.3091 71.7397 67.869 70.2847 67.869 68.4955C67.869 66.7064 69.3091 65.2514 71.0787 65.2514C72.8484 65.2514 74.2878 66.7064 74.2878 68.4955C74.2878 70.2847 72.8486 71.7397 71.0787 71.7397Z" fill="#770E16" stroke="#770E16" stroke-width="0.5"/>
<path d="M20.1775 63.5498C17.4798 63.5498 15.2852 65.7684 15.2852 68.4955C15.2852 71.2227 17.4798 73.4413 20.1775 73.4413C22.8752 73.4413 25.0704 71.2227 25.0704 68.4955C25.0704 65.7684 22.8752 63.5498 20.1775 63.5498ZM20.1775 71.7397C18.4082 71.7397 16.9684 70.2847 16.9684 68.4955C16.9684 66.7064 18.408 65.2514 20.1775 65.2514C21.9471 65.2514 23.3869 66.7064 23.3869 68.4955C23.3869 70.2847 21.9473 71.7397 20.1775 71.7397Z" fill="#770E16" stroke="#770E16" stroke-width="0.5"/>
<path d="M6.00023 25.4998V25.5002C6.00117 38.4 16.4894 49 29.5 49C42.3956 49 52.9935 38.5158 52.9984 25.5077C52.9984 25.5049 53 25.5028 53 25.5C53 25.4974 52.9986 25.4956 52.9986 25.493C52.9953 12.6234 42.5363 2 29.5 2C16.6273 2 6 12.4606 6 25.4991C6.00023 25.4991 6.00047 25.4993 6.00023 25.4998ZM10.6863 24.3548H8.34804C8.61594 19.3702 10.6031 14.847 13.7383 11.3565L15.387 13.005C15.8343 13.4523 16.5588 13.4523 17.0061 13.005C17.4534 12.5578 17.4534 11.8332 17.0061 11.3859L15.3574 9.73742C18.8478 6.60246 23.371 4.61526 28.3553 4.34736V6.68538C28.3553 7.31812 28.8673 7.83033 29.5002 7.83033C30.1332 7.83033 30.6452 7.31835 30.6452 6.68538V4.34759C35.6295 4.6155 40.1527 6.6027 43.6427 9.73788L41.9937 11.3862C41.5464 11.8335 41.5464 12.558 41.9937 13.0053C42.441 13.4526 43.1655 13.4526 43.6128 13.0053L45.2617 11.357C48.3966 14.8474 50.3836 19.3707 50.6513 24.355H48.3142C47.6815 24.355 47.1693 24.867 47.1693 25.5C47.1693 26.1327 47.6812 26.645 48.3142 26.645H50.651C50.3827 31.6291 48.396 36.1521 45.2613 39.6423L43.6125 37.9936C43.1652 37.5463 42.4407 37.5463 41.9934 37.9936C41.5462 38.4409 41.5462 39.1654 41.9934 39.6127L43.6424 41.2617C40.1522 44.3971 35.6292 46.3845 30.6449 46.6524V44.3144C30.6449 43.6817 30.133 43.1694 29.5 43.1694C28.867 43.1694 28.3551 43.6814 28.3551 44.3144V46.6524C23.371 46.3845 18.8475 44.3971 15.3574 41.2619L17.0061 39.6129C17.4534 39.1656 17.4534 38.4411 17.0061 37.9938C16.5588 37.5465 15.8343 37.5465 15.387 37.9938L13.7385 39.6428C10.6036 36.1526 8.61641 31.6293 8.34804 26.645H10.686C11.3183 26.645 11.831 26.133 11.831 25.5C11.8312 24.867 11.3185 24.3548 10.6863 24.3548Z" fill="#770E16"/>
<path d="M28.8105 27.5101H35.0353C35.5004 27.5101 35.877 27.1296 35.877 26.6592C35.877 26.189 35.5006 25.8083 35.0353 25.8083H29.6522V19.7332C29.6522 19.263 29.2758 18.8823 28.8105 18.8823C28.3451 18.8823 27.9688 19.2628 27.9688 19.7332V26.6592C27.9688 27.1296 28.3453 27.5101 28.8105 27.5101Z" fill="#770E16" stroke="#770E16" stroke-width="0.5"/>
</svg>
