<svg width="90" height="92" viewBox="0 0 90 92" fill="none" xmlns="http://www.w3.org/2000/svg">
<path d="M86.273 88.7682L79.0448 86.649C79.0448 86.649 79.0448 86.649 79.0435 86.649C77.0024 86.0548 75.5775 84.1632 75.5775 82.0492V67.9521C75.5775 65.1295 77.1768 62.5618 79.6504 61.4125C85.0801 58.889 88.588 53.4142 88.588 47.4636C88.588 42.3945 86.1681 31.77 82.5658 24.0317C82.4518 23.786 82.204 23.6287 81.9314 23.6287H64.1859C63.9132 23.6287 63.6655 23.786 63.5514 24.0317C59.9504 31.7687 57.5305 42.3932 57.5305 47.4636C57.5305 53.4116 61.0384 58.8864 66.4695 61.4112C68.9431 62.5618 70.5424 65.1282 70.5424 67.9508V82.0492C70.5424 84.1632 69.1174 86.0548 67.0751 86.649L59.8469 88.7682C59.5139 88.8657 59.3041 89.1907 59.354 89.5313C59.4038 89.872 59.6974 90.1255 60.0448 90.1255H86.0751C86.4224 90.1255 86.7161 89.8733 86.7659 89.5313C86.8157 89.1907 86.606 88.8657 86.273 88.7682ZM64.6355 25.0146H81.4843C83.2803 28.9656 84.7576 33.6135 85.7605 37.8428C81.0452 36.2098 78.3212 37.2174 73.6964 39.3652C71.4036 40.43 69.2394 41.435 66.8942 41.5793C64.5608 41.721 62.3061 40.9956 59.7892 40.4404C60.7514 35.6001 62.4634 29.7977 64.6355 25.0172V25.0146ZM64.8702 88.7396L67.4697 87.9777C70.1006 87.2106 71.9385 84.7729 71.9385 82.0492V67.9508C71.9385 64.5939 70.0246 61.5334 67.062 60.1566C62.1199 57.8593 58.9279 52.876 58.9279 47.4636C58.9279 45.9906 59.1429 44.0261 59.5336 41.8003C62.0413 42.3568 64.4454 43.1173 66.9807 42.96C69.5894 42.8001 71.9778 41.6911 74.2876 40.6185C79.1706 38.3511 81.3283 37.6192 86.1236 39.4523C86.8065 42.6415 87.1919 45.4913 87.1919 47.4636C87.1919 52.8786 83.9986 57.8619 79.0579 60.1579C76.0953 61.5347 74.1801 64.5939 74.1801 67.9521V82.0492C74.1801 84.7729 76.0179 87.2119 78.6489 87.9777L81.2484 88.7396H64.8702Z" fill="#770E16" stroke="#770E16" stroke-width="0.8"/>
<path fill-rule="evenodd" clip-rule="evenodd" d="M22.1878 4.69186C27.7396 -0.020148 36.0998 -0.924139 44.137 2.33541C49.3662 4.46557 53.1113 9.82374 53.9183 16.2788C54.2976 19.1815 54.0089 21.9657 53.1556 24.3569C53.3196 24.4591 53.4722 24.5611 53.5999 24.6547L53.7591 24.7749L53.971 24.9565C56.0451 26.8054 56.7655 29.8296 55.7024 32.4184H55.7034C54.6588 34.9787 52.1842 36.5463 49.5394 36.52C48.4914 40.3478 46.5445 43.5634 43.8733 45.8803L43.8724 45.8794C43.6738 46.0536 43.4706 46.2208 43.2649 46.3833C43.3917 46.5052 43.48 46.6686 43.5003 46.8569C43.8107 49.7446 46.115 55.8297 52.7298 57.2954C54.1799 57.6167 55.5484 58.042 56.8274 58.559L57.0091 58.6069L57.0032 58.6333C63.6476 61.3812 67.8354 66.6266 68.4144 72.688C68.9446 78.2399 68.6362 84.7856 68.4134 86.8969C68.3684 87.3232 67.9854 87.6331 67.5579 87.5883C67.1305 87.5433 66.8206 87.1611 66.8655 86.7348C67.0798 84.7052 67.3832 78.2642 66.8645 72.8344C66.3586 67.5385 62.7282 62.7763 56.6888 60.184C56.0964 63.4528 55.2442 70.3136 54.511 76.6421C54.11 80.1041 53.7461 83.3908 53.4827 85.812C53.351 87.0226 53.2439 88.018 53.1702 88.7094C53.1334 89.0548 53.1046 89.3249 53.0853 89.5083C53.0756 89.5997 53.0677 89.6701 53.0628 89.7172C53.0604 89.7403 53.0591 89.7581 53.0579 89.77C53.0573 89.776 53.0563 89.7816 53.056 89.7846V89.7885C53.0111 90.2147 52.6279 90.5244 52.2005 90.4799C51.7729 90.4353 51.4624 90.0528 51.5071 89.6264C51.5073 89.6256 51.5079 89.6239 51.5081 89.6225C51.5084 89.6196 51.5085 89.6147 51.5091 89.6088C51.5103 89.5968 51.5125 89.5786 51.5149 89.5551C51.5199 89.5078 51.5267 89.437 51.5364 89.3452C51.5558 89.1614 51.5845 88.891 51.6214 88.5454C51.6952 87.8531 51.802 86.8568 51.9339 85.645C52.1976 83.2214 52.5625 79.9304 52.9642 76.4633C53.7045 70.0726 54.5783 63.0252 55.1878 59.7358L51.1692 58.688C50.4705 61.4388 49.5145 65.3357 48.7073 68.9262C48.2651 70.8935 47.8679 72.763 47.5823 74.2993C47.2921 75.8604 47.1302 77.0102 47.1302 77.5776V78.354H21.7054V77.5776C21.7053 77.0102 21.5434 75.8604 21.2532 74.2993C20.9676 72.763 20.5704 70.8935 20.1282 68.9262C19.3097 65.2853 18.3382 61.3293 17.637 58.5727C17.3398 58.6599 17.0344 58.7404 16.72 58.81C15.8679 58.9988 15.0491 59.2261 14.264 59.4858C14.2749 59.5168 14.2852 59.5485 14.2923 59.5815C14.9021 62.446 15.8357 70.0529 16.6126 76.8901C17.0024 80.3202 17.3539 83.5743 17.6087 85.9702C17.7361 87.1681 17.8393 88.1522 17.9104 88.8364C17.946 89.1784 17.9737 89.4456 17.9925 89.6274C18.0018 89.7182 18.0092 89.7876 18.014 89.8344C18.0163 89.8576 18.0186 89.8753 18.0198 89.8872C18.0204 89.8928 18.0196 89.8978 18.0198 89.9008C18.0199 89.9018 18.0206 89.9031 18.0208 89.9038V89.9057C18.0644 90.3322 17.7531 90.7128 17.3255 90.7563C16.8978 90.7997 16.5156 90.4894 16.472 90.063V90.059L16.4642 89.9926C16.4594 89.9461 16.453 89.8769 16.4436 89.7866C16.4249 89.6052 16.3972 89.3372 16.3616 88.9956C16.2905 88.3123 16.188 87.3295 16.0608 86.1333C15.8064 83.74 15.4549 80.4908 15.0657 77.0659C14.2959 70.2913 13.3844 62.8944 12.7933 60.0278C6.53177 62.582 2.76361 67.431 2.24736 72.8344C1.72833 78.2685 2.02094 87.7405 2.23466 89.7651C2.27941 90.1911 1.96852 90.5726 1.5413 90.6176C1.11388 90.6623 0.730848 90.3534 0.685836 89.9272C0.462497 87.8114 0.167672 78.2363 0.697554 72.688C1.39237 65.4137 7.28314 59.3118 16.3821 57.2954C22.7745 55.8789 25.1405 50.1485 25.5726 47.1587C24.9808 46.7743 24.4115 46.3479 23.8714 45.8803L23.3782 45.434C20.9598 43.1549 19.2124 40.1035 18.2083 36.52C15.5621 36.5477 13.0853 34.9799 12.0403 32.4184H12.0413C10.8502 29.506 11.823 26.283 14.3265 24.5112C14.0145 23.75 13.7454 22.9325 13.5276 22.0639L13.4407 21.7006C12.659 18.2614 12.7859 14.4285 13.7337 11.3755L13.8274 11.0825C15.2659 6.79908 18.1588 4.48415 21.8304 4.66647L22.1878 4.69186ZM41.9847 47.2915C39.5727 48.8207 36.7965 49.6205 33.9368 49.6206H33.8079C31.4457 49.6206 29.1169 49.0492 27.0081 47.9819C26.397 51.0119 24.2326 55.8608 19.1087 58.0463C19.8151 60.8183 20.8099 64.8638 21.6468 68.5864C22.0909 70.5622 22.4929 72.4528 22.7835 74.0161C22.986 75.1058 23.1406 76.0714 23.2142 76.8022H45.6214C45.6949 76.0715 45.8495 75.1065 46.052 74.0171C46.3427 72.4536 46.7446 70.5623 47.1888 68.5864C48.0366 64.8151 49.0453 60.7121 49.7532 57.938C44.4056 55.5215 42.3796 50.1737 41.9847 47.2915ZM43.1956 61.6255L35.762 59.3198H34.0823L26.6487 61.6255V52.6255L34.0657 54.6255L34.0686 54.7378H35.7757L35.7786 54.6255L43.1956 52.6255V61.6255ZM28.2063 59.5161L32.5882 58.1567L32.5354 55.8208L28.2063 54.6528V59.5161ZM37.5218 55.7631V58.2387L41.638 59.5161V54.6528L37.5218 55.7631ZM34.4954 57.7671H35.7083L35.7415 56.2895H34.4954V57.7671ZM28.095 16.602C27.2235 17.8604 25.8031 18.6996 24.4153 19.5063C23.2535 20.184 22.1234 20.8616 21.4778 21.7006C19.9608 23.6693 20.0898 27.0582 20.2835 28.8979C20.3157 29.2852 20.1541 29.673 19.8313 29.8989L19.7063 29.9731C19.4482 30.1004 19.1467 30.1029 18.8704 29.9946L18.7347 29.9311C17.2413 29.1079 15.976 27.7388 15.0042 25.9467C13.3132 27.2854 12.6519 29.5183 13.3938 31.601L13.4817 31.8325L13.4827 31.8335C14.3501 33.9597 16.5022 35.1891 18.7093 34.938L19.387 34.8598L19.553 35.519C20.5217 39.362 22.353 42.506 24.8919 44.7085C27.3999 46.8797 30.5776 48.0688 33.8079 48.0688H33.9368C37.2029 48.0688 40.3446 46.9092 42.8479 44.7114L42.8509 44.7085C45.3928 42.5036 47.2543 39.3595 48.1897 35.5249L48.3519 34.8588L49.0345 34.938C51.2417 35.1894 53.3935 33.9598 54.261 31.8335L54.262 31.8315C55.1 29.7923 54.4831 27.3785 52.7767 25.9799C52.7175 25.9331 52.6374 25.8743 52.5433 25.81C51.7314 27.4626 50.6169 28.8645 49.2376 29.8989L49.0872 29.9321C48.933 29.9729 48.7695 30.0277 48.6243 30.0278L48.4847 30.021C48.3948 30.0119 48.3106 29.9928 48.2288 29.9594L48.1077 29.8989C47.7528 29.673 47.5266 29.2852 47.5911 28.8657C47.7847 27.1551 47.6559 24.2181 47.4622 22.2495C47.3653 21.2813 46.8806 20.4741 46.0091 19.7963C44.5888 18.6992 42.2971 18.1183 40.3929 18.4087C37.036 18.8927 32.9042 18.2802 28.095 16.602ZM42.8343 3.49459C35.4492 0.744244 28.0579 1.74879 23.1976 5.8735L22.6976 6.2983L22.0442 6.23776C20.4972 6.09481 19.1714 6.48647 18.0716 7.3276C16.9511 8.18455 15.9737 9.58052 15.304 11.5747C14.3698 14.3791 14.2095 18.0551 14.9573 21.351L15.0394 21.6909C15.7813 24.6489 17.0866 26.7877 18.6487 28.0141C18.5993 27.1821 18.5886 26.1985 18.6897 25.1928C18.8348 23.7517 19.2264 22.0743 20.2425 20.7553C21.1105 19.6275 22.5405 18.8015 23.6292 18.1665L23.6311 18.1645C25.08 17.3223 26.1736 16.6437 26.8138 15.7192L27.4886 14.7446L28.6087 15.1362C33.2934 16.7709 37.1563 17.3062 40.1702 16.8715C42.4012 16.5351 45.023 17.1601 46.7942 18.4428L46.9632 18.5698L46.9671 18.5727C48.0451 19.4112 48.7703 20.493 48.9769 21.8256L49.011 22.0952V22.0981C49.1699 23.7133 49.2934 26.0336 49.222 27.8549C51.6822 25.3909 52.9931 21.2133 52.3743 16.479L52.3724 16.4702L52.2942 15.9106C51.4043 10.1669 48.0193 5.59409 43.5491 3.77291L42.8343 3.49459Z" fill="#770E16"/>
<path d="M22.1878 4.69186L22.1594 5.09085L22.3222 5.10241L22.4466 4.99682L22.1878 4.69186ZM44.137 2.33541L44.2879 1.96497L44.2873 1.96474L44.137 2.33541ZM53.9183 16.2788L53.5213 16.3284L53.5216 16.3306L53.9183 16.2788ZM53.1556 24.3569L52.7788 24.2224L52.6705 24.5259L52.944 24.6964L53.1556 24.3569ZM53.5999 24.6547L53.8409 24.3354L53.8365 24.3322L53.5999 24.6547ZM53.7591 24.7749L54.0194 24.4712L54.0099 24.4631L54 24.4556L53.7591 24.7749ZM53.971 24.9565L54.2372 24.6579L54.2313 24.6528L53.971 24.9565ZM55.7024 32.4184L55.3324 32.2665L55.1058 32.8184H55.7024V32.4184ZM55.7034 32.4184L56.0738 32.5695L56.2986 32.0184H55.7034V32.4184ZM49.5394 36.52L49.5433 36.12L49.235 36.1169L49.1535 36.4144L49.5394 36.52ZM43.8733 45.8803L43.5905 46.1632L43.854 46.4266L44.1354 46.1825L43.8733 45.8803ZM43.8724 45.8794L44.1552 45.5965L43.8902 45.3315L43.6085 45.5787L43.8724 45.8794ZM43.2649 46.3833L43.0169 46.0694L42.6573 46.3536L42.9876 46.6715L43.2649 46.3833ZM43.5003 46.8569L43.898 46.8141L43.898 46.8141L43.5003 46.8569ZM52.7298 57.2954L52.8163 56.9048H52.8163L52.7298 57.2954ZM56.8274 58.559L56.6775 58.9299L56.701 58.9394L56.7255 58.9458L56.8274 58.559ZM57.0091 58.6069L57.3996 58.6937L57.483 58.3181L57.111 58.2201L57.0091 58.6069ZM57.0032 58.6333L56.6127 58.5465L56.5399 58.8745L56.8503 59.0029L57.0032 58.6333ZM68.4144 72.688L68.8125 72.6499V72.6499L68.4144 72.688ZM68.4134 86.8969L68.8112 86.9389V86.9389L68.4134 86.8969ZM67.5579 87.5883L67.516 87.9861L67.5162 87.9862L67.5579 87.5883ZM66.8655 86.7348L66.4677 86.6928L66.4677 86.6929L66.8655 86.7348ZM66.8645 72.8344L67.2627 72.7964V72.7964L66.8645 72.8344ZM56.6888 60.184L56.8465 59.8165L56.3848 59.6183L56.2952 60.1127L56.6888 60.184ZM54.511 76.6421L54.1137 76.596V76.596L54.511 76.6421ZM53.4827 85.812L53.8804 85.8552V85.8552L53.4827 85.812ZM53.1702 88.7094L53.568 88.7518V88.7518L53.1702 88.7094ZM53.0853 89.5083L53.483 89.5503V89.5503L53.0853 89.5083ZM53.0628 89.7172L52.665 89.6754L52.665 89.6755L53.0628 89.7172ZM53.0579 89.77L53.4557 89.8117V89.8116L53.0579 89.77ZM53.056 89.7846L52.6581 89.7431L52.656 89.7638V89.7846H53.056ZM53.056 89.7885L53.4538 89.8304L53.456 89.8095V89.7885H53.056ZM52.2005 90.4799L52.159 90.8778L52.1591 90.8778L52.2005 90.4799ZM51.5071 89.6264L51.1115 89.5676L51.1102 89.5761L51.1093 89.5847L51.5071 89.6264ZM51.5081 89.6225L51.9052 89.6708L51.9059 89.6642L51.5081 89.6225ZM51.5091 89.6088L51.1113 89.567L51.111 89.5693L51.5091 89.6088ZM51.5149 89.5551L51.9127 89.5971L51.9127 89.597L51.5149 89.5551ZM51.5364 89.3452L51.1386 89.3031L51.1386 89.3032L51.5364 89.3452ZM51.6214 88.5454L51.2236 88.503V88.503L51.6214 88.5454ZM51.9339 85.645L52.3315 85.6882V85.6882L51.9339 85.645ZM52.9642 76.4633L52.5668 76.4173V76.4173L52.9642 76.4633ZM55.1878 59.7358L55.5811 59.8087L55.6489 59.4427L55.2887 59.3487L55.1878 59.7358ZM51.1692 58.688L51.2702 58.3009L50.8806 58.1993L50.7815 58.5895L51.1692 58.688ZM48.7073 68.9262L48.3171 68.8385V68.8385L48.7073 68.9262ZM47.5823 74.2993L47.1891 74.2262V74.2262L47.5823 74.2993ZM47.1302 77.5776L46.7302 77.5776V77.5776H47.1302ZM47.1302 78.354V78.754H47.5302V78.354H47.1302ZM21.7054 78.354H21.3054V78.754H21.7054V78.354ZM21.7054 77.5776H22.1054V77.5776L21.7054 77.5776ZM21.2532 74.2993L21.6465 74.2262V74.2262L21.2532 74.2993ZM20.1282 68.9262L20.5185 68.8385V68.8385L20.1282 68.9262ZM17.637 58.5727L18.0247 58.4741L17.9224 58.0722L17.5244 58.1889L17.637 58.5727ZM16.72 58.81L16.6335 58.4195H16.6335L16.72 58.81ZM14.264 59.4858L14.1383 59.106L13.7513 59.234L13.8866 59.6186L14.264 59.4858ZM14.2923 59.5815L14.6835 59.4982L14.6835 59.4979L14.2923 59.5815ZM16.6126 76.8901L16.2152 76.9353V76.9353L16.6126 76.8901ZM17.6087 85.9702L17.2109 86.0125V86.0125L17.6087 85.9702ZM17.9104 88.8364L18.3083 88.795V88.795L17.9104 88.8364ZM17.9925 89.6274L18.3904 89.5864V89.5864L17.9925 89.6274ZM18.014 89.8344L17.6161 89.8753L17.6161 89.8753L18.014 89.8344ZM18.0198 89.8872L18.4177 89.8465L18.4177 89.8463L18.0198 89.8872ZM18.0198 89.9008L17.6211 89.9334L17.6219 89.9418L18.0198 89.9008ZM18.0208 89.9038H18.4208V89.8504L18.4068 89.799L18.0208 89.9038ZM18.0208 89.9057H17.6208V89.9261L17.6229 89.9464L18.0208 89.9057ZM17.3255 90.7563L17.3659 91.1543L17.366 91.1543L17.3255 90.7563ZM16.472 90.063H16.072V90.0834L16.074 90.1036L16.472 90.063ZM16.472 90.059H16.872V90.0356L16.8692 90.0123L16.472 90.059ZM16.4642 89.9926L16.0662 90.0335L16.0669 90.0394L16.4642 89.9926ZM16.4436 89.7866L16.8415 89.7456V89.7456L16.4436 89.7866ZM16.3616 88.9956L15.9638 89.037V89.037L16.3616 88.9956ZM16.0608 86.1333L15.6631 86.1756V86.1756L16.0608 86.1333ZM15.0657 77.0659L14.6683 77.111L15.0657 77.0659ZM12.7933 60.0278L13.185 59.947L13.0878 59.4756L12.6422 59.6574L12.7933 60.0278ZM2.24736 72.8344L1.84917 72.7964L1.84917 72.7964L2.24736 72.8344ZM2.23466 89.7651L2.63248 89.7233L2.63245 89.7231L2.23466 89.7651ZM1.5413 90.6176L1.58289 91.0155L1.58326 91.0154L1.5413 90.6176ZM0.685836 89.9272L0.288046 89.9692L0.288048 89.9692L0.685836 89.9272ZM0.697554 72.688L0.299367 72.6499L0.299366 72.6499L0.697554 72.688ZM16.3821 57.2954L16.2956 56.9048H16.2956L16.3821 57.2954ZM25.5726 47.1587L25.9684 47.2159L26.005 46.9626L25.7904 46.8232L25.5726 47.1587ZM23.8714 45.8803L23.6029 46.177L23.6096 46.1828L23.8714 45.8803ZM23.3782 45.434L23.1038 45.7252L23.1098 45.7306L23.3782 45.434ZM18.2083 36.52L18.5935 36.4121L18.5107 36.1168L18.2041 36.12L18.2083 36.52ZM12.0403 32.4184V32.0184H11.4451L11.67 32.5695L12.0403 32.4184ZM12.0413 32.4184V32.8184H12.637L12.4115 32.267L12.0413 32.4184ZM14.3265 24.5112L14.5575 24.8377L14.8172 24.6539L14.6966 24.3595L14.3265 24.5112ZM13.5276 22.0639L13.1386 22.157L13.1396 22.1612L13.5276 22.0639ZM13.4407 21.7006L13.0506 21.7893L13.0517 21.7937L13.4407 21.7006ZM13.7337 11.3755L13.3527 11.2535L13.3517 11.2569L13.7337 11.3755ZM13.8274 11.0825L13.4482 10.9551L13.4465 10.9606L13.8274 11.0825ZM21.8304 4.66647L21.8587 4.26738L21.8502 4.26696L21.8304 4.66647ZM41.9847 47.2915L42.381 47.2372L42.2964 46.6202L41.7705 46.9536L41.9847 47.2915ZM33.9368 49.6206V50.0206H33.9368L33.9368 49.6206ZM27.0081 47.9819L27.1887 47.625L26.7199 47.3877L26.616 47.9028L27.0081 47.9819ZM19.1087 58.0463L18.9518 57.6784L18.6364 57.8129L18.7211 58.1451L19.1087 58.0463ZM21.6468 68.5864L21.2565 68.6741V68.6741L21.6468 68.5864ZM22.7835 74.0161L23.1768 73.943L23.1768 73.943L22.7835 74.0161ZM23.2142 76.8022L22.8162 76.8423L22.8524 77.2022H23.2142V76.8022ZM45.6214 76.8022V77.2022H45.9831L46.0194 76.8423L45.6214 76.8022ZM46.052 74.0171L45.6588 73.9439V73.944L46.052 74.0171ZM47.1888 68.5864L47.579 68.6741V68.6741L47.1888 68.5864ZM49.7532 57.938L50.1408 58.0369L50.2238 57.7116L49.9179 57.5734L49.7532 57.938ZM43.1956 61.6255L43.0771 62.0075L43.5956 62.1683V61.6255H43.1956ZM35.762 59.3198L35.8805 58.9377L35.8226 58.9198H35.762V59.3198ZM34.0823 59.3198V58.9198H34.0217L33.9638 58.9377L34.0823 59.3198ZM26.6487 61.6255H26.2487V62.1683L26.7672 62.0075L26.6487 61.6255ZM26.6487 52.6255L26.7529 52.2392L26.2487 52.1033V52.6255H26.6487ZM34.0657 54.6255L34.4656 54.615L34.4578 54.3169L34.1699 54.2392L34.0657 54.6255ZM34.0686 54.7378L33.6688 54.7482L33.6789 55.1378H34.0686V54.7378ZM35.7757 54.7378V55.1378H36.1654L36.1755 54.7482L35.7757 54.7378ZM35.7786 54.6255L35.6745 54.2392L35.3865 54.3169L35.3787 54.615L35.7786 54.6255ZM43.1956 52.6255H43.5956V52.1033L43.0915 52.2392L43.1956 52.6255ZM28.2063 59.5161H27.8063V60.059L28.3249 59.8981L28.2063 59.5161ZM32.5882 58.1567L32.7067 58.5387L32.9949 58.4493L32.9881 58.1477L32.5882 58.1567ZM32.5354 55.8208L32.9353 55.8117L32.9286 55.5125L32.6396 55.4346L32.5354 55.8208ZM28.2063 54.6528L28.3105 54.2666L27.8063 54.1306V54.6528H28.2063ZM37.5218 55.7631L37.4176 55.3769L37.1218 55.4567V55.7631H37.5218ZM37.5218 58.2387H37.1218V58.5334L37.4032 58.6208L37.5218 58.2387ZM41.638 59.5161L41.5194 59.8981L42.038 60.059V59.5161H41.638ZM41.638 54.6528H42.038V54.1306L41.5338 54.2666L41.638 54.6528ZM34.4954 57.7671H34.0954V58.1671H34.4954V57.7671ZM35.7083 57.7671V58.1671H36.0994L36.1082 57.776L35.7083 57.7671ZM35.7415 56.2895L36.1414 56.2985L36.1506 55.8895H35.7415V56.2895ZM34.4954 56.2895V55.8895H34.0954V56.2895H34.4954ZM28.095 16.602L28.2268 16.2243L27.9394 16.1241L27.7662 16.3743L28.095 16.602ZM24.4153 19.5063L24.2143 19.1605L24.2138 19.1608L24.4153 19.5063ZM21.4778 21.7006L21.7947 21.9448L21.7948 21.9446L21.4778 21.7006ZM20.2835 28.8979L20.6822 28.8647L20.6813 28.856L20.2835 28.8979ZM19.8313 29.8989L20.0356 30.2428L20.0485 30.2352L20.0607 30.2266L19.8313 29.8989ZM19.7063 29.9731L19.8833 30.3318L19.8972 30.325L19.9106 30.317L19.7063 29.9731ZM18.8704 29.9946L18.701 30.3569L18.7125 30.3623L18.7244 30.367L18.8704 29.9946ZM18.7347 29.9311L18.5416 30.2814L18.5532 30.2878L18.5652 30.2935L18.7347 29.9311ZM15.0042 25.9467L15.3558 25.7561L15.129 25.3378L14.7559 25.6331L15.0042 25.9467ZM13.3938 31.601L13.017 31.7353L13.0199 31.743L13.3938 31.601ZM13.4817 31.8325L13.1078 31.9745L13.1382 32.0547L13.1989 32.1153L13.4817 31.8325ZM13.4827 31.8335L13.8531 31.6824L13.8226 31.6077L13.7656 31.5506L13.4827 31.8335ZM18.7093 34.938L18.7545 35.3354L18.7551 35.3353L18.7093 34.938ZM19.387 34.8598L19.7749 34.7621L19.6893 34.4223L19.3412 34.4625L19.387 34.8598ZM19.553 35.519L19.1651 35.6167L19.1652 35.6168L19.553 35.519ZM24.8919 44.7085L24.6298 45.0106L24.6301 45.0109L24.8919 44.7085ZM33.9368 48.0688V48.4688H33.9368L33.9368 48.0688ZM42.8479 44.7114L43.1118 45.012L43.1216 45.0034L43.1308 44.9942L42.8479 44.7114ZM42.8509 44.7085L42.5888 44.4063L42.5781 44.4156L42.568 44.4256L42.8509 44.7085ZM48.1897 35.5249L48.5783 35.6197L48.5784 35.6195L48.1897 35.5249ZM48.3519 34.8588L48.3979 34.4615L48.0468 34.4208L47.9632 34.7643L48.3519 34.8588ZM49.0345 34.938L48.9884 35.3353L48.9892 35.3354L49.0345 34.938ZM54.261 31.8335L53.9033 31.6546L53.8964 31.6682L53.8907 31.6824L54.261 31.8335ZM54.262 31.8315L54.6198 32.0104L54.6264 31.9972L54.632 31.9835L54.262 31.8315ZM52.7767 25.9799L53.0302 25.6705L53.0251 25.6665L52.7767 25.9799ZM52.5433 25.81L52.7689 25.4798L52.3878 25.2193L52.1842 25.6337L52.5433 25.81ZM49.2376 29.8989L49.3238 30.2895L49.4083 30.2708L49.4776 30.2189L49.2376 29.8989ZM49.0872 29.9321L49.001 29.5415L48.9929 29.5433L48.9849 29.5454L49.0872 29.9321ZM48.6243 30.0278L48.6048 30.4273L48.6146 30.4278L48.6244 30.4278L48.6243 30.0278ZM48.4847 30.021L48.4445 30.4189L48.4548 30.42L48.4651 30.4205L48.4847 30.021ZM48.2288 29.9594L48.0499 30.3172L48.0636 30.3241L48.0778 30.3299L48.2288 29.9594ZM48.1077 29.8989L47.8929 30.2363L47.9104 30.2474L47.9288 30.2567L48.1077 29.8989ZM47.5911 28.8657L47.9865 28.9264L47.9877 28.9186L47.9886 28.9107L47.5911 28.8657ZM47.4622 22.2495L47.8603 22.2103L47.8602 22.2097L47.4622 22.2495ZM46.0091 19.7963L46.2546 19.4806L46.2536 19.4798L46.0091 19.7963ZM40.3929 18.4087L40.45 18.8046L40.4532 18.8041L40.3929 18.4087ZM42.8343 3.49459L42.9794 3.12181L42.9739 3.11974L42.8343 3.49459ZM23.1976 5.8735L22.9387 5.56852L22.9386 5.56866L23.1976 5.8735ZM22.6976 6.2983L22.6606 6.6966L22.8283 6.71213L22.9565 6.60314L22.6976 6.2983ZM22.0442 6.23776L22.0811 5.83946L22.081 5.83945L22.0442 6.23776ZM18.0716 7.3276L17.8286 7.00986L17.8286 7.00987L18.0716 7.3276ZM15.304 11.5747L14.9248 11.4473L14.9245 11.4483L15.304 11.5747ZM14.9573 21.351L14.5672 21.4396L14.5685 21.4449L14.9573 21.351ZM15.0394 21.6909L14.6505 21.7847L14.6514 21.7882L15.0394 21.6909ZM18.6487 28.0141L18.4017 28.3288L19.1007 28.8775L19.048 27.9904L18.6487 28.0141ZM18.6897 25.1928L18.2918 25.1528V25.1528L18.6897 25.1928ZM20.2425 20.7553L20.5594 20.9994L20.5595 20.9993L20.2425 20.7553ZM23.6292 18.1665L23.8307 18.512L23.8754 18.4859L23.912 18.4493L23.6292 18.1665ZM23.6311 18.1645L23.4301 17.8187L23.3851 17.8449L23.3483 17.8817L23.6311 18.1645ZM26.8138 15.7192L27.1426 15.9469L27.1426 15.9469L26.8138 15.7192ZM27.4886 14.7446L27.6206 14.367L27.3331 14.2665L27.1597 14.5169L27.4886 14.7446ZM28.6087 15.1362L28.4767 15.5138L28.4769 15.5139L28.6087 15.1362ZM40.1702 16.8715L40.2273 17.2675L40.2299 17.2671L40.1702 16.8715ZM46.7942 18.4428L47.0346 18.123L47.0289 18.1189L46.7942 18.4428ZM46.9632 18.5698L46.7229 18.8896L46.7232 18.8898L46.9632 18.5698ZM46.9671 18.5727L47.2127 18.2569L47.2071 18.2527L46.9671 18.5727ZM48.9769 21.8256L49.3738 21.7753L49.3721 21.7644L48.9769 21.8256ZM49.011 22.0952H49.411V22.0699L49.4079 22.0449L49.011 22.0952ZM49.011 22.0981H48.611V22.1177L48.613 22.1373L49.011 22.0981ZM49.222 27.8549L48.8223 27.8393L48.7822 28.8616L49.505 28.1376L49.222 27.8549ZM52.3743 16.479L52.7709 16.4271L52.7686 16.4095L52.7648 16.3922L52.3743 16.479ZM52.3724 16.4702L51.9762 16.5255L51.9784 16.5413L51.9819 16.5569L52.3724 16.4702ZM52.2942 15.9106L52.6904 15.8553L52.6895 15.8494L52.2942 15.9106ZM43.5491 3.77291L43.7001 3.40243L43.6942 3.40017L43.5491 3.77291ZM22.1878 4.69186L22.4466 4.99682C27.8613 0.401269 36.0561 -0.510223 43.9867 2.70609L44.137 2.33541L44.2873 1.96474C36.1435 -1.33806 27.618 -0.441565 21.929 4.38689L22.1878 4.69186ZM44.137 2.33541L43.9861 2.70585C49.0576 4.7718 52.7289 9.98966 53.5213 16.3284L53.9183 16.2788L54.3152 16.2292C53.4937 9.65783 49.6747 4.15934 44.2879 1.96497L44.137 2.33541ZM53.9183 16.2788L53.5216 16.3306C53.8935 19.1761 53.6091 21.896 52.7788 24.2224L53.1556 24.3569L53.5323 24.4913C54.4087 22.0355 54.7017 19.187 54.3149 16.2269L53.9183 16.2788ZM53.1556 24.3569L52.944 24.6964C53.1019 24.7948 53.2457 24.891 53.3633 24.9773L53.5999 24.6547L53.8365 24.3322C53.6987 24.2311 53.5373 24.1235 53.3671 24.0174L53.1556 24.3569ZM53.5999 24.6547L53.359 24.974L53.5181 25.0942L53.7591 24.7749L54 24.4556L53.8408 24.3355L53.5999 24.6547ZM53.7591 24.7749L53.4988 25.0786L53.7107 25.2602L53.971 24.9565L54.2313 24.6528L54.0194 24.4712L53.7591 24.7749ZM53.971 24.9565L53.7048 25.2551C55.6537 26.9924 56.3302 29.8366 55.3324 32.2665L55.7024 32.4184L56.0725 32.5704C57.2007 29.8227 56.4364 26.6184 54.2372 24.6579L53.971 24.9565ZM55.7024 32.4184V32.8184H55.7034V32.4184V32.0184H55.7024V32.4184ZM55.7034 32.4184L55.3331 32.2673C54.3519 34.6722 52.028 36.1447 49.5433 36.12L49.5394 36.52L49.5354 36.92C52.3404 36.9478 54.9658 35.2852 56.0738 32.5695L55.7034 32.4184ZM49.5394 36.52L49.1535 36.4144C48.1239 40.1755 46.2155 43.3192 43.6112 45.5782L43.8733 45.8803L44.1354 46.1825C46.8735 43.8075 48.859 40.5201 49.9252 36.6256L49.5394 36.52ZM43.8733 45.8803L44.1562 45.5975L44.1552 45.5965L43.8724 45.8794L43.5895 46.1622L43.5905 46.1632L43.8733 45.8803ZM43.8724 45.8794L43.6085 45.5787C43.4162 45.7474 43.2185 45.9101 43.0169 46.0694L43.2649 46.3833L43.5129 46.6971C43.7226 46.5314 43.9313 46.3598 44.1362 46.18L43.8724 45.8794ZM43.2649 46.3833L42.9876 46.6715C43.0526 46.7341 43.0932 46.8127 43.1026 46.8997L43.5003 46.8569L43.898 46.8141C43.8669 46.5246 43.7308 46.2764 43.5423 46.095L43.2649 46.3833ZM43.5003 46.8569L43.1026 46.8997C43.4222 49.873 45.7902 56.1674 52.6432 57.6859L52.7298 57.2954L52.8163 56.9048C46.4397 55.4919 44.1992 49.6163 43.898 46.8141L43.5003 46.8569ZM52.7298 57.2954L52.6432 57.6859C54.0725 58.0026 55.4197 58.4214 56.6775 58.9299L56.8274 58.559L56.9774 58.1882C55.677 57.6625 54.2873 57.2308 52.8163 56.9048L52.7298 57.2954ZM56.8274 58.559L56.7255 58.9458L56.9072 58.9937L57.0091 58.6069L57.111 58.2201L56.9293 58.1722L56.8274 58.559ZM57.0091 58.6069L56.6186 58.5201L56.6127 58.5465L57.0032 58.6333L57.3937 58.72L57.3996 58.6937L57.0091 58.6069ZM57.0032 58.6333L56.8503 59.0029C63.3834 61.7048 67.4537 66.8376 68.0162 72.726L68.4144 72.688L68.8125 72.6499C68.217 66.4155 63.9119 61.0576 57.1561 58.2636L57.0032 58.6333ZM68.4144 72.688L68.0162 72.726C68.5434 78.2463 68.2362 84.7647 68.0156 86.8549L68.4134 86.8969L68.8112 86.9389C69.0362 84.8066 69.3458 78.2336 68.8125 72.6499L68.4144 72.688ZM68.4134 86.8969L68.0156 86.8549C67.9938 87.0611 67.808 87.2123 67.5996 87.1905L67.5579 87.5883L67.5162 87.9862C68.1628 88.0539 68.7429 87.5853 68.8112 86.9389L68.4134 86.8969ZM67.5579 87.5883L67.5998 87.1905C67.3913 87.1686 67.2416 86.9825 67.2633 86.7768L66.8655 86.7348L66.4677 86.6929C66.3996 87.3396 66.8697 87.9181 67.516 87.9861L67.5579 87.5883ZM66.8655 86.7348L67.2633 86.7768C67.4798 84.7261 67.7844 78.2578 67.2627 72.7964L66.8645 72.8344L66.4664 72.8725C66.982 78.2706 66.6797 84.6843 66.4677 86.6928L66.8655 86.7348ZM66.8645 72.8344L67.2627 72.7964C66.7406 67.331 62.9967 62.4562 56.8465 59.8165L56.6888 60.184L56.531 60.5516C62.4597 63.0963 65.9766 67.7459 66.4664 72.8725L66.8645 72.8344ZM56.6888 60.184L56.2952 60.1127C55.7001 63.3967 54.8464 70.2714 54.1137 76.596L54.511 76.6421L54.9084 76.6881C55.642 70.3558 56.4928 63.509 57.0824 60.2554L56.6888 60.184ZM54.511 76.6421L54.1137 76.596C53.7125 80.0593 53.3485 83.3469 53.0851 85.7687L53.4827 85.812L53.8804 85.8552C54.1437 83.4347 54.5074 80.149 54.9084 76.6881L54.511 76.6421ZM53.4827 85.812L53.0851 85.7687C52.9533 86.9796 52.8462 87.9753 52.7725 88.667L53.1702 88.7094L53.568 88.7518C53.6416 88.0608 53.7487 87.0656 53.8804 85.8552L53.4827 85.812ZM53.1702 88.7094L52.7725 88.667C52.7357 89.0123 52.7069 89.2826 52.6875 89.4662L53.0853 89.5083L53.483 89.5503C53.5024 89.3671 53.5311 89.0972 53.568 88.7518L53.1702 88.7094ZM53.0853 89.5083L52.6875 89.4662C52.6791 89.545 52.6689 89.6378 52.665 89.6754L53.0628 89.7172L53.4606 89.7591C53.4666 89.7024 53.472 89.6545 53.483 89.5503L53.0853 89.5083ZM53.0628 89.7172L52.665 89.6755C52.6634 89.6907 52.6622 89.7037 52.6614 89.7133C52.6609 89.7187 52.6607 89.7215 52.6604 89.7248C52.6601 89.7278 52.6601 89.7286 52.6601 89.7283L53.0579 89.77L53.4557 89.8116C53.4564 89.8055 53.4569 89.7996 53.4573 89.7952C53.4577 89.7911 53.4581 89.7858 53.4584 89.7823C53.4591 89.7743 53.4598 89.7669 53.4606 89.759L53.0628 89.7172ZM53.0579 89.77L52.6601 89.7283C52.6607 89.7228 52.6612 89.7191 52.661 89.7206C52.6609 89.7211 52.6609 89.7212 52.6608 89.7222C52.6607 89.7229 52.6605 89.7242 52.6603 89.7256C52.6601 89.727 52.6598 89.7293 52.6594 89.7319C52.6591 89.7344 52.6586 89.7383 52.6581 89.7431L53.056 89.7846L53.4538 89.8262C53.4534 89.8302 53.453 89.8333 53.4528 89.8349C53.4525 89.8366 53.4524 89.8378 53.4523 89.8382C53.4523 89.8386 53.4522 89.8388 53.4523 89.8383C53.4523 89.8382 53.4525 89.837 53.4526 89.8362C53.4531 89.8327 53.4545 89.8231 53.4557 89.8117L53.0579 89.77ZM53.056 89.7846H52.656V89.7885H53.056H53.456V89.7846H53.056ZM53.056 89.7885L52.6581 89.7467C52.6365 89.9523 52.4508 90.1038 52.2419 90.0821L52.2005 90.4799L52.1591 90.8778C52.805 90.945 53.3857 90.4772 53.4538 89.8304L53.056 89.7885ZM52.2005 90.4799L52.242 90.0821C52.0335 90.0603 51.8834 89.874 51.9049 89.6681L51.5071 89.6264L51.1093 89.5847C51.0415 90.2316 51.5123 90.8103 52.159 90.8778L52.2005 90.4799ZM51.5071 89.6264L51.9028 89.6853C51.9016 89.6932 51.9003 89.7 51.8993 89.7053C51.8982 89.7107 51.8971 89.7152 51.8963 89.7188C51.8946 89.7258 51.8931 89.7312 51.8924 89.734C51.8915 89.7369 51.8909 89.739 51.8908 89.7394C51.8907 89.7396 51.8907 89.7398 51.8908 89.7395C51.8908 89.7394 51.8909 89.7389 51.8911 89.7382C51.8917 89.7363 51.8939 89.7288 51.8963 89.7192C51.8975 89.7142 51.8991 89.7076 51.9006 89.6999C51.9021 89.6922 51.9038 89.6823 51.9052 89.6708L51.5081 89.6225L51.111 89.5743C51.1124 89.5631 51.114 89.5535 51.1155 89.5462C51.1169 89.5388 51.1183 89.5326 51.1195 89.5279C51.1217 89.5191 51.1237 89.5123 51.1241 89.5111C51.1241 89.5108 51.1242 89.5106 51.1242 89.5105C51.1243 89.5104 51.1243 89.5103 51.1243 89.5103C51.1243 89.5102 51.1242 89.5106 51.1241 89.511C51.1239 89.5116 51.1231 89.5141 51.1223 89.5173C51.1214 89.5204 51.1198 89.5261 51.1181 89.5333C51.1172 89.537 51.1161 89.5417 51.115 89.5472C51.114 89.5526 51.1127 89.5595 51.1115 89.5676L51.5071 89.6264ZM51.5081 89.6225L51.9059 89.6642C51.9064 89.6593 51.9068 89.6551 51.907 89.6522C51.9072 89.6493 51.9074 89.6468 51.9075 89.6451C51.9076 89.6434 51.9077 89.642 51.9077 89.6412C51.9078 89.6408 51.9078 89.6404 51.9078 89.6402C51.9078 89.6399 51.9078 89.6398 51.9078 89.6396C51.9079 89.6386 51.9077 89.6427 51.9071 89.6484L51.5091 89.6088L51.111 89.5693C51.1099 89.5808 51.1093 89.5903 51.1091 89.5939C51.1091 89.5943 51.1091 89.5947 51.1091 89.595C51.1091 89.5954 51.1091 89.5955 51.109 89.5956C51.109 89.5959 51.1091 89.5955 51.1091 89.5948C51.1091 89.5941 51.1092 89.5925 51.1094 89.5904C51.1096 89.5884 51.1098 89.585 51.1103 89.5809L51.5081 89.6225ZM51.5091 89.6088L51.9069 89.6507C51.9074 89.6462 51.908 89.6403 51.9091 89.6304C51.9101 89.6212 51.9114 89.6099 51.9127 89.5971L51.5149 89.5551L51.1171 89.5132C51.116 89.5238 51.115 89.5334 51.114 89.5422C51.1131 89.5503 51.1121 89.5595 51.1113 89.567L51.5091 89.6088ZM51.5149 89.5551L51.9127 89.597C51.9209 89.5194 51.9218 89.5044 51.9342 89.3872L51.5364 89.3452L51.1386 89.3032C51.1316 89.3697 51.1189 89.4962 51.1171 89.5133L51.5149 89.5551ZM51.5364 89.3452L51.9342 89.3872C51.9536 89.2036 51.9823 88.9333 52.0191 88.5878L51.6214 88.5454L51.2236 88.503C51.1868 88.8487 51.1581 89.1192 51.1386 89.3031L51.5364 89.3452ZM51.6214 88.5454L52.0191 88.5878C52.0929 87.8957 52.1997 86.8997 52.3315 85.6882L51.9339 85.645L51.5362 85.6017C51.4044 86.8138 51.2975 87.8104 51.2236 88.503L51.6214 88.5454ZM51.9339 85.645L52.3315 85.6882C52.5951 83.2653 52.96 79.9753 53.3615 76.5094L52.9642 76.4633L52.5668 76.4173C52.165 79.8855 51.8 83.1775 51.5362 85.6017L51.9339 85.645ZM52.9642 76.4633L53.3615 76.5094C54.1024 70.1142 54.9746 63.0818 55.5811 59.8087L55.1878 59.7358L54.7945 59.6629C54.182 62.9686 53.3067 70.0311 52.5668 76.4173L52.9642 76.4633ZM55.1878 59.7358L55.2887 59.3487L51.2702 58.3009L51.1692 58.688L51.0683 59.075L55.0869 60.1229L55.1878 59.7358ZM51.1692 58.688L50.7815 58.5895C50.0822 61.3426 49.1253 65.2433 48.3171 68.8385L48.7073 68.9262L49.0976 69.014C49.9037 65.4281 50.8587 61.535 51.5569 58.7864L51.1692 58.688ZM48.7073 68.9262L48.3171 68.8385C47.8744 70.8078 47.4759 72.6828 47.1891 74.2262L47.5823 74.2993L47.9756 74.3724C48.2598 72.8431 48.6558 70.9791 49.0976 69.014L48.7073 68.9262ZM47.5823 74.2993L47.1891 74.2262C46.9 75.7813 46.7302 76.9672 46.7302 77.5776L47.1302 77.5776L47.5302 77.5776C47.5302 77.0531 47.6843 75.9396 47.9756 74.3724L47.5823 74.2993ZM47.1302 77.5776H46.7302V78.354H47.1302H47.5302V77.5776H47.1302ZM47.1302 78.354V77.954H21.7054V78.354V78.754H47.1302V78.354ZM21.7054 78.354H22.1054V77.5776H21.7054H21.3054V78.354H21.7054ZM21.7054 77.5776L22.1054 77.5776C22.1053 76.9672 21.9355 75.7812 21.6465 74.2262L21.2532 74.2993L20.86 74.3724C21.1513 75.9395 21.3053 77.0532 21.3054 77.5776L21.7054 77.5776ZM21.2532 74.2993L21.6465 74.2262C21.3596 72.6828 20.9612 70.8078 20.5185 68.8385L20.1282 68.9262L19.738 69.014C20.1797 70.9791 20.5757 72.8431 20.86 74.3724L21.2532 74.2993ZM20.1282 68.9262L20.5185 68.8385C19.6989 65.1928 18.7264 61.233 18.0247 58.4741L17.637 58.5727L17.2494 58.6713C17.95 61.4256 18.9205 65.3777 19.738 69.014L20.1282 68.9262ZM17.637 58.5727L17.5244 58.1889C17.2344 58.2739 16.9378 58.3521 16.6335 58.4195L16.72 58.81L16.8065 59.2006C17.131 59.1287 17.4452 59.0458 17.7496 58.9566L17.637 58.5727ZM16.72 58.81L16.6335 58.4195C15.768 58.6113 14.9362 58.8421 14.1383 59.106L14.264 59.4858L14.3896 59.8656C15.1621 59.6101 15.9678 59.3864 16.8066 59.2005L16.72 58.81ZM14.264 59.4858L13.8866 59.6186C13.8961 59.6454 13.8995 59.6577 13.9011 59.6651L14.2923 59.5815L14.6835 59.4979C14.6709 59.4393 14.6537 59.3882 14.6413 59.353L14.264 59.4858ZM14.2923 59.5815L13.901 59.6648C14.5058 62.5055 15.4372 70.0886 16.2152 76.9353L16.6126 76.8901L17.01 76.8449C16.2342 70.0172 15.2984 62.3864 14.6835 59.4982L14.2923 59.5815ZM16.6126 76.8901L16.2152 76.9353C16.6048 80.364 16.9562 83.6172 17.2109 86.0125L17.6087 85.9702L18.0064 85.9279C17.7516 83.5315 17.3999 80.2763 17.01 76.8449L16.6126 76.8901ZM17.6087 85.9702L17.2109 86.0125C17.3383 87.2101 17.4414 88.1939 17.5126 88.8778L17.9104 88.8364L18.3083 88.795C18.2371 88.1105 18.1338 87.1261 18.0064 85.9279L17.6087 85.9702ZM17.9104 88.8364L17.5126 88.8778C17.5482 89.2197 17.5759 89.4869 17.5946 89.6684L17.9925 89.6274L18.3904 89.5864C18.3716 89.4044 18.3439 89.137 18.3083 88.795L17.9104 88.8364ZM17.9925 89.6274L17.5946 89.6684C17.6042 89.7619 17.6111 89.8272 17.6161 89.8753L18.014 89.8344L18.4119 89.7936C18.4072 89.7481 18.3994 89.6745 18.3904 89.5864L17.9925 89.6274ZM18.014 89.8344L17.6161 89.8753C17.6175 89.8893 17.6189 89.9015 17.62 89.9108C17.6212 89.9216 17.6216 89.9253 17.6219 89.9281L18.0198 89.8872L18.4177 89.8463C18.4168 89.8371 18.4155 89.826 18.4147 89.8192C18.4137 89.8109 18.4128 89.8027 18.4119 89.7936L18.014 89.8344ZM18.0198 89.8872L17.6219 89.9279C17.6205 89.9139 17.6201 89.9021 17.62 89.8936C17.62 89.8853 17.6203 89.879 17.6203 89.8773C17.6204 89.8768 17.6204 89.8757 17.6203 89.8773C17.6203 89.8781 17.6201 89.881 17.62 89.8846C17.6199 89.8882 17.6197 89.8942 17.6198 89.9017C17.6198 89.9091 17.6201 89.9201 17.6212 89.9334L18.0198 89.9008L18.4185 89.8682C18.4195 89.8808 18.4197 89.891 18.4198 89.8975C18.4198 89.9041 18.4197 89.9093 18.4196 89.9118C18.4195 89.9133 18.4195 89.9144 18.4194 89.915C18.4194 89.9153 18.4194 89.9156 18.4194 89.9158C18.4194 89.9159 18.4194 89.916 18.4194 89.916C18.4194 89.9165 18.4195 89.9144 18.4195 89.9127C18.4197 89.9086 18.4201 89.8998 18.42 89.8889C18.42 89.8778 18.4195 89.8633 18.4177 89.8465L18.0198 89.8872ZM18.0198 89.9008L17.6219 89.9418C17.6255 89.9766 17.6329 90.0037 17.6374 90.0183C17.6421 90.0337 17.6467 90.0456 17.6487 90.0504C17.6497 90.0531 17.6506 90.0553 17.6508 90.0556C17.6513 90.0568 17.6505 90.055 17.6498 90.0534C17.6491 90.0516 17.6472 90.0468 17.6449 90.0406C17.6429 90.0349 17.6388 90.0234 17.6348 90.0086L18.0208 89.9038L18.4068 89.799C18.4027 89.784 18.3986 89.7723 18.3965 89.7664C18.3941 89.76 18.3921 89.755 18.3913 89.753C18.3906 89.7512 18.3897 89.7491 18.3901 89.75C18.3902 89.7501 18.3909 89.752 18.3919 89.7544C18.3936 89.7588 18.3981 89.7701 18.4026 89.785C18.4069 89.799 18.4142 89.8256 18.4177 89.8598L18.0198 89.9008ZM18.0208 89.9038H17.6208V89.9057H18.0208H18.4208V89.9038H18.0208ZM18.0208 89.9057L17.6229 89.9464C17.6439 90.1518 17.494 90.3371 17.285 90.3584L17.3255 90.7563L17.366 91.1543C18.0123 91.0884 18.4849 90.5125 18.4187 89.8651L18.0208 89.9057ZM17.3255 90.7563L17.2851 90.3584C17.0758 90.3796 16.8909 90.2278 16.8699 90.0223L16.472 90.063L16.074 90.1036C16.1402 90.7511 16.7199 91.2198 17.3659 91.1543L17.3255 90.7563ZM16.472 90.063H16.872V90.059H16.472H16.072V90.063H16.472ZM16.472 90.059L16.8692 90.0123L16.8614 89.9459L16.4642 89.9926L16.0669 90.0394L16.0747 90.1058L16.472 90.059ZM16.4642 89.9926L16.8621 89.9518C16.8598 89.9298 16.8571 89.9023 16.8537 89.8671C16.8503 89.8324 16.8463 89.7917 16.8415 89.7456L16.4436 89.7866L16.0458 89.8276C16.0503 89.8717 16.0542 89.9108 16.0575 89.945C16.0608 89.9785 16.0637 90.009 16.0662 90.0335L16.4642 89.9926ZM16.4436 89.7866L16.8415 89.7456C16.8228 89.564 16.795 89.2959 16.7595 88.9542L16.3616 88.9956L15.9638 89.037C15.9993 89.3785 16.0271 89.6464 16.0458 89.8276L16.4436 89.7866ZM16.3616 88.9956L16.7595 88.9542C16.6884 88.2708 16.5858 87.2877 16.4586 86.091L16.0608 86.1333L15.6631 86.1756C15.7902 87.3714 15.8927 88.3538 15.9638 89.037L16.3616 88.9956ZM16.0608 86.1333L16.4586 86.091C16.2041 83.6971 15.8525 80.4469 15.4632 77.0207L15.0657 77.0659L14.6683 77.111C15.0573 80.5347 15.4087 83.7829 15.6631 86.1756L16.0608 86.1333ZM15.0657 77.0659L15.4632 77.0207C14.6943 70.2543 13.7807 62.8357 13.185 59.947L12.7933 60.0278L12.4015 60.1086C12.9882 62.9532 13.8976 70.3284 14.6683 77.111L15.0657 77.0659ZM12.7933 60.0278L12.6422 59.6574C6.26793 62.2576 2.38197 67.2197 1.84917 72.7964L2.24736 72.8344L2.64555 72.8725C3.14525 67.6422 6.79561 62.9063 12.9443 60.3982L12.7933 60.0278ZM2.24736 72.8344L1.84917 72.7964C1.32732 78.26 1.62067 87.7589 1.83687 89.8071L2.23466 89.7651L2.63245 89.7231C2.42121 87.722 2.12934 78.277 2.64555 72.8725L2.24736 72.8344ZM2.23466 89.7651L1.83685 89.8069C1.85833 90.0114 1.70888 90.1977 1.49935 90.2198L1.5413 90.6176L1.58326 91.0154C2.22817 90.9474 2.70049 90.3709 2.63248 89.7233L2.23466 89.7651ZM1.5413 90.6176L1.49972 90.2198C1.2905 90.2417 1.10531 90.0905 1.08362 89.8852L0.685836 89.9272L0.288048 89.9692C0.356386 90.6163 0.937269 91.083 1.58289 91.0155L1.5413 90.6176ZM0.685836 89.9272L1.08363 89.8852C0.862772 87.7929 0.568679 78.2448 1.09574 72.726L0.697554 72.688L0.299366 72.6499C-0.233335 78.2278 0.062223 87.8298 0.288046 89.9692L0.685836 89.9272ZM0.697554 72.688L1.09574 72.726C1.77028 65.6641 7.49649 59.6742 16.4687 57.6859L16.3821 57.2954L16.2956 56.9048C7.06979 58.9493 1.01447 65.1634 0.299367 72.6499L0.697554 72.688ZM16.3821 57.2954L16.4687 57.6859C23.0919 56.2183 25.5245 50.2879 25.9684 47.2159L25.5726 47.1587L25.1767 47.1014C24.7564 50.0092 22.4571 55.5396 16.2956 56.9048L16.3821 57.2954ZM25.5726 47.1587L25.7904 46.8232C25.2137 46.4486 24.6591 46.0332 24.1332 45.5779L23.8714 45.8803L23.6096 46.1828C24.1639 46.6626 24.7479 47.1 25.3547 47.4941L25.5726 47.1587ZM23.8714 45.8803L24.1398 45.5837L23.6466 45.1375L23.3782 45.434L23.1098 45.7306L23.603 46.1769L23.8714 45.8803ZM23.3782 45.434L23.6526 45.1429C21.2948 42.9209 19.581 39.9366 18.5935 36.4121L18.2083 36.52L17.8231 36.6279C18.8437 40.2705 20.6248 43.3888 23.1039 45.7251L23.3782 45.434ZM18.2083 36.52L18.2041 36.12C15.718 36.146 13.3923 34.6733 12.4107 32.2673L12.0403 32.4184L11.67 32.5695C12.7784 35.2865 15.4061 36.9494 18.2125 36.92L18.2083 36.52ZM12.0403 32.4184V32.8184H12.0413V32.4184V32.0184H12.0403V32.4184ZM12.0413 32.4184L12.4115 32.267C11.2913 29.5278 12.2052 26.5025 14.5575 24.8377L14.3265 24.5112L14.0954 24.1847C11.4407 26.0635 10.4092 29.4843 11.6711 32.5698L12.0413 32.4184ZM14.3265 24.5112L14.6966 24.3595C14.3921 23.6166 14.1289 22.8173 13.9156 21.9666L13.5276 22.0639L13.1396 22.1612C13.3619 23.0477 13.6369 23.8834 13.9563 24.6629L14.3265 24.5112ZM13.5276 22.0639L13.9167 21.9709L13.8297 21.6076L13.4407 21.7006L13.0517 21.7937L13.1386 22.157L13.5276 22.0639ZM13.4407 21.7006L13.8308 21.612C13.0635 18.2363 13.1903 14.4752 14.1157 11.494L13.7337 11.3755L13.3517 11.2569C12.3816 14.3819 12.2545 18.2864 13.0507 21.7893L13.4407 21.7006ZM13.7337 11.3755L14.1147 11.4974L14.2084 11.2044L13.8274 11.0825L13.4465 10.9606L13.3527 11.2535L13.7337 11.3755ZM13.8274 11.0825L14.2066 11.2098C14.9076 9.12238 15.9531 7.54452 17.2416 6.51198C18.5254 5.48325 20.07 4.97954 21.8105 5.06597L21.8304 4.66647L21.8502 4.26696C19.9192 4.17107 18.1815 4.73367 16.7414 5.88768C15.306 7.03788 14.1857 8.75919 13.4482 10.9551L13.8274 11.0825ZM21.8304 4.66647L21.802 5.06546L22.1594 5.09085L22.1878 4.69186L22.2161 4.29286L21.8587 4.26747L21.8304 4.66647ZM41.9847 47.2915L41.7705 46.9536C39.4231 48.4419 36.7213 49.2205 33.9368 49.2206L33.9368 49.6206L33.9368 50.0206C36.8717 50.0205 39.7223 49.1995 42.1988 47.6293L41.9847 47.2915ZM33.9368 49.6206V49.2206H33.8079V49.6206V50.0206H33.9368V49.6206ZM33.8079 49.6206V49.2206C31.5102 49.2206 29.2431 48.6648 27.1887 47.625L27.0081 47.9819L26.8275 48.3388C28.9906 49.4336 31.3811 50.0206 33.8079 50.0206V49.6206ZM27.0081 47.9819L26.616 47.9028C26.0193 50.8611 23.9091 55.5639 18.9518 57.6784L19.1087 58.0463L19.2656 58.4143C24.5561 56.1577 26.7746 51.1627 27.4002 48.061L27.0081 47.9819ZM19.1087 58.0463L18.7211 58.1451C19.4268 60.9147 20.4207 64.9563 21.2565 68.6741L21.6468 68.5864L22.037 68.4987C21.1991 64.7712 20.2033 60.7218 19.4963 57.9476L19.1087 58.0463ZM21.6468 68.5864L21.2565 68.6741C21.7002 70.6478 22.1009 72.5329 22.3902 74.0892L22.7835 74.0161L23.1768 73.943C22.8848 72.3726 22.4817 70.4765 22.037 68.4987L21.6468 68.5864ZM22.7835 74.0161L22.3902 74.0892C22.5922 75.1756 22.7443 76.1283 22.8162 76.8423L23.2142 76.8022L23.6121 76.7621C23.5369 76.0146 23.3799 75.0359 23.1768 73.943L22.7835 74.0161ZM23.2142 76.8022V77.2022H45.6214V76.8022V76.4022H23.2142V76.8022ZM45.6214 76.8022L46.0194 76.8423C46.0912 76.1284 46.2434 75.1764 46.4453 74.0901L46.052 74.0171L45.6588 73.944C45.4557 75.0367 45.2986 76.0146 45.2234 76.7621L45.6214 76.8022ZM46.052 74.0171L46.4453 74.0902C46.7346 72.5338 47.1353 70.6479 47.579 68.6741L47.1888 68.5864L46.7985 68.4987C46.3538 70.4767 45.9507 72.3735 45.6588 73.9439L46.052 74.0171ZM47.1888 68.5864L47.579 68.6741C48.4257 64.9076 49.4335 60.8085 50.1408 58.0369L49.7532 57.938L49.3656 57.839C48.6571 60.6157 47.6474 64.7226 46.7985 68.4987L47.1888 68.5864ZM49.7532 57.938L49.9179 57.5734C44.7424 55.2348 42.7654 50.043 42.381 47.2372L41.9847 47.2915L41.5884 47.3458C41.9938 50.3044 44.0688 55.8083 49.5885 58.3025L49.7532 57.938ZM43.1956 61.6255L43.3141 61.2434L35.8805 58.9377L35.762 59.3198L35.6435 59.7018L43.0771 62.0075L43.1956 61.6255ZM35.762 59.3198V58.9198H34.0823V59.3198V59.7198H35.762V59.3198ZM34.0823 59.3198L33.9638 58.9377L26.5302 61.2434L26.6487 61.6255L26.7672 62.0075L34.2008 59.7018L34.0823 59.3198ZM26.6487 61.6255H27.0487V52.6255H26.6487H26.2487V61.6255H26.6487ZM26.6487 52.6255L26.5446 53.0117L33.9616 55.0117L34.0657 54.6255L34.1699 54.2392L26.7529 52.2392L26.6487 52.6255ZM34.0657 54.6255L33.6659 54.6359L33.6688 54.7482L34.0686 54.7378L34.4685 54.7273L34.4656 54.615L34.0657 54.6255ZM34.0686 54.7378V55.1378H35.7757V54.7378V54.3378H34.0686V54.7378ZM35.7757 54.7378L36.1755 54.7482L36.1785 54.6359L35.7786 54.6255L35.3787 54.615L35.3758 54.7273L35.7757 54.7378ZM35.7786 54.6255L35.8828 55.0117L43.2997 53.0117L43.1956 52.6255L43.0915 52.2392L35.6745 54.2392L35.7786 54.6255ZM43.1956 52.6255H42.7956V61.6255H43.1956H43.5956V52.6255H43.1956ZM28.2063 59.5161L28.3249 59.8981L32.7067 58.5387L32.5882 58.1567L32.4697 57.7747L28.0878 59.134L28.2063 59.5161ZM32.5882 58.1567L32.9881 58.1477L32.9353 55.8117L32.5354 55.8208L32.1355 55.8298L32.1883 58.1657L32.5882 58.1567ZM32.5354 55.8208L32.6396 55.4346L28.3105 54.2666L28.2063 54.6528L28.1022 55.039L32.4313 56.207L32.5354 55.8208ZM28.2063 54.6528H27.8063V59.5161H28.2063H28.6063V54.6528H28.2063ZM37.5218 55.7631H37.1218V58.2387H37.5218H37.9218V55.7631H37.5218ZM37.5218 58.2387L37.4032 58.6208L41.5194 59.8981L41.638 59.5161L41.7565 59.134L37.6403 57.8567L37.5218 58.2387ZM41.638 59.5161H42.038V54.6528H41.638H41.238V59.5161H41.638ZM41.638 54.6528L41.5338 54.2666L37.4176 55.3769L37.5218 55.7631L37.6259 56.1493L41.7422 55.039L41.638 54.6528ZM34.4954 57.7671V58.1671H35.7083V57.7671V57.3671H34.4954V57.7671ZM35.7083 57.7671L36.1082 57.776L36.1414 56.2985L35.7415 56.2895L35.3416 56.2805L35.3084 57.7581L35.7083 57.7671ZM35.7415 56.2895V55.8895H34.4954V56.2895V56.6895H35.7415V56.2895ZM34.4954 56.2895H34.0954V57.7671H34.4954H34.8954V56.2895H34.4954ZM28.095 16.602L27.7662 16.3743C26.9542 17.5467 25.6178 18.3446 24.2143 19.1605L24.4153 19.5063L24.6164 19.8521C25.9883 19.0546 27.4928 18.1742 28.4239 16.8297L28.095 16.602ZM24.4153 19.5063L24.2138 19.1608C23.0709 19.8274 21.8636 20.5433 21.1608 21.4567L21.4778 21.7006L21.7948 21.9446C22.3832 21.1799 23.4361 20.5406 24.6169 19.8518L24.4153 19.5063ZM21.4778 21.7006L21.161 21.4565C20.336 22.5271 19.9774 23.9537 19.8412 25.3076C19.7041 26.6692 19.7875 28.0066 19.8857 28.9398L20.2835 28.8979L20.6813 28.856C20.5859 27.9495 20.5078 26.6726 20.6371 25.3877C20.7672 24.095 21.1026 22.8429 21.7947 21.9448L21.4778 21.7006ZM20.2835 28.8979L19.8849 28.9311C19.9065 29.1905 19.7971 29.4346 19.6019 29.5712L19.8313 29.8989L20.0607 30.2266C20.5111 29.9113 20.725 29.3799 20.6821 28.8647L20.2835 28.8979ZM19.8313 29.8989L19.6271 29.5549L19.5021 29.6292L19.7063 29.9731L19.9106 30.317L20.0356 30.2428L19.8313 29.8989ZM19.7063 29.9731L19.5294 29.6144C19.383 29.6866 19.1998 29.6941 19.0164 29.6222L18.8704 29.9946L18.7244 30.367C19.0937 30.5118 19.5133 30.5143 19.8833 30.3318L19.7063 29.9731ZM18.8704 29.9946L19.0398 29.6323L18.9041 29.5688L18.7347 29.9311L18.5652 30.2935L18.701 30.3569L18.8704 29.9946ZM18.7347 29.9311L18.9278 29.5808C17.5157 28.8025 16.2998 27.4968 15.3558 25.7561L15.0042 25.9467L14.6526 26.1374C15.6522 27.9807 16.9668 29.4134 18.5416 30.2814L18.7347 29.9311ZM15.0042 25.9467L14.7559 25.6331C12.9311 27.0777 12.2174 29.4905 13.017 31.7353L13.3938 31.601L13.7706 31.4668C13.0864 29.5461 13.6954 27.493 15.2525 26.2604L15.0042 25.9467ZM13.3938 31.601L13.0199 31.743L13.1078 31.9745L13.4817 31.8325L13.8557 31.6905L13.7678 31.459L13.3938 31.601ZM13.4817 31.8325L13.1989 32.1153L13.1999 32.1163L13.4827 31.8335L13.7656 31.5506L13.7646 31.5496L13.4817 31.8325ZM13.4827 31.8335L13.1123 31.9846C14.0485 34.2792 16.372 35.6065 18.7545 35.3354L18.7093 34.938L18.664 34.5405C16.6324 34.7717 14.6518 33.6402 13.8531 31.6824L13.4827 31.8335ZM18.7093 34.938L18.7551 35.3353L19.4328 35.2572L19.387 34.8598L19.3412 34.4625L18.6635 34.5406L18.7093 34.938ZM19.387 34.8598L18.9991 34.9575L19.1651 35.6167L19.553 35.519L19.9409 35.4213L19.7749 34.7621L19.387 34.8598ZM19.553 35.519L19.1652 35.6168C20.1503 39.525 22.0189 42.7457 24.6298 45.0106L24.8919 44.7085L25.154 44.4063C22.6871 42.2663 20.8931 39.1989 19.9409 35.4212L19.553 35.519ZM24.8919 44.7085L24.6301 45.0109C27.2095 47.2439 30.4797 48.4688 33.8079 48.4688V48.0688V47.6688C30.6755 47.6688 27.5903 46.5155 25.1537 44.406L24.8919 44.7085ZM33.8079 48.0688V48.4688H33.9368V48.0688V47.6688H33.8079V48.0688ZM33.9368 48.0688L33.9368 48.4688C37.2991 48.4688 40.5348 47.2745 43.1118 45.012L42.8479 44.7114L42.584 44.4108C40.1544 46.5439 37.1068 47.6688 33.9368 47.6688L33.9368 48.0688ZM42.8479 44.7114L43.1308 44.9942L43.1337 44.9913L42.8509 44.7085L42.568 44.4256L42.5651 44.4285L42.8479 44.7114ZM42.8509 44.7085L43.113 45.0106C45.7254 42.7446 47.6259 39.5242 48.5783 35.6197L48.1897 35.5249L47.8011 35.4301C46.8828 39.1949 45.0602 42.2625 42.5888 44.4063L42.8509 44.7085ZM48.1897 35.5249L48.5784 35.6195L48.7405 34.9534L48.3519 34.8588L47.9632 34.7643L47.8011 35.4303L48.1897 35.5249ZM48.3519 34.8588L48.3058 35.2562L48.9884 35.3353L49.0345 34.938L49.0805 34.5406L48.3979 34.4615L48.3519 34.8588ZM49.0345 34.938L48.9892 35.3354C51.3719 35.6068 53.6952 34.2792 54.6314 31.9846L54.261 31.8335L53.8907 31.6824C53.0919 33.6403 51.1115 34.7719 49.0797 34.5405L49.0345 34.938ZM54.261 31.8335L54.6188 32.0123L54.6198 32.0104L54.262 31.8315L53.9042 31.6526L53.9033 31.6546L54.261 31.8335ZM54.262 31.8315L54.632 31.9835C55.5373 29.7805 54.8717 27.1798 53.0302 25.6706L52.7767 25.9799L52.5231 26.2893C54.0945 27.5772 54.6627 29.8041 53.892 31.6795L54.262 31.8315ZM52.7767 25.9799L53.0251 25.6665C52.9568 25.6123 52.8686 25.5479 52.7689 25.4798L52.5433 25.81L52.3176 26.1403C52.4062 26.2008 52.4783 26.2539 52.5282 26.2934L52.7767 25.9799ZM52.5433 25.81L52.1842 25.6337C51.3967 27.2369 50.3204 28.5868 48.9976 29.5789L49.2376 29.8989L49.4776 30.2189C50.9134 29.1421 52.0662 27.6884 52.9023 25.9864L52.5433 25.81ZM49.2376 29.8989L49.1514 29.5083L49.001 29.5415L49.0872 29.9321L49.1734 30.3227L49.3238 30.2895L49.2376 29.8989ZM49.0872 29.9321L48.9849 29.5454C48.7862 29.598 48.7012 29.6278 48.6242 29.6278L48.6243 30.0278L48.6244 30.4278C48.8378 30.4277 49.0797 30.3478 49.1896 30.3188L49.0872 29.9321ZM48.6243 30.0278L48.6439 29.6283L48.5042 29.6214L48.4847 30.021L48.4651 30.4205L48.6048 30.4273L48.6243 30.0278ZM48.4847 30.021L48.5248 29.623C48.4669 29.6171 48.4209 29.6058 48.3798 29.589L48.2288 29.9594L48.0778 30.3299C48.2003 30.3798 48.3226 30.4066 48.4445 30.4189L48.4847 30.021ZM48.2288 29.9594L48.4077 29.6017L48.2866 29.5411L48.1077 29.8989L47.9288 30.2567L48.0499 30.3172L48.2288 29.9594ZM48.1077 29.8989L48.3225 29.5614C48.0701 29.4008 47.9513 29.1555 47.9865 28.9264L47.5911 28.8657L47.1958 28.8049C47.102 29.4148 47.4354 29.9452 47.8929 30.2363L48.1077 29.8989ZM47.5911 28.8657L47.9886 28.9107C48.1871 27.1568 48.0546 24.1857 47.8603 22.2103L47.4622 22.2495L47.0641 22.2886C47.2571 24.2506 47.3824 27.1534 47.1936 28.8207L47.5911 28.8657ZM47.4622 22.2495L47.8602 22.2097C47.7507 21.115 47.1976 20.2139 46.2546 19.4806L46.0091 19.7963L45.7635 20.1121C46.5635 20.7343 46.98 21.4476 47.0642 22.2893L47.4622 22.2495ZM46.0091 19.7963L46.2536 19.4798C44.7426 18.3126 42.3396 17.7072 40.3326 18.0132L40.3929 18.4087L40.4532 18.8041C42.2546 18.5294 44.435 19.0859 45.7645 20.1129L46.0091 19.7963ZM40.3929 18.4087L40.3358 18.0127C37.0668 18.4841 33.004 17.8913 28.2268 16.2243L28.095 16.602L27.9632 16.9797C32.8045 18.669 37.0052 19.3013 40.45 18.8046L40.3929 18.4087ZM42.8343 3.49459L42.9739 3.11974C35.4827 0.329896 27.9316 1.33135 22.9387 5.56852L23.1976 5.8735L23.4564 6.17848C28.1842 2.16624 35.4156 1.15859 42.6947 3.86944L42.8343 3.49459ZM23.1976 5.8735L22.9386 5.56866L22.4386 5.99347L22.6976 6.2983L22.9565 6.60314L23.4565 6.17833L23.1976 5.8735ZM22.6976 6.2983L22.7345 5.90001L22.0811 5.83946L22.0442 6.23776L22.0073 6.63605L22.6606 6.6966L22.6976 6.2983ZM22.0442 6.23776L22.081 5.83945C20.4383 5.68767 19.0117 6.10503 17.8286 7.00986L18.0716 7.3276L18.3146 7.64533C19.3311 6.86792 20.556 6.50195 22.0074 6.63606L22.0442 6.23776ZM18.0716 7.3276L17.8286 7.00987C16.6301 7.92648 15.6134 9.39714 14.9248 11.4473L15.304 11.5747L15.6832 11.702C16.3341 9.7639 17.2721 8.44263 18.3146 7.64533L18.0716 7.3276ZM15.304 11.5747L14.9245 11.4483C13.9653 14.3279 13.8047 18.0787 14.5672 21.4395L14.9573 21.351L15.3474 21.2625C14.6143 18.0315 14.7744 14.4302 15.6835 11.7011L15.304 11.5747ZM14.9573 21.351L14.5685 21.4449L14.6505 21.7847L15.0394 21.6909L15.4282 21.597L15.3462 21.2572L14.9573 21.351ZM15.0394 21.6909L14.6514 21.7882C15.4077 24.8034 16.7495 27.0316 18.4017 28.3288L18.6487 28.0141L18.8957 27.6995C17.4236 26.5438 16.155 24.4944 15.4273 21.5936L15.0394 21.6909ZM18.6487 28.0141L19.048 27.9904C18.9995 27.1724 18.9893 26.2112 19.0877 25.2329L18.6897 25.1928L18.2918 25.1528C18.1878 26.1857 18.1992 27.1918 18.2494 28.0378L18.6487 28.0141ZM18.6897 25.1928L19.0877 25.2329C19.2297 23.8223 19.6097 22.2321 20.5594 20.9994L20.2425 20.7553L19.9256 20.5112C18.8431 21.9164 18.4399 23.681 18.2918 25.1528L18.6897 25.1928ZM20.2425 20.7553L20.5595 20.9993C21.3705 19.9454 22.7245 19.1572 23.8307 18.512L23.6292 18.1665L23.4277 17.8209C22.3565 18.4457 20.8504 19.3095 19.9255 20.5114L20.2425 20.7553ZM23.6292 18.1665L23.912 18.4493L23.914 18.4474L23.6311 18.1645L23.3483 17.8817L23.3464 17.8836L23.6292 18.1665ZM23.6311 18.1645L23.8322 18.5103C25.2636 17.6782 26.4426 16.9579 27.1426 15.9469L26.8138 15.7192L26.4849 15.4915C25.9046 16.3295 24.8964 16.9663 23.4301 17.8187L23.6311 18.1645ZM26.8138 15.7192L27.1426 15.9469L27.8174 14.9723L27.4886 14.7446L27.1597 14.5169L26.4849 15.4915L26.8138 15.7192ZM27.4886 14.7446L27.3566 15.1222L28.4767 15.5138L28.6087 15.1362L28.7407 14.7586L27.6206 14.367L27.4886 14.7446ZM28.6087 15.1362L28.4769 15.5139C33.1937 17.1598 37.1256 17.7148 40.2273 17.2674L40.1702 16.8715L40.1131 16.4756C37.1871 16.8976 33.3931 16.3821 28.7405 14.7585L28.6087 15.1362ZM40.1702 16.8715L40.2299 17.2671C42.3602 16.9458 44.8758 17.5474 46.5596 18.7668L46.7942 18.4428L47.0289 18.1189C45.1703 16.7729 42.4422 16.1244 40.1106 16.476L40.1702 16.8715ZM46.7942 18.4428L46.5539 18.7626L46.7229 18.8896L46.9632 18.5698L47.2035 18.25L47.0345 18.1231L46.7942 18.4428ZM46.9632 18.5698L46.7232 18.8898L46.7271 18.8927L46.9671 18.5727L47.2071 18.2527L47.2032 18.2498L46.9632 18.5698ZM46.9671 18.5727L46.7215 18.8885C47.7337 19.6757 48.3932 20.6721 48.5816 21.8869L48.9769 21.8256L49.3721 21.7644C49.1473 20.314 48.3566 19.1467 47.2127 18.257L46.9671 18.5727ZM48.9769 21.8256L48.58 21.876L48.6142 22.1455L49.011 22.0952L49.4079 22.0449L49.3737 21.7753L48.9769 21.8256ZM49.011 22.0952H48.611V22.0981H49.011H49.411V22.0952H49.011ZM49.011 22.0981L48.613 22.1373C48.7707 23.7412 48.8928 26.0421 48.8223 27.8393L49.222 27.8549L49.6217 27.8706C49.6941 26.0252 49.5691 23.6855 49.4091 22.059L49.011 22.0981ZM49.222 27.8549L49.505 28.1376C52.072 25.5666 53.4019 21.2549 52.7709 16.4271L52.3743 16.479L51.9777 16.5308C52.5842 21.1717 51.2923 25.2153 48.9389 27.5723L49.222 27.8549ZM52.3743 16.479L52.7648 16.3922L52.7628 16.3834L52.3724 16.4702L51.9819 16.5569L51.9838 16.5657L52.3743 16.479ZM52.3724 16.4702L52.7685 16.4149L52.6904 15.8553L52.2942 15.9106L51.8981 15.9659L51.9762 16.5255L52.3724 16.4702ZM52.2942 15.9106L52.6895 15.8494C51.7821 9.99252 48.3227 5.28578 43.7 3.40247L43.5491 3.77291L43.3982 4.14335C47.7159 5.90241 51.0265 10.3413 51.899 15.9719L52.2942 15.9106ZM43.5491 3.77291L43.6942 3.40017L42.9794 3.12185L42.8343 3.49459L42.6891 3.86734L43.404 4.14566L43.5491 3.77291Z" fill="#770E16"/>
</svg>
